<svg width="31" height="30" viewBox="0 0 31 30" fill="none" xmlns="http://www.w3.org/2000/svg">
<circle cx="15.5186" cy="15" r="15" fill="white"/>
<path fill-rule="evenodd" clip-rule="evenodd" d="M12.6366 7.045C13.4778 7.00818 13.746 7 15.889 7C18.0319 7 18.3001 7.00886 19.1407 7.045C19.9812 7.08114 20.555 7.20864 21.057 7.39341C21.5827 7.58227 22.0596 7.8775 22.454 8.25932C22.8557 8.63364 23.1655 9.08636 23.3634 9.58682C23.5585 10.0641 23.6919 10.6095 23.7306 11.4073C23.7694 12.2084 23.778 12.4634 23.778 14.5C23.778 16.5373 23.7686 16.7923 23.7306 17.592C23.6926 18.3898 23.5585 18.9352 23.3634 19.4125C23.1655 19.913 22.8551 20.3665 22.454 20.7414C22.0596 21.1232 21.5827 21.4177 21.057 21.6059C20.555 21.7914 19.9812 21.9182 19.1421 21.955C18.3001 21.9918 18.0319 22 15.889 22C13.746 22 13.4778 21.9911 12.6366 21.955C11.7975 21.9189 11.2237 21.7914 10.7217 21.6059C10.1952 21.4177 9.71823 21.1227 9.32391 20.7414C8.92257 20.3668 8.61198 19.9136 8.41381 19.4132C8.21946 18.9359 8.08606 18.3905 8.04733 17.5927C8.00861 16.7916 8 16.5366 8 14.5C8 12.4627 8.00932 12.2077 8.04733 11.4086C8.08534 10.6095 8.21946 10.0641 8.41381 9.58682C8.61227 9.08642 8.9231 8.63317 9.32463 8.25864C9.71839 7.87716 10.1949 7.58189 10.721 7.39341C11.223 7.20864 11.7968 7.08182 12.6359 7.045H12.6366ZM19.0768 8.395C18.2449 8.35886 17.9953 8.35136 15.889 8.35136C13.7826 8.35136 13.533 8.35886 12.7011 8.395C11.9316 8.42841 11.5142 8.55045 11.2359 8.65341C10.868 8.78977 10.6048 8.95136 10.3287 9.21386C10.0669 9.45594 9.86551 9.75065 9.73916 10.0764C9.63087 10.3409 9.50249 10.7377 9.46735 11.4693C9.42934 12.2602 9.42145 12.4975 9.42145 14.5C9.42145 16.5025 9.42934 16.7398 9.46735 17.5307C9.50249 18.2623 9.63087 18.6591 9.73916 18.9236C9.86538 19.2489 10.0669 19.5441 10.3287 19.7861C10.5833 20.035 10.8938 20.2266 11.2359 20.3466C11.5142 20.4495 11.9316 20.5716 12.7011 20.605C13.533 20.6411 13.7819 20.6486 15.889 20.6486C17.9961 20.6486 18.2449 20.6411 19.0768 20.605C19.8464 20.5716 20.2638 20.4495 20.542 20.3466C20.91 20.2102 21.1732 20.0486 21.4493 19.7861C21.711 19.5441 21.9126 19.2489 22.0388 18.9236C22.1471 18.6591 22.2755 18.2623 22.3106 17.5307C22.3486 16.7398 22.3565 16.5025 22.3565 14.5C22.3565 12.4975 22.3486 12.2602 22.3106 11.4693C22.2755 10.7377 22.1471 10.3409 22.0388 10.0764C21.8954 9.72659 21.7254 9.47636 21.4493 9.21386C21.1946 8.96505 20.8846 8.77355 20.542 8.65341C20.2638 8.55045 19.8464 8.42841 19.0768 8.395ZM14.8813 16.812C15.4441 17.0347 16.0707 17.0648 16.6542 16.8971C17.2376 16.7294 17.7417 16.3743 18.0804 15.8924C18.4191 15.4106 18.5713 14.832 18.511 14.2553C18.4508 13.6786 18.1818 13.1398 17.7501 12.7307C17.4748 12.4692 17.142 12.269 16.7757 12.1444C16.4093 12.0199 16.0184 11.9741 15.6311 12.0104C15.2439 12.0467 14.87 12.1642 14.5362 12.3544C14.2025 12.5446 13.9173 12.8028 13.7011 13.1104C13.4849 13.4179 13.3431 13.7672 13.286 14.1332C13.2288 14.4991 13.2578 14.8725 13.3706 15.2265C13.4835 15.5805 13.6775 15.9063 13.9388 16.1805C14.2 16.4547 14.5219 16.6704 14.8813 16.812ZM13.0217 11.7741C13.3982 11.4161 13.8452 11.1322 14.3372 10.9384C14.8292 10.7447 15.3565 10.645 15.889 10.645C16.4215 10.645 16.9488 10.7447 17.4407 10.9384C17.9327 11.1322 18.3797 11.4161 18.7563 11.7741C19.1328 12.1321 19.4315 12.557 19.6353 13.0247C19.839 13.4925 19.9439 13.9938 19.9439 14.5C19.9439 15.0062 19.839 15.5075 19.6353 15.9753C19.4315 16.443 19.1328 16.8679 18.7563 17.2259C17.9958 17.9489 16.9644 18.355 15.889 18.355C14.8135 18.355 13.7821 17.9489 13.0217 17.2259C12.2612 16.503 11.834 15.5224 11.834 14.5C11.834 13.4776 12.2612 12.497 13.0217 11.7741ZM20.8433 11.2191C20.9366 11.1354 21.0113 11.0348 21.0629 10.9232C21.1146 10.8115 21.1422 10.6912 21.1441 10.5693C21.1459 10.4473 21.122 10.3263 21.0738 10.2133C21.0256 10.1003 20.954 9.99762 20.8633 9.91139C20.7726 9.82516 20.6646 9.75711 20.5458 9.71126C20.4269 9.66542 20.2996 9.64271 20.1713 9.64449C20.043 9.64627 19.9165 9.67249 19.7991 9.72161C19.6817 9.77073 19.5758 9.84175 19.4878 9.93045C19.3166 10.103 19.2229 10.3321 19.2265 10.5693C19.2302 10.8064 19.3309 11.0329 19.5073 11.2006C19.6837 11.3683 19.9219 11.464 20.1713 11.4675C20.4208 11.4709 20.6618 11.3818 20.8433 11.2191Z" fill="#5379C5"/>
</svg>
