<svg width="24" height="18" viewBox="0 0 24 18" fill="none" xmlns="http://www.w3.org/2000/svg">
<path d="M23.4987 3.57127C23.224 2.53927 22.4107 1.72593 21.376 1.4486C19.504 0.947266 12 0.947266 12 0.947266C12 0.947266 4.496 0.947266 2.624 1.4486C1.592 1.72593 0.778666 2.5366 0.501333 3.57127C-2.22524e-07 5.44327 0 9.34727 0 9.34727C0 9.34727 -2.22524e-07 13.2513 0.501333 15.1233C0.776 16.1553 1.58933 16.9686 2.624 17.2459C4.496 17.7473 12 17.7473 12 17.7473C12 17.7473 19.504 17.7473 21.376 17.2459C22.408 16.9686 23.2213 16.1579 23.4987 15.1233C24 13.2513 24 9.34727 24 9.34727C24 9.34727 24 5.44327 23.4987 3.57127ZM9.6 12.9473V5.74727L15.8347 9.34727L9.6 12.9473Z" fill="white"/>
</svg>
