<svg width="20" height="20" viewBox="0 0 20 20" fill="none" xmlns="http://www.w3.org/2000/svg">
<path d="M9.91525 1.78666C12.5626 1.78666 12.8751 1.79599 13.9201 1.84497C14.8857 1.88929 15.4105 2.05023 15.7604 2.18551C16.2222 2.36511 16.5534 2.57969 16.9009 2.92723C17.2485 3.27476 17.4631 3.60364 17.6427 4.0678C17.7779 4.41766 17.9389 4.94246 17.9832 5.9081C18.0299 6.95304 18.0415 7.26792 18.0415 9.91292C18.0415 12.5579 18.0322 12.8728 17.9832 13.9177C17.9389 14.8834 17.7779 15.4082 17.6427 15.758C17.4631 16.2199 17.2485 16.5511 16.9009 16.8986C16.5534 17.2461 16.2245 17.4607 15.7604 17.6403C15.4105 17.7756 14.8857 17.9366 13.9201 17.9809C12.8751 18.0275 12.5626 18.0392 9.91525 18.0392C7.26792 18.0392 6.95537 18.0299 5.91043 17.9809C4.9448 17.9366 4.42 17.7756 4.07013 17.6403C3.6083 17.4607 3.27709 17.2461 2.92956 16.8986C2.58202 16.5511 2.36744 16.2222 2.18784 15.758C2.05256 15.4082 1.89162 14.8834 1.8473 13.9177C1.80065 12.8728 1.78899 12.5579 1.78899 9.91292C1.78899 7.26792 1.79832 6.95304 1.8473 5.9081C1.89162 4.94246 2.05256 4.41766 2.18784 4.0678C2.36744 3.60597 2.58202 3.27476 2.92956 2.92723C3.27709 2.57969 3.60597 2.36511 4.07013 2.18551C4.42 2.05023 4.9448 1.88929 5.91043 1.84497C6.95537 1.79832 7.27025 1.78666 9.91525 1.78666ZM9.91525 0C7.2236 0 6.8854 0.0116623 5.8288 0.0606438C4.77453 0.109625 4.0538 0.275229 3.42171 0.522469C2.77095 0.776706 2.21816 1.11491 1.66537 1.66537C1.11491 2.21583 0.774373 2.76862 0.522469 3.42171C0.277561 4.05147 0.109625 4.7722 0.0606433 5.8288C0.0116619 6.8854 0 7.2236 0 9.91525C0 12.6069 0.0116619 12.9451 0.0606433 14.0017C0.109625 15.056 0.275229 15.7767 0.522469 16.4088C0.776706 17.0596 1.11491 17.6123 1.66537 18.1651C2.21583 18.7156 2.76862 19.0561 3.42171 19.308C4.05147 19.5529 4.7722 19.7209 5.8288 19.7699C6.8854 19.8188 7.2236 19.8305 9.91525 19.8305C12.6069 19.8305 12.9451 19.8188 14.0017 19.7699C15.056 19.7209 15.7767 19.5553 16.4088 19.308C17.0596 19.0538 17.6123 18.7156 18.1651 18.1651C18.7156 17.6147 19.0561 17.0619 19.308 16.4088C19.5529 15.779 19.7209 15.0583 19.7699 14.0017C19.8188 12.9451 19.8305 12.6069 19.8305 9.91525C19.8305 7.2236 19.8188 6.8854 19.7699 5.8288C19.7209 4.77453 19.5553 4.0538 19.308 3.42171C19.0538 2.77095 18.7156 2.21816 18.1651 1.66537C17.6147 1.11491 17.0619 0.774374 16.4088 0.522469C15.779 0.277562 15.0583 0.109625 14.0017 0.0606438C12.9451 0.0116623 12.6069 0 9.91525 0Z" fill="white"/>
<path d="M9.91558 4.82355C7.10498 4.82355 4.82617 7.10235 4.82617 9.91296C4.82617 12.7236 7.10498 15.0024 9.91558 15.0024C12.7262 15.0024 15.005 12.7236 15.005 9.91296C15.005 7.10235 12.7262 4.82355 9.91558 4.82355ZM9.91558 13.218C8.0916 13.218 6.6105 11.7393 6.6105 9.91296C6.6105 8.08665 8.08927 6.60787 9.91558 6.60787C11.7419 6.60787 13.2207 8.08665 13.2207 9.91296C13.2207 11.7393 11.7419 13.218 9.91558 13.218Z" fill="white"/>
<path d="M15.2081 5.81251C15.8651 5.81251 16.3977 5.27993 16.3977 4.62296C16.3977 3.96599 15.8651 3.43341 15.2081 3.43341C14.5511 3.43341 14.0186 3.96599 14.0186 4.62296C14.0186 5.27993 14.5511 5.81251 15.2081 5.81251Z" fill="white"/>
</svg>
