<svg width="25" height="24" viewBox="0 0 25 24" fill="none" xmlns="http://www.w3.org/2000/svg">
<path d="M12.5186 1.5C10.3313 1.50258 8.2344 2.3726 6.68778 3.91922C5.14117 5.46584 4.27114 7.56276 4.26856 9.75C4.26594 11.5374 4.8498 13.2763 5.93056 14.7C5.93056 14.7 6.15556 14.9963 6.19231 15.039L12.5186 22.5L18.8478 15.0353C18.8808 14.9955 19.1066 14.7 19.1066 14.7L19.1073 14.6978C20.1875 13.2747 20.7711 11.5366 20.7686 9.75C20.766 7.56276 19.896 5.46584 18.3493 3.91922C16.8027 2.3726 14.7058 1.50258 12.5186 1.5ZM12.5186 12.75C11.9252 12.75 11.3452 12.5741 10.8519 12.2444C10.3585 11.9148 9.97399 11.4462 9.74692 10.8981C9.51986 10.3499 9.46045 9.74667 9.57621 9.16473C9.69196 8.58279 9.97769 8.04824 10.3972 7.62868C10.8168 7.20912 11.3513 6.9234 11.9333 6.80764C12.5152 6.69189 13.1184 6.7513 13.6666 6.97836C14.2148 7.20542 14.6833 7.58994 15.013 8.08329C15.3426 8.57664 15.5186 9.15666 15.5186 9.75C15.5176 10.5453 15.2012 11.3078 14.6388 11.8702C14.0764 12.4326 13.3139 12.749 12.5186 12.75Z" fill="white"/>
</svg>
