<svg width="25" height="24" viewBox="0 0 25 24" fill="none" xmlns="http://www.w3.org/2000/svg">
<path d="M20.5188 10.999H22.5188C22.5188 5.869 18.6458 2 13.5088 2V4C17.5708 4 20.5188 6.943 20.5188 10.999Z" fill="white"/>
<path d="M13.5188 8C15.6218 8 16.5188 8.897 16.5188 11H18.5188C18.5188 7.775 16.7438 6 13.5188 6V8ZM16.9408 13.443C16.7487 13.2684 16.4962 13.1752 16.2366 13.1832C15.9771 13.1913 15.7308 13.2998 15.5498 13.486L13.1568 15.947C12.5808 15.837 11.4228 15.476 10.2308 14.287C9.03884 13.094 8.67784 11.933 8.57084 11.361L11.0298 8.967C11.2162 8.78613 11.325 8.53982 11.333 8.28021C11.341 8.02059 11.2477 7.76804 11.0728 7.576L7.37784 3.513C7.20288 3.32036 6.95972 3.2035 6.69999 3.18726C6.44026 3.17101 6.18443 3.25666 5.98684 3.426L3.81684 5.287C3.64395 5.46051 3.54076 5.69145 3.52684 5.936C3.51184 6.186 3.22584 12.108 7.81784 16.702C11.8238 20.707 16.8418 21 18.2238 21C18.4258 21 18.5498 20.994 18.5828 20.992C18.8274 20.9783 19.0582 20.8747 19.2308 20.701L21.0908 18.53C21.2603 18.3325 21.3461 18.0768 21.3301 17.817C21.314 17.5573 21.1973 17.3141 21.0048 17.139L16.9408 13.443Z" fill="white"/>
</svg>
