<svg width="31" height="30" viewBox="0 0 31 30" fill="none" xmlns="http://www.w3.org/2000/svg">
<circle cx="15.5186" cy="15" r="15" fill="white"/>
<path d="M23.778 10.4255C23.1977 10.6598 22.5663 10.8284 21.9159 10.8941C22.5912 10.5185 23.0968 9.92521 23.338 9.22545C22.7044 9.57833 22.0103 9.82578 21.2864 9.95681C20.9839 9.65402 20.618 9.4128 20.2115 9.24819C19.805 9.08357 19.3667 8.99909 18.9238 9.00001C17.1319 9.00001 15.6908 10.3598 15.6908 12.0284C15.6908 12.2627 15.7212 12.497 15.7705 12.7225C13.0874 12.5911 10.6944 11.3911 9.10357 9.55385C8.81369 10.0174 8.66179 10.5451 8.66366 11.0823C8.66366 12.1331 9.2344 13.0598 10.1047 13.6047C9.59184 13.5858 9.09094 13.4538 8.6428 13.2195V13.2568C8.6428 14.7284 9.75395 15.9479 11.2349 16.2284C10.9568 16.296 10.6708 16.3306 10.3835 16.3314C10.173 16.3314 9.9739 16.3118 9.77291 16.2852C10.1825 17.4852 11.3752 18.3568 12.7954 18.3852C11.6842 19.2 10.2925 19.6793 8.78122 19.6793C8.51007 19.6793 8.25977 19.6704 8 19.642C9.4335 20.503 11.1344 21 12.966 21C18.9124 21 22.1662 16.3882 22.1662 12.3852C22.1662 12.2539 22.1662 12.1225 22.1567 11.9911C22.7863 11.5598 23.338 11.0254 23.778 10.4255Z" fill="#5379C5"/>
</svg>
