<svg width="25" height="26" viewBox="0 0 25 26" fill="none" xmlns="http://www.w3.org/2000/svg">
<path fill-rule="evenodd" clip-rule="evenodd" d="M21.3547 4.16693C19.0058 1.81519 15.8779 0.518677 12.5494 0.518677C5.68895 0.518677 0.104651 6.10007 0.101744 12.9605C0.101744 15.1524 0.674419 17.2948 1.76454 19.1815L0 25.6291L6.59884 23.8995C8.4157 24.8908 10.4651 25.414 12.5465 25.414H12.5523C19.4128 25.414 24.9971 19.8326 25 12.9693C25 9.64368 23.7064 6.51868 21.3576 4.16693H21.3547ZM12.5494 23.3123H12.5465C10.689 23.3123 8.86919 22.8123 7.28198 21.8704L6.90407 21.6466L2.98837 22.6727L4.03488 18.8559L3.78779 18.4634C2.75291 16.8181 2.20639 14.914 2.20639 12.9605C2.20639 7.25705 6.84884 2.61751 12.5581 2.61751C15.3227 2.61751 17.9186 3.696 19.8721 5.64949C21.8256 7.60589 22.9012 10.2018 22.8983 12.9663C22.8983 18.6698 18.2558 23.3094 12.5523 23.3094L12.5494 23.3123ZM18.2238 15.5652C17.9128 15.4082 16.3837 14.6582 16.0988 14.5536C15.814 14.4489 15.6076 14.3966 15.3983 14.7105C15.1919 15.0216 14.5959 15.7222 14.4128 15.9286C14.2326 16.135 14.0494 16.1611 13.7384 16.007C13.4273 15.8501 12.4244 15.5245 11.2384 14.4634C10.314 13.6379 9.68895 12.6204 9.50872 12.3094C9.32849 11.9983 9.48837 11.8297 9.64535 11.6757C9.78488 11.5361 9.95639 11.3123 10.1105 11.132C10.2645 10.9518 10.3169 10.821 10.4215 10.6146C10.5262 10.4082 10.4738 10.2251 10.3953 10.071C10.3169 9.91402 9.69477 8.38495 9.43605 7.76286C9.18314 7.1553 8.92733 7.23961 8.73547 7.22798C8.55523 7.21926 8.34593 7.21635 8.13953 7.21635C7.93314 7.21635 7.59593 7.29484 7.31105 7.60589C7.02616 7.91693 6.22384 8.66984 6.22384 10.1989C6.22384 11.728 7.33721 13.2076 7.49419 13.414C7.64826 13.6204 9.68605 16.7629 12.8081 18.1088C13.5494 18.4286 14.1308 18.6204 14.5814 18.7629C15.3256 18.9983 16.0058 18.9663 16.5407 18.885C17.1395 18.7948 18.3808 18.132 18.6395 17.4053C18.8983 16.6786 18.8983 16.0565 18.8198 15.9257C18.7413 15.7948 18.5349 15.7193 18.2238 15.5623V15.5652Z" fill="#030C1E"/>
</svg>
