<svg width="212" height="75" viewBox="0 0 212 75" fill="none" xmlns="http://www.w3.org/2000/svg">
<path d="M35.3425 35.5562C38.4265 35.5562 41.5137 35.5562 44.5976 35.5562C44.708 35.5562 44.8184 35.5625 44.9287 35.5562C45.2062 35.5373 45.3923 35.5846 45.386 35.9378C45.3797 36.4108 45.3734 36.4328 44.9697 36.5085C44.1278 36.6662 43.2512 36.6283 42.4439 36.9531C41.4348 37.3568 40.7474 38.0347 40.6339 39.1668C40.5645 39.8668 40.5046 40.57 40.5046 41.2732C40.5109 43.4081 40.5046 45.5429 40.5046 47.6809C40.5046 48.2296 40.4794 48.2926 39.9937 48.4566C38.5621 48.9391 37.1273 49.4121 35.661 49.7905C34.3398 50.131 33.0122 50.4211 31.672 50.6482C30.7891 50.7995 29.8904 50.9068 28.9948 51.0203C27.5033 51.2095 26.0086 51.2473 24.5107 51.2789C22.6156 51.3198 20.7267 51.2946 18.8379 51.0581C17.813 50.9288 16.7945 50.7743 15.7886 50.541C14.029 50.1342 12.3482 49.5067 10.7337 48.712C8.45069 47.5894 6.36947 46.1767 4.58152 44.3509C2.67374 42.399 1.29572 40.1506 0.605133 37.4892C0.16051 35.7454 0.0028417 33.9921 0.100596 32.1979C0.154203 31.2046 0.239344 30.2144 0.460079 29.2589C0.822715 27.676 1.39032 26.156 2.21019 24.7402C3.56614 22.4067 5.36355 20.4737 7.50153 18.8434C9.59851 17.2447 11.9131 16.059 14.4232 15.2675C16.2931 14.6778 18.2135 14.3404 20.1686 14.1544C22.439 13.9368 24.7063 14.0377 26.9672 14.208C28.3452 14.312 29.698 14.6305 31.0224 15.0468C32.1923 15.4157 33.3685 15.7752 34.5447 16.1315C34.9862 16.264 35.4434 16.3491 35.8755 16.491C36.9854 16.8505 37.799 16.3996 38.518 15.6333C38.8491 15.277 39.0572 14.8355 39.2779 14.4035C39.4419 14.0787 40.0316 13.8989 40.3469 14.0661C40.4541 14.1228 40.4983 14.2237 40.5046 14.3373C40.514 14.4918 40.5109 14.6463 40.5109 14.7976C40.5109 18.4745 40.5109 22.1513 40.5109 25.8281C40.5109 25.8722 40.5172 25.9164 40.5109 25.9605C40.473 26.197 40.6276 26.5187 40.2334 26.6007C39.7415 26.7016 39.4514 26.5817 39.2716 26.175C38.6504 24.7906 37.9409 23.4599 37.0201 22.2459C35.3362 20.0228 33.1793 18.4114 30.622 17.3172C28.2538 16.3049 25.7689 15.9139 23.2116 16.0937C19.9131 16.3207 17.0152 17.4748 14.7984 20.0322C13.5118 21.5175 12.6667 23.2297 12.1464 25.1217C11.9068 25.9889 11.6892 26.8592 11.5031 27.7359C11.4022 28.2089 11.3108 28.685 11.2666 29.1675C11.1216 30.8104 10.9261 32.447 11.0617 34.1057C11.1594 35.3323 11.1847 36.5653 11.4022 37.7825C11.8185 40.1254 12.3892 42.4148 13.701 44.4455C14.8993 46.2965 16.5927 47.539 18.6266 48.3494C20.9695 49.2828 23.4165 49.4846 25.8951 49.2891C27.4244 49.1693 28.9349 48.8255 30.4044 48.3588C30.6156 48.2926 30.6913 48.1854 30.6882 47.9867C30.6882 47.9647 30.6882 47.9426 30.6882 47.9205C30.6566 45.1046 30.7702 42.2855 30.6156 39.4695C30.5967 39.1006 30.5179 38.7253 30.4201 38.369C30.3318 38.0474 30.13 37.773 29.8588 37.5744C28.9696 36.9216 27.97 36.5558 26.8663 36.4959C26.4721 36.4738 26.0717 36.477 25.6775 36.4864C25.3212 36.4959 25.3117 36.2815 25.3054 36.0134C25.2991 35.7202 25.3653 35.5404 25.6996 35.5625C25.8541 35.572 26.0086 35.5625 26.1631 35.5625C29.225 35.5625 32.2901 35.5625 35.352 35.5625L35.3425 35.5562Z" fill="#153B85"/>
<path d="M142.459 42.2066C141.422 41.8503 140.409 41.4467 139.441 40.9264C137.603 39.9331 136.127 38.5897 135.44 36.5716C134.614 34.1498 134.891 31.8573 136.452 29.7761C137.858 27.9061 139.747 26.7236 141.936 25.97C144.187 25.1943 146.511 25.106 148.848 25.2826C150.093 25.3772 151.323 25.6704 152.512 26.0677C152.859 26.1844 153.193 26.2223 153.546 26.2223C156.299 26.2223 159.055 26.2223 161.808 26.2223C161.941 26.2223 162.073 26.2254 162.205 26.2223C162.451 26.2096 162.568 26.3074 162.565 26.5691C162.555 27.2503 162.568 27.9345 162.559 28.6157C162.552 29.0792 162.54 29.0887 162.063 29.0918C160.764 29.0981 159.462 29.0887 158.163 29.0981C157.911 29.0981 157.545 28.9625 157.431 29.2022C157.299 29.4765 157.677 29.6184 157.854 29.7792C158.73 30.5865 159.374 31.5294 159.695 32.6866C159.856 33.2637 159.907 33.8565 159.907 34.4462C159.907 36.8428 158.819 38.6938 156.974 40.1412C155.627 41.1976 154.082 41.8535 152.468 42.3832C150.226 43.1211 147.936 43.1873 145.619 42.9508C144.723 42.8594 143.847 42.9382 143.058 43.386C142.267 43.8338 141.674 44.4676 141.604 45.4451C141.541 46.2997 141.996 46.8673 142.68 47.2646C143.017 47.4601 143.396 47.5768 143.799 47.6304C145.095 47.7975 146.398 47.7628 147.694 47.7124C150.188 47.6146 152.676 47.7029 155.154 47.93C156.879 48.0876 158.604 48.3841 160.093 49.3868C161.095 50.0648 161.909 50.8941 162.322 52.0735C162.915 53.7732 162.764 55.4034 161.896 56.958C160.925 58.7018 159.418 59.8371 157.589 60.5529C156.343 61.0416 155.041 61.3349 153.723 61.5966C150.708 62.1926 147.672 62.1548 144.641 61.9845C142.519 61.8647 140.403 61.5115 138.388 60.7799C137.347 60.4015 136.405 59.8591 135.67 58.9857C134.554 57.6549 134.932 55.9616 136.196 54.9998C137.013 54.3786 137.969 54.0538 138.943 53.7732C139.047 53.7416 139.164 53.7416 139.265 53.7101C139.41 53.6628 139.577 53.6155 139.574 53.42C139.574 53.2528 139.41 53.2402 139.296 53.1835C138.366 52.7136 137.499 52.1618 136.859 51.3167C135.85 49.9828 135.733 48.5512 136.405 47.0407C136.89 45.9465 137.71 45.1172 138.644 44.4108C139.627 43.6666 140.725 43.1148 141.879 42.6796C142.021 42.626 142.156 42.5503 142.292 42.4778C142.368 42.44 142.453 42.4053 142.456 42.2161L142.459 42.2066ZM151.84 34.3895C151.818 32.2326 151.714 31.1163 151.273 29.6342C150.838 28.1773 149.847 26.8908 147.914 26.8056C146.161 26.7299 144.821 27.9219 144.304 29.0824C143.979 29.8108 143.85 30.5802 143.742 31.3685C143.437 33.6074 143.418 35.8368 143.837 38.0568C143.96 38.7127 144.165 39.3781 144.6 39.9236C145.893 41.5381 147.06 41.8156 148.712 41.3836C150.283 40.9737 151.156 39.7596 151.516 38.1956C151.802 36.9437 151.821 35.6697 151.843 34.3926L151.84 34.3895ZM148.432 54.1768C146.845 54.1326 145.259 54.1074 143.676 54.1862C142.532 54.243 141.456 54.5173 140.636 55.4003C140.044 56.0373 139.921 56.9423 140.337 57.7054C140.908 58.7523 141.857 59.3168 142.945 59.6731C144.231 60.0956 145.571 60.1745 146.912 60.2691C148.476 60.3794 150.033 60.2975 151.591 60.1587C153.203 60.0136 154.754 59.6699 156.186 58.8974C156.753 58.5915 157.233 58.1689 157.507 57.5635C157.857 56.7909 157.797 55.8354 157.009 55.2678C156.403 54.8358 155.735 54.5583 155.019 54.4511C153.956 54.2903 152.884 54.1547 151.799 54.1736C150.677 54.1925 149.554 54.1768 148.432 54.1768Z" fill="#153B85"/>
<path d="M65.2994 57.8473C43.8124 57.8473 22.3254 57.8473 0.838457 57.8473C0.72809 57.8473 0.617722 57.8505 0.507355 57.8473C0.0375041 57.8284 0.0091239 57.8095 0.00597054 57.3648C-0.00348954 56.5513 -0.000336177 55.7346 0.00597054 54.921C0.0091239 54.4795 0.0532709 54.4448 0.497895 54.4228C0.630336 54.4164 0.762777 54.4228 0.895218 54.4228C43.8692 54.4228 86.8432 54.4228 129.817 54.4228C130.769 54.4228 130.64 54.4543 130.64 55.2458C130.64 55.9711 130.631 56.6995 130.646 57.4248C130.653 57.7401 130.533 57.8725 130.224 57.8505C130.091 57.841 129.959 57.8505 129.827 57.8505C108.318 57.8505 86.8085 57.8505 65.2994 57.8505V57.8473Z" fill="#B32924"/>
<path d="M113.757 0.282776C114.281 0.982822 114.937 1.56304 115.545 2.18425C119.008 5.72232 122.457 9.26985 125.967 12.7575C128.871 15.6428 131.7 18.6006 134.595 21.4923C134.711 21.6089 134.882 21.6972 134.897 21.8927C134.774 22.0504 134.61 21.9937 134.469 21.9937C131.76 21.9968 129.051 21.9873 126.339 22.0031C125.951 22.0031 125.686 21.8675 125.425 21.5995C122.826 18.9412 120.247 16.2672 117.611 13.6467C114.022 10.0803 110.481 6.47282 106.921 2.88114C106.24 2.19371 105.571 1.49367 104.887 0.809387C104.729 0.651719 104.619 0.468824 104.505 0.282776H113.764L113.757 0.282776Z" fill="#B32924"/>
<path d="M98.5488 0.282735C98.5141 0.468783 98.6718 0.553924 98.7695 0.651678C102.677 4.6123 106.558 8.59499 110.506 12.5146C113.518 15.504 116.463 18.5596 119.452 21.5711C119.541 21.6594 119.676 21.7193 119.664 21.8801C119.585 22.0346 119.44 21.9905 119.32 21.9905C116.567 21.9905 113.814 21.9842 111.061 21.9999C110.661 21.9999 110.415 21.8233 110.159 21.5616C107.561 18.9033 104.982 16.2198 102.342 13.6057C98.9839 10.2789 95.6824 6.89848 92.3556 3.54331C91.4727 2.65091 90.6055 1.74589 89.7225 0.853493C89.5491 0.680058 89.4135 0.487703 89.2905 0.276428H98.5488V0.282735Z" fill="#B32924"/>
<path d="M186.496 0.282776C186.461 0.421524 186.587 0.468824 186.66 0.538198C190.545 4.48936 194.408 8.46259 198.327 12.3759C201.329 15.3716 204.297 18.4051 207.292 21.4071C207.44 21.5553 207.645 21.6657 207.696 21.9054C207.545 22.0536 207.358 21.9937 207.194 21.9937C204.508 21.9968 201.821 21.9905 199.134 22.0031C198.75 22.0031 198.479 21.8801 198.214 21.6089C195.562 18.9128 192.897 16.2293 190.242 13.5426C186.177 9.42752 182.113 5.31238 178.045 1.19725C177.758 0.907141 177.417 0.667486 177.241 0.282776H186.499L186.496 0.282776Z" fill="#B32924"/>
<path d="M131.082 0.282776C131.227 0.610725 131.529 0.799927 131.769 1.04589C135.559 4.90875 139.325 8.8 143.162 12.6156C146.06 15.5009 148.917 18.4272 151.802 21.322C151.966 21.486 152.187 21.6121 152.247 21.8518C152.162 22.0315 152.014 21.9905 151.891 21.9937C149.138 21.9937 146.382 21.9873 143.629 22.0063C143.247 22.0063 143.02 21.8265 142.784 21.5869C140.125 18.8907 137.492 16.1726 134.799 13.5143C130.574 9.33922 126.484 5.02543 122.274 0.837767C122.12 0.683252 121.943 0.541351 121.959 0.289083H131.085L131.082 0.282776Z" fill="#B32924"/>
<path d="M84.2667 0.282755C85.7992 1.84682 87.3318 3.41404 88.8675 4.97495C91.4122 7.56701 93.9254 10.1906 96.5112 12.7417C99.3902 15.586 102.209 18.4839 105.054 21.363C105.202 21.5112 105.394 21.6341 105.454 21.8391C105.341 22.0472 105.167 21.9905 105.025 21.9905C102.317 21.9936 99.6046 21.9842 96.8959 21.9999C96.4986 21.9999 96.2432 21.8454 95.9846 21.5805C93.4272 18.9727 90.8919 16.3397 88.2904 13.776C83.9829 9.5284 79.811 5.14839 75.5382 0.86928C75.3648 0.695845 75.1913 0.535024 75.144 0.279602C78.187 0.279602 81.2269 0.279602 84.2699 0.279602L84.2667 0.282755Z" fill="#B32924"/>
<path d="M149.466 0.282776C149.387 0.591805 149.684 0.676946 149.829 0.825154C152.518 3.57488 155.218 6.31831 157.92 9.05542C161.058 12.234 164.202 15.4063 167.349 18.5754C167.645 18.875 167.891 19.1872 168.042 19.5939C168.342 20.3981 168.919 21.0003 169.581 21.5301C169.714 21.6373 169.868 21.7162 169.956 21.8644C169.833 22.0504 169.67 21.9937 169.528 21.9937C167.018 21.9937 164.504 21.9873 161.994 22.0031C161.606 22.0031 161.341 21.8738 161.077 21.6058C158.475 18.9538 155.864 16.3113 153.25 13.6719C149.009 9.38968 144.764 5.11688 140.523 0.834614C140.359 0.667486 140.23 0.468824 140.082 0.282776C143.213 0.282776 146.341 0.282776 149.472 0.282776L149.466 0.282776Z" fill="#B32924"/>
<path d="M167.979 0.282776C167.929 0.386837 168.004 0.434137 168.068 0.494051C172.113 4.60288 176.128 8.74008 180.214 12.8079C183.163 15.7437 186.057 18.7299 189.003 21.6657C189.063 21.7256 189.11 21.7981 189.154 21.8549C189.081 22.0536 188.933 22.0063 188.81 22.0063C186.032 22.0063 183.257 22.0031 180.479 22.0126C180.145 22.0126 179.893 21.9274 179.662 21.6815C179.152 21.1359 178.625 20.603 178.089 20.0827C177.868 19.8683 177.837 19.6665 177.931 19.3764C178.417 17.8564 178.152 16.4658 177.096 15.2707C175.941 13.962 174.447 13.4449 172.728 13.5111C172.574 13.5174 172.419 13.5206 172.268 13.5521C171.915 13.6183 171.653 13.5174 171.385 13.262C169.635 11.5907 167.967 9.83745 166.261 8.12203C164.195 6.04712 162.155 3.94698 160.099 1.85946C159.806 1.56304 159.506 1.26978 159.2 0.985975C158.983 0.787313 158.828 0.553965 158.724 0.285929H167.982L167.979 0.282776Z" fill="#B32924"/>
<path d="M50.0181 21.9147C50.0496 21.7003 50.182 21.6183 50.2893 21.5111C52.9475 18.8213 55.6058 16.1315 58.2641 13.4417C62.3603 9.29814 66.4565 5.15147 70.559 1.01111C71.319 0.241694 71.1487 0.241694 71.9024 1.00481C75.7179 4.87398 79.4957 8.78099 83.3396 12.6186C86.2502 15.5229 89.1386 18.4429 92.0145 21.3818C92.1532 21.5237 92.4623 21.6372 92.3456 21.8832C92.2384 22.1071 91.9483 21.9904 91.7402 21.9904C78.0357 21.9936 64.3312 21.9936 50.6267 21.9904C50.4343 21.9904 50.2325 22.0377 50.0181 21.9116V21.9147Z" fill="#B32924"/>
<path d="M207.509 39.6997C207.509 41.5917 207.509 43.4869 207.509 45.3789C207.509 45.6659 207.528 45.9528 207.554 46.2366C207.648 47.2741 208.616 47.7786 209.528 47.2615C209.736 47.1448 209.915 46.9745 210.102 46.82C210.237 46.7065 210.373 46.5425 210.559 46.6434C210.786 46.7664 211.029 46.8925 211.177 47.1196C211.227 47.1984 211.164 47.2772 211.104 47.3498C209.878 48.8287 208.5 50.09 206.548 50.5284C204.839 50.9131 203.148 50.9446 201.496 50.2666C200.348 49.7968 199.601 48.958 199.229 47.7755C198.945 46.8673 198.945 46.8768 198.169 47.4349C196.611 48.5512 194.962 49.5035 193.159 50.1657C191.601 50.7365 189.977 50.9478 188.35 50.6955C186.754 50.4464 185.417 49.6549 184.566 48.2169C183.929 47.1416 183.834 45.9718 184.121 44.7766C184.585 42.8436 185.874 41.5161 187.457 40.4471C189.188 39.2803 191.077 38.3974 192.966 37.5176C194.795 36.6662 196.668 35.9157 198.532 35.1557C198.913 35.0012 199.021 34.8089 199.017 34.4305C199.005 33.1754 199.027 31.9204 198.932 30.6685C198.898 30.2081 198.85 29.7446 198.743 29.2968C198.592 28.663 198.138 28.2278 197.617 27.8872C196.517 27.162 195.293 26.9854 194.013 27.2093C193.304 27.3322 192.581 27.4647 191.954 27.862C191.806 27.9566 191.648 28.0386 191.512 28.149C190.973 28.5967 190.891 29.1517 191.314 29.7162C191.617 30.1198 191.973 30.4825 192.294 30.8735C192.673 31.337 192.995 31.8289 193.023 32.4565C193.077 33.6137 192.503 34.4336 191.566 35.0075C190.554 35.6256 189.428 35.799 188.261 35.6193C187.479 35.4994 186.735 35.2724 186.06 34.8089C184.547 33.7683 184.219 32.4785 184.846 30.8577C185.382 29.4734 186.398 28.4801 187.621 27.6823C188.901 26.8498 190.311 26.3389 191.78 25.9322C194.256 25.2479 196.775 25.0808 199.311 25.2668C201.783 25.4497 204.028 26.279 205.803 28.108C206.686 29.0193 207.216 30.0694 207.314 31.3749C207.522 34.1467 207.453 36.9185 207.503 39.6934L207.509 39.6997ZM198.917 36.7829C198.708 36.7797 198.601 36.9122 198.472 36.9815C196.719 37.9118 195.06 38.9745 193.713 40.4597C192.887 41.371 192.26 42.3832 192.301 43.6856C192.342 45.051 193.531 46.2745 194.887 46.3911C196.261 46.511 197.406 45.9875 198.522 45.278C198.91 45.0321 199.03 44.7546 199.027 44.3131C199.008 42.0269 199.021 39.7376 199.014 37.4514C199.014 37.2401 199.077 37.0131 198.917 36.7829Z" fill="#153B85"/>
<path d="M89.2773 25.2195C92.2572 25.2006 95.0006 25.9889 97.4855 27.6413C99.3113 28.8585 100.607 30.514 101.487 32.5132C102.455 34.7111 102.827 37.0131 102.648 39.3939C102.471 41.7273 101.834 43.9284 100.456 45.8582C99.0054 47.889 97.1544 49.4026 94.783 50.2824C92.5505 51.1117 90.2485 51.3482 87.9087 51.1622C85.8843 51.0014 83.926 50.541 82.1475 49.4909C79.9118 48.1728 78.3351 46.2619 77.2314 43.9568C76.3075 42.0269 75.8976 39.9583 76.0016 37.8235C76.2098 33.598 77.9346 30.1198 81.3245 27.5341C82.8129 26.3989 84.5378 25.7745 86.3857 25.4434C87.3506 25.27 88.3092 25.2258 89.2804 25.2195H89.2773ZM93.6794 37.5208C93.7677 35.9346 93.7456 34.3516 93.6447 32.7718C93.5753 31.6366 93.3956 30.5108 92.9478 29.4387C91.7716 26.6164 88.6844 26.5376 86.9722 27.8431C86.0955 28.5116 85.7487 29.486 85.5122 30.4919C85.2094 31.7785 85.077 33.0966 85.0329 34.4116C84.9509 36.8964 84.8752 39.3812 84.9509 41.8692C84.9824 42.9067 85.1117 43.9284 85.2252 44.9532C85.3387 45.9686 85.6162 46.9115 86.1807 47.7786C87.6218 49.9954 91.1441 49.9072 92.4685 47.8133C93.0676 46.8642 93.2789 45.8204 93.3924 44.764C93.5343 43.4554 93.7046 42.1436 93.6794 40.8192C93.6604 39.7187 93.6762 38.6181 93.6762 37.5208H93.6794Z" fill="#153B85"/>
<path d="M64.4542 37.3032C62.0955 37.3032 59.74 37.3032 57.3813 37.3032C56.6875 37.3032 56.6371 37.3252 56.697 38.0001C56.9619 40.9863 57.9678 43.6383 60.2981 45.6564C61.6225 46.8042 63.1834 47.2646 64.9241 47.2331C66.9296 47.1953 68.4969 46.2871 69.8244 44.8712C70.2154 44.455 70.597 44.023 70.9376 43.5657C71.1614 43.2693 71.3633 43.2346 71.6471 43.4396C71.7164 43.4901 71.7953 43.5311 71.8773 43.5689C72.1611 43.6982 72.1989 43.8432 72.0192 44.127C71.4768 44.9784 70.9281 45.8235 70.3037 46.6182C69.1464 48.094 67.7716 49.2891 66.0467 50.0711C65.0818 50.5063 64.0853 50.809 63.0415 50.9951C61.8622 51.2032 60.6797 51.2694 59.4877 51.1779C56.7474 50.9698 54.2342 50.172 52.1908 48.2453C50.7245 46.8642 49.7186 45.1834 49.1258 43.2567C48.5582 41.4088 48.3217 39.5168 48.4636 37.5901C48.637 35.2472 49.1857 33.0083 50.4849 31.0028C51.5696 29.3283 53.0044 28.0228 54.6946 26.9917C57.1921 25.4718 59.9323 24.9515 62.8019 25.2857C65.2394 25.5695 67.3049 26.6953 69.0172 28.4612C70.4456 29.9369 71.297 31.706 71.7448 33.6989C71.9719 34.708 72.1863 35.7139 72.1989 36.7513C72.2052 37.2906 72.2021 37.2969 71.6502 37.2969C69.2474 37.2969 66.8476 37.2969 64.4448 37.2969L64.4542 37.3032ZM60.604 35.5688C61.8149 35.5688 63.0289 35.5751 64.2398 35.5688C64.7633 35.5657 64.8169 35.5247 64.7885 34.9949C64.7034 33.4813 64.7444 31.9614 64.4227 30.4635C64.2114 29.4702 63.8078 28.5936 63.133 27.8399C62.1082 26.6921 60.4369 26.5849 59.2323 27.348C58.1759 28.0165 57.6367 29.0729 57.1952 30.1797C56.5772 31.7375 56.4573 33.3804 56.4605 35.0359C56.4605 35.5594 56.4699 35.5657 57.0344 35.5688C58.2232 35.572 59.4152 35.5688 60.604 35.5688Z" fill="#153B85"/>
<path d="M114.883 50.4842C112.524 50.4842 110.169 50.4842 107.81 50.4842C107.236 50.4842 107.201 50.4337 107.223 49.904C107.233 49.6517 107.337 49.5634 107.577 49.5413C108.037 49.494 108.482 49.3679 108.914 49.2071C109.677 48.9233 110.039 48.3273 110.166 47.5673C110.336 46.5236 110.421 45.4767 110.418 44.414C110.405 40.0781 110.418 35.7422 110.408 31.4064C110.408 30.5045 110.443 29.5995 110.203 28.7166C109.973 27.8651 109.459 27.2944 108.573 27.102C108.229 27.0295 107.886 26.9444 107.539 26.8939C107.327 26.8624 107.239 26.7835 107.223 26.566C107.182 26.0299 107.233 25.9511 107.775 25.9511C111.257 25.9511 114.738 25.9511 118.216 25.9511C118.812 25.9511 118.812 25.9605 118.812 26.5943C118.812 27.9156 118.812 29.2337 118.812 30.555C118.812 30.7095 118.803 30.864 118.818 31.0154C118.837 31.214 118.979 31.2109 119.099 31.1352C119.307 31.0059 119.414 30.7757 119.566 30.5896C120.581 29.3157 121.641 28.0827 122.93 27.0642C124.072 26.1623 125.362 25.5474 126.777 25.2983C127.95 25.0933 129.161 25.0965 130.227 25.7902C131.243 26.4493 131.643 27.4426 131.63 28.6093C131.621 29.5427 131.485 30.4477 130.814 31.1825C130.158 31.9014 129.373 32.283 128.382 32.3082C127.254 32.3366 126.267 32.0055 125.368 31.3496C125.103 31.1573 124.825 30.9775 124.554 30.7883C123.611 30.1324 122.788 30.1387 121.833 30.782C120.764 31.5041 120.143 32.5384 119.708 33.7146C118.96 35.7265 118.831 37.8266 118.821 39.9394C118.809 42.2949 118.79 44.6473 118.919 46.9997C118.998 48.4282 119.585 49.1251 120.978 49.3679C121.369 49.4373 121.76 49.4877 122.155 49.5413C122.593 49.6013 122.609 49.6422 122.609 50.0806C122.609 50.481 122.366 50.481 122.085 50.481C119.969 50.481 117.857 50.481 115.741 50.481C115.454 50.481 115.167 50.481 114.883 50.481V50.4842Z" fill="#153B85"/>
<path d="M177.033 36.4833C177.033 39.6745 177.039 42.8657 177.026 46.0569C177.026 46.7065 177.143 47.3309 177.316 47.9426C177.531 48.7057 178.105 49.1472 178.862 49.3112C179.29 49.4058 179.71 49.5603 180.158 49.5508C180.546 49.5445 180.47 49.8252 180.476 50.0617C180.482 50.3076 180.451 50.5063 180.129 50.4842C179.997 50.4748 179.864 50.4842 179.732 50.4842C175.128 50.4842 170.521 50.4842 165.917 50.4842C165.807 50.4842 165.696 50.4874 165.586 50.4842C165.135 50.4685 164.936 50.1657 165.097 49.7463C165.167 49.5603 165.327 49.5666 165.479 49.554C166.075 49.4972 166.646 49.3585 167.188 49.0968C167.771 48.813 168.162 48.3999 168.304 47.7313C168.411 47.2331 168.5 46.7412 168.5 46.2335C168.5 40.9075 168.493 35.5815 168.506 30.2554C168.506 29.6279 168.38 29.0288 168.216 28.4391C168.024 27.7485 167.497 27.3386 166.832 27.1557C166.39 27.0359 165.952 26.853 165.479 26.8876C165.081 26.916 165.097 26.6448 165.078 26.3642C165.056 26.0268 165.227 25.9385 165.513 25.9511C165.646 25.9574 165.778 25.9511 165.911 25.9511C169.348 25.9511 172.785 25.9511 176.222 25.9511C176.377 25.9511 176.531 25.9574 176.686 25.9511C176.938 25.9448 177.045 26.0709 177.026 26.3169C177.02 26.4273 177.026 26.5376 177.026 26.648C177.026 29.9275 177.026 33.207 177.026 36.4865C177.03 36.4865 177.033 36.4865 177.036 36.4865L177.033 36.4833Z" fill="#153B85"/>
<path d="M189.009 57.8473C181.608 57.8473 174.204 57.8473 166.803 57.8473C166.692 57.8473 166.582 57.841 166.472 57.8473C166.172 57.8757 166.033 57.7716 166.04 57.4405C166.059 56.5607 166.052 55.6809 166.04 54.8012C166.037 54.511 166.156 54.4007 166.434 54.4196C166.566 54.4291 166.699 54.4196 166.831 54.4196C181.658 54.4196 196.485 54.4196 211.309 54.4196C211.42 54.4196 211.53 54.4259 211.64 54.4196C211.896 54.4007 212 54.5174 212 54.7665C211.997 55.6904 211.997 56.6143 212 57.5383C212 57.759 211.899 57.8599 211.678 57.8505C211.546 57.8441 211.413 57.8505 211.281 57.8505C203.858 57.8505 196.432 57.8505 189.009 57.8505V57.8473Z" fill="#B32924"/>
<path d="M173.387 22.0378C171.593 22.1513 170.196 21.6341 169.136 20.3665C167.995 19.0011 168.001 17.1721 169.13 15.7657C171.013 13.4259 174.806 13.6151 176.588 15.4977C178.022 17.0113 177.985 19.6885 176.099 21.0508C175.238 21.672 174.308 22.063 173.387 22.0378Z" fill="#153B85"/>
<path d="M59.9986 74.2227C59.3206 74.2227 58.6458 74.229 57.9678 74.2195C57.6935 74.2164 57.5705 73.9988 57.4317 73.7907C56.7412 72.7501 56.0316 71.7189 55.3095 70.6972C54.7892 69.9593 54.0797 69.8521 53.2819 69.8994C53.0517 69.912 52.9981 70.0697 52.9981 70.2652C52.9981 70.6625 52.9981 71.0567 52.9981 71.454C52.9981 72.2235 52.9887 72.996 53.0044 73.7654C53.0107 74.106 52.8751 74.2448 52.5346 74.229C52.1373 74.2132 51.7431 74.2227 51.3458 74.229C51.0525 74.229 50.8822 74.1155 50.898 73.8033C50.9043 73.6929 50.898 73.5826 50.898 73.4722C50.898 70.5017 50.898 67.5313 50.898 64.5608C50.898 64.5387 50.898 64.5166 50.898 64.4946C50.9011 63.8481 50.9011 63.8418 51.5507 63.8418C52.8278 63.8418 54.1049 63.8418 55.3821 63.8418C56.1326 63.8418 56.8767 63.8765 57.5989 64.1004C58.2169 64.2896 58.6679 64.6901 58.9674 65.2608C59.6328 66.5222 59.4341 68.0011 58.4345 68.8777C58.1192 69.1552 57.7597 69.3634 57.3371 69.4485C57.1858 69.48 57.0218 69.5273 56.965 69.6882C56.8988 69.8774 57.0659 69.9499 57.1889 70.0445C57.7565 70.4796 58.1791 71.0346 58.5543 71.6369C59.062 72.4505 59.576 73.2641 60.09 74.0745C60.0585 74.1249 60.027 74.1754 59.9986 74.229V74.2227ZM54.6883 65.5446C54.2405 65.5446 53.8464 65.5541 53.4522 65.5446C53.1495 65.5352 53.0013 65.6582 53.0013 65.964C53.0013 66.601 53.0076 67.2348 52.995 67.8718C52.9887 68.2029 53.1621 68.2786 53.449 68.2723C54.1743 68.2565 54.8964 68.2597 55.6217 68.2408C55.8834 68.2345 56.1452 68.1872 56.3943 68.0957C56.9209 67.9034 57.2457 67.4493 57.2425 66.8943C57.2425 66.3046 56.8988 65.8631 56.3312 65.6802C55.7731 65.5005 55.196 65.6046 54.6852 65.5446H54.6883Z" fill="#153B85"/>
<path d="M108.267 67.7709C108.122 68.0232 108.182 68.2439 108.182 68.4552C108.179 70.1297 108.182 71.8009 108.182 73.4754C108.182 73.6299 108.182 73.7844 108.172 73.9358C108.16 74.1124 108.065 74.2227 107.879 74.2227C107.46 74.2227 107.04 74.2259 106.624 74.2196C106.381 74.2164 106.268 74.0745 106.271 73.838C106.271 73.7276 106.271 73.6173 106.271 73.5069C106.271 70.5112 106.271 67.5187 106.271 64.523C106.271 64.4126 106.274 64.3022 106.271 64.1919C106.258 63.9396 106.381 63.8292 106.627 63.8387C106.671 63.8387 106.716 63.8387 106.76 63.8387C107.264 63.8482 107.829 63.7252 108.261 63.9112C108.671 64.0878 108.816 64.6712 109.068 65.0811C110.058 66.6862 111.036 68.3007 112.013 69.9152C112.127 70.1013 112.221 70.3914 112.455 70.3283C112.71 70.2558 112.584 69.9468 112.584 69.7449C112.593 67.9601 112.584 66.1785 112.59 64.3937C112.59 63.8482 112.6 63.8482 113.139 63.8419C113.448 63.8387 113.757 63.8545 114.066 63.8387C114.419 63.8198 114.514 63.9838 114.511 64.3149C114.501 67.4398 114.511 70.568 114.504 73.693C114.504 74.1786 114.457 74.2069 113.968 74.229C112.957 74.2753 112.182 73.8632 111.644 72.9929C110.676 71.4225 109.708 69.8553 108.749 68.2818C108.633 68.0894 108.526 67.9065 108.273 67.7772L108.267 67.7709Z" fill="#153B85"/>
<path d="M24.0818 67.7615C23.8768 67.9507 23.9714 68.2061 23.9714 68.4331C23.962 70.1485 23.9714 71.8671 23.9683 73.5825C23.9683 74.2132 23.962 74.2353 23.3597 74.2132C22.9529 74.1975 22.4421 74.415 22.1614 74.0965C21.9154 73.8159 22.0794 73.3334 22.0794 72.9393C22.0731 70.1675 22.0763 67.3925 22.0763 64.6207C22.0763 64.4662 22.0794 64.3117 22.0763 64.1572C22.07 63.9459 22.1488 63.8261 22.3821 63.8292C22.8457 63.8355 23.3092 63.8418 23.7696 63.8292C24.0692 63.8198 24.1764 64.0184 24.3057 64.2328C25.34 65.9388 26.3838 67.6385 27.4244 69.3413C27.5946 69.6219 27.7681 69.9026 27.9352 70.1864C27.9857 70.2715 28.0519 70.3346 28.1402 70.3188C28.2285 70.3031 28.2884 70.2211 28.2947 70.1265C28.3042 69.994 28.2978 69.8647 28.2978 69.7323C28.2978 67.9727 28.2947 66.21 28.2978 64.4504C28.2978 63.8387 28.3042 63.8387 28.9348 63.8324C29.1997 63.8324 29.4646 63.8261 29.7295 63.8324C30.2182 63.845 30.2435 63.8607 30.2435 64.3684C30.2498 66.3267 30.2435 68.2849 30.2435 70.2463C30.2435 71.3689 30.2466 72.4915 30.2435 73.6141C30.2435 74.1848 30.1993 74.1596 29.6506 74.2353C28.588 74.3804 27.9415 74.0209 27.4118 73.0307C26.4941 71.3121 25.3936 69.6913 24.3688 68.0295C24.3025 67.9223 24.2742 67.7741 24.0944 67.7615H24.0818Z" fill="#153B85"/>
<path d="M99.5291 74.3551C98.3214 74.393 97.1547 74.0461 96.1834 73.1411C95.5591 72.5609 95.1491 71.8608 94.9 71.0378C94.5815 70.0004 94.5941 68.9408 94.7108 67.9002C94.9284 65.9546 96.2591 64.0878 98.5863 63.7567C99.7562 63.5896 100.879 63.6684 101.938 64.1635C103.181 64.7405 103.982 65.7402 104.351 67.0488C104.723 68.3669 104.735 69.7102 104.351 71.0252C103.767 73.0244 102.118 74.4182 99.5323 74.3551H99.5291ZM96.7731 69.1016C96.792 69.3918 96.7983 69.7891 96.8488 70.1801C96.8772 70.3914 96.9749 70.5963 97.0506 70.8045C97.511 72.0784 98.6903 72.7059 99.8098 72.6271C101.087 72.5357 102.039 71.6306 102.326 70.3945C102.544 69.4517 102.541 68.534 102.326 67.5943C102.061 66.4244 101.153 65.573 100.04 65.4627C98.375 65.2955 97.4448 66.1848 97.0411 67.1876C96.8046 67.7804 96.8046 68.3858 96.7731 69.1016Z" fill="#153B85"/>
<path d="M20.336 68.7674C20.358 70.3724 20.1058 71.6495 19.2228 72.7248C18.4345 73.6866 17.3907 74.2227 16.1578 74.3236C15.3284 74.393 14.5022 74.3961 13.6761 74.1376C12.2224 73.6835 11.2354 72.7501 10.7592 71.3437C10.2452 69.8301 10.2042 68.2628 10.7498 66.7461C11.3237 65.1568 12.4368 64.1193 14.1585 63.7977C15.5019 63.5486 16.7853 63.6589 17.993 64.3275C19.0052 64.8856 19.6391 65.7496 20.0301 66.8155C20.2918 67.5313 20.3013 68.2786 20.3328 68.7705L20.336 68.7674ZM18.2232 68.7327C18.1381 68.0673 18.1349 67.5723 17.9173 67.0898C17.5137 66.1974 16.8767 65.6298 15.9118 65.4879C14.8176 65.3271 13.8747 65.5983 13.1589 66.5127C12.3296 67.5723 12.339 70.2778 13.0959 71.4067C14.1901 73.037 16.7632 73.1001 17.7975 71.1955C18.2421 70.3787 18.2295 69.4674 18.2232 68.7327Z" fill="#153B85"/>
<path d="M140.684 68.7926C140.69 70.3661 140.457 71.6022 139.621 72.6523C138.814 73.6708 137.741 74.2227 136.461 74.3236C135.654 74.3867 134.85 74.3867 134.046 74.1375C132.542 73.6709 131.551 72.7059 131.078 71.2333C130.602 69.7512 130.571 68.2345 131.094 66.765C131.662 65.1694 132.769 64.1288 134.487 63.8008C135.831 63.5454 137.108 63.6558 138.325 64.3148C139.343 64.8667 139.98 65.7307 140.375 66.7934C140.646 67.5281 140.658 68.3007 140.687 68.7926H140.684ZM138.564 69.398C138.517 68.6192 138.596 67.8308 138.252 67.0772C137.849 66.1879 137.212 65.6172 136.24 65.4847C135.146 65.3334 134.207 65.6046 133.494 66.5253C132.674 67.5849 132.674 70.2904 133.447 71.4193C134.569 73.0559 137.101 73.0528 138.117 71.2365C138.438 70.6625 138.524 70.0413 138.564 69.398Z" fill="#153B85"/>
<path d="M36.4397 74.3552C35.4968 74.3836 34.7526 74.3268 34.0526 74.0241C32.8259 73.4943 32.2709 72.46 31.984 71.2302C31.9272 70.9811 32.0502 70.8329 32.2772 70.8108C32.7597 70.7603 33.2422 70.7351 33.7246 70.7099C33.8981 70.7004 34.0084 70.795 34.04 70.9779C34.3111 72.5199 35.9067 72.9803 37.3321 72.4411C38.0794 72.1573 38.4452 71.2901 38.0826 70.691C37.9028 70.3914 37.619 70.2369 37.2911 70.1454C36.4491 69.9058 35.6009 69.6819 34.7684 69.4107C33.8981 69.1301 33.116 68.7138 32.643 67.8593C32.0943 66.8659 32.2552 65.0875 33.5417 64.3149C34.5697 63.6968 35.6892 63.5581 36.8496 63.7094C37.474 63.7914 38.092 63.9207 38.6502 64.2833C39.3218 64.7185 39.6971 65.3366 39.921 66.0618C40.0944 66.62 39.9777 66.7556 39.3944 66.8029C39.0443 66.8313 38.6912 66.8565 38.3411 66.8817C38.092 66.9006 37.8997 66.8186 37.8429 66.5569C37.6695 65.7528 37.1145 65.4785 36.3577 65.4217C35.9541 65.3902 35.5662 65.4406 35.1752 65.5005C34.7495 65.5636 34.3427 65.9641 34.2985 66.292C34.2481 66.6862 34.4657 67.0078 34.9576 67.2475C35.4747 67.4966 36.036 67.6133 36.5816 67.771C37.2753 67.9728 37.988 68.1178 38.6313 68.4615C40.025 69.2057 40.3341 70.1234 40.2584 71.5487C40.189 72.8762 39.0002 73.8979 38.0636 74.1376C37.455 74.2921 36.8528 74.3268 36.4302 74.3583L36.4397 74.3552Z" fill="#153B85"/>
<path d="M61.3329 67.8907C61.3329 66.724 61.3298 65.5604 61.3329 64.3937C61.3329 63.8513 61.3487 63.845 61.8911 63.8355C62.2443 63.8292 62.5974 63.8481 62.9475 63.8292C63.2596 63.8134 63.3795 63.9301 63.3763 64.2455C63.3637 65.0369 63.3669 65.8284 63.3732 66.6199C63.3826 67.9822 63.3322 69.3476 63.4425 70.7067C63.4835 71.2238 63.5939 71.6968 63.9786 72.0847C64.4012 72.5136 64.953 72.5672 65.4954 72.6208C65.8706 72.6555 66.2522 72.5546 66.5864 72.3969C67.0185 72.1919 67.3086 71.8356 67.3716 71.3311C67.4568 70.6531 67.5041 69.9751 67.5009 69.2908C67.4978 67.6858 67.5009 66.0807 67.5009 64.4757C67.5009 63.8355 67.5041 63.8355 68.1663 63.8324C68.4312 63.8324 68.696 63.8324 68.9578 63.8324C69.5159 63.8355 69.5222 63.8387 69.5222 64.4252C69.5159 66.5348 69.5033 68.6475 69.5001 70.7571C69.5001 71.4004 69.415 72.0311 69.1344 72.6145C68.6077 73.715 67.6397 74.1912 66.4981 74.3141C65.8013 74.3898 65.0854 74.3772 64.3886 74.3141C63.0168 74.188 61.5631 73.2231 61.4528 71.3815C61.4149 70.7666 61.3645 70.1517 61.3424 69.5368C61.3235 68.9881 61.3393 68.4363 61.3393 67.8876H61.3329V67.8907Z" fill="#153B85"/>
<path d="M76.0966 74.3488C73.369 74.4245 71.6945 72.2928 71.5022 70.1202C71.4044 69.0134 71.4076 67.9254 71.7608 66.8628C72.3189 65.1852 73.4352 64.1414 75.1979 63.7756C76.2764 63.5517 77.3044 63.6526 78.2882 64.1036C79.2784 64.5545 79.9122 65.3491 80.2717 66.3708C80.3316 66.5411 80.3221 66.6767 80.1172 66.7272C79.6063 66.8565 79.0986 66.992 78.5846 67.1119C78.3734 67.1623 78.2788 67.033 78.1936 66.8501C77.6481 65.6992 76.8408 65.2672 75.5795 65.4942C74.6776 65.655 73.905 66.3645 73.6717 67.5975C73.4888 68.5624 73.514 69.5273 73.6843 70.4828C74.0501 72.5325 76.1282 73.1506 77.4084 72.1604C77.7805 71.8734 78.0296 71.4887 78.1842 71.041C78.4017 70.4134 78.4049 70.4198 79.0072 70.6279C79.3383 70.7414 79.6694 70.8675 80.0099 70.9401C80.3158 71.0063 80.36 71.1734 80.2717 71.4162C79.6978 73.037 78.5626 74.2668 76.5507 74.3457C76.3962 74.352 76.2417 74.3457 76.0872 74.3457L76.0966 74.3488Z" fill="#153B85"/>
<path d="M125.027 74.3614C122.473 74.4308 120.767 72.482 120.47 70.3787C120.265 68.9061 120.325 67.484 120.997 66.1375C121.609 64.914 122.589 64.1351 123.939 63.8166C125.024 63.5612 126.074 63.6211 127.102 64.0531C128.161 64.5009 128.827 65.2955 129.199 66.3645C129.278 66.5916 129.224 66.683 129 66.7366C128.508 66.8533 128.023 66.9857 127.534 67.1087C127.363 67.1529 127.228 67.1087 127.174 66.9227C127.155 66.8596 127.14 66.7934 127.111 66.7366C126.695 65.9325 126.08 65.4753 125.131 65.4563C124.119 65.4374 123.409 65.8726 122.911 66.7177C122.633 67.1875 122.596 67.7205 122.517 68.2376C122.362 69.2561 122.504 70.2526 122.873 71.2081C123.274 72.2455 124.229 72.6365 125.115 72.6239C126.03 72.6113 126.827 71.946 127.149 71.0031C127.351 70.4103 127.351 70.4134 127.918 70.6121C128.272 70.7351 128.622 70.8644 128.984 70.9463C129.296 71.0189 129.303 71.1734 129.215 71.4257C128.559 73.3082 127.196 74.4245 125.027 74.3583V74.3614Z" fill="#153B85"/>
<path d="M4.66692 74.3488C2.12532 74.4245 0.413042 72.4757 0.126087 70.3598C-0.0757283 68.8904 -0.0158146 67.4619 0.662158 66.1217C1.28022 64.9014 2.26091 64.1257 3.6137 63.8103C4.72368 63.5517 5.79898 63.6211 6.83643 64.0815C7.85812 64.5356 8.50771 65.3302 8.86404 66.3803C8.92711 66.5632 8.90819 66.6736 8.70638 66.724C8.19553 66.8533 7.68784 66.9857 7.177 67.1119C7.00041 67.156 6.87743 67.0867 6.82697 66.9038C6.80805 66.8407 6.79859 66.7713 6.76706 66.7146C6.32559 65.8947 5.67915 65.4438 4.70476 65.4501C3.71776 65.4595 2.99564 65.8852 2.57309 66.7335C2.13478 67.6164 2.03387 68.5877 2.1537 69.562C2.22307 70.1233 2.28298 70.6878 2.52264 71.2239C2.98303 72.2613 3.95426 72.6397 4.7899 72.6208C5.676 72.5987 6.4738 71.9491 6.79544 71.0473C6.82382 70.9653 6.83643 70.877 6.85851 70.7919C6.92473 70.5238 7.0887 70.4261 7.35043 70.5112C7.80767 70.6594 8.2649 70.8202 8.7253 70.9621C8.9681 71.0378 8.95549 71.1955 8.89242 71.3752C8.29329 73.1474 7.01933 74.3142 5.0674 74.3425C4.93496 74.3425 4.80252 74.3425 4.67008 74.3425L4.66692 74.3488Z" fill="#153B85"/>
<path d="M84.5573 69.9121C84.5573 68.7012 84.5573 67.4903 84.5573 66.2794C84.5573 65.5762 84.5479 65.5699 83.8699 65.5636C83.318 65.5604 82.7694 65.5636 82.2175 65.5636C81.7004 65.5636 81.4407 65.3145 81.4386 64.8162C81.4386 64.6176 81.4481 64.4189 81.4386 64.2234C81.4229 63.9333 81.5711 63.8355 81.8391 63.8355C82.4572 63.8387 83.0721 63.8355 83.6901 63.8355C85.497 63.8355 87.3039 63.8355 89.1108 63.8355C89.6626 63.8355 89.6658 63.845 89.6721 64.3716C89.6752 64.6365 89.6658 64.9014 89.6752 65.1631C89.6878 65.4438 89.5617 65.5636 89.2842 65.5604C88.6882 65.5541 88.0954 65.5604 87.4994 65.5604C86.6102 65.5604 86.6007 65.5699 86.6007 66.4308C86.6007 68.7422 86.6007 71.0536 86.6007 73.365C86.6007 73.5195 86.6007 73.674 86.6007 73.8285C86.6007 74.0619 86.4903 74.2132 86.2507 74.2164C85.7871 74.2259 85.3267 74.229 84.8632 74.2164C84.5352 74.2101 84.5636 73.9578 84.5636 73.7371C84.5636 72.9015 84.5636 72.0627 84.5636 71.227C84.5636 70.7855 84.5636 70.3472 84.5636 69.9058L84.5573 69.9121Z" fill="#153B85"/>
<path d="M44.4497 69.9058C44.4497 68.676 44.4528 67.443 44.4497 66.2132C44.4497 65.5604 44.4339 65.551 43.7843 65.5447C43.1253 65.5384 42.463 65.5384 41.804 65.5447C41.4824 65.5478 41.3058 65.4406 41.331 65.0843C41.3499 64.8005 41.3436 64.5135 41.331 64.2266C41.3184 63.9428 41.454 63.8261 41.7252 63.8324C41.8355 63.8324 41.9459 63.8324 42.0563 63.8324C44.3456 63.8324 46.6318 63.8324 48.9211 63.8324C49.5518 63.8324 49.5613 63.8355 49.5549 64.4221C49.5392 65.7276 49.7568 65.5226 48.4544 65.5415C48.0792 65.5478 47.7071 65.5415 47.3318 65.5415C46.5057 65.5415 46.5025 65.5447 46.5025 66.4024C46.5025 67.9633 46.5025 69.5242 46.5025 71.0851C46.5025 71.9208 46.5057 72.7564 46.5025 73.592C46.4993 74.188 46.4647 74.2164 45.8624 74.2227C45.5533 74.2259 45.2475 74.229 44.9384 74.2227C44.4875 74.2133 44.4591 74.1943 44.4528 73.7308C44.4434 72.9393 44.4528 72.1478 44.4528 71.3563C44.4528 70.8738 44.4528 70.3882 44.4528 69.9058H44.4497Z" fill="#153B85"/>
<path d="M90.9805 68.9944C90.9805 67.4556 90.9805 65.9168 90.9805 64.3779C90.9805 63.845 90.9868 63.8418 91.5292 63.8355C91.9044 63.8324 92.2765 63.8355 92.6518 63.8355C92.9229 63.8355 93.0617 63.9522 93.0522 64.2297C93.0491 64.3401 93.0522 64.4504 93.0522 64.5608C93.0522 67.5281 93.0522 70.4986 93.0522 73.4659C93.0522 73.5983 93.0522 73.7308 93.0522 73.8601C93.0459 74.065 92.9419 74.1849 92.7369 74.2132C92.6927 74.2196 92.6486 74.2195 92.6045 74.2227C91.5239 74.3215 90.9836 73.8317 90.9836 72.7532C90.9836 71.5014 90.9836 70.2463 90.9836 68.9944H90.9805Z" fill="#153B85"/>
<path d="M143.335 72.2266C144.442 72.2424 144.307 72.0595 144.31 73.2042C144.313 74.3961 144.42 74.2195 143.301 74.2227C142.367 74.2227 142.386 74.4119 142.396 73.3019C142.396 73.2578 142.396 73.2136 142.396 73.1695C142.405 72.0406 142.295 72.2487 143.339 72.2298L143.335 72.2266Z" fill="#153B85"/>
</svg>
