<svg width="206" height="197" viewBox="0 0 206 197" fill="none" xmlns="http://www.w3.org/2000/svg">
<rect x="0.0429688" y="-0.000244141" width="205.4" height="197" rx="3" fill="#F7F7F7"/>
<g clip-path="url(#clip0_2206_753)">
<path d="M134.987 96.2C134.619 96.2105 134.495 96.4505 134.35 96.6439C131.646 100.24 127.898 101.088 123.763 100.338C116.793 99.0739 112.798 94.5426 112.492 87.484C112.079 77.9826 112.161 68.476 112.505 58.9683C112.716 53.1009 115.764 49.3158 121.031 47.3646C126.487 45.3447 132.026 45.593 137.378 47.9449C142.193 50.061 144.61 53.8841 145 59.0824C145.157 61.1827 145.222 63.2808 145.253 65.3853C145.265 66.2415 144.942 66.4518 144.146 66.4455C140.148 66.4159 136.151 66.4085 132.154 66.4497C131.282 66.4582 131 66.2077 131 65.3198C131 62.5462 131.166 59.7642 130.789 56.9991C130.585 55.5045 130.052 54.9654 128.754 54.9485C127.474 54.9327 126.815 55.4908 126.639 56.9441C126.487 58.1935 126.413 59.4608 126.414 60.7197C126.424 69.7655 126.457 78.8113 126.502 87.8571C126.506 88.5663 126.612 89.2819 126.742 89.9816C126.942 91.0587 127.554 91.6845 128.725 91.7109C129.895 91.7373 130.653 91.2247 131.022 90.1349C131.321 89.2502 131.412 88.3253 131.424 87.3994C131.454 85.0856 131.426 82.7708 131.485 80.4581C131.507 79.5776 131.215 79.2891 130.329 79.3039C128.602 79.3324 128.602 79.2848 128.605 77.6084C128.609 75.8411 128.63 74.0738 128.602 72.3065C128.591 71.6512 128.824 71.4239 129.48 71.4261C134.445 71.4451 139.41 71.4567 144.375 71.425C145.431 71.4187 145.232 72.0994 145.233 72.6976C145.238 80.3133 145.236 87.93 145.235 95.5457C145.235 96.85 145.193 98.1565 145.251 99.4587C145.29 100.301 145.07 100.678 144.145 100.657C141.873 100.607 139.6 100.613 137.329 100.657C136.543 100.673 136.212 100.359 136.022 99.6352C135.716 98.4735 135.57 97.2538 134.989 96.1978L134.987 96.2Z" fill="#C5295C"/>
<path d="M87.2558 71.2178C88.3392 71.6121 89.0855 71.8859 89.8338 72.1565C92.581 73.1479 94.4698 75.0167 94.9201 77.9129C95.7773 83.424 95.8841 88.9764 94.7415 94.4633C94.0745 97.6681 91.9235 99.4904 88.6785 100.087C85.7633 100.622 82.8238 100.664 79.8822 100.692C75.928 100.731 71.9727 100.703 68.0185 100.701C64.8073 100.7 62.9766 99.0623 62.5295 95.8649C61.946 91.6961 63.1912 87.9649 65.2111 84.4166C66.6306 81.9231 68.4265 79.6992 70.2043 77.4562C73.8341 72.8794 75.5496 67.7815 74.1427 61.9163C74.0159 61.3888 73.833 60.8677 73.6174 60.3688C71.718 55.9791 72.9314 52.0048 75.1363 48.1087C75.9502 46.6701 76.9205 46.0211 78.654 46.1808C80.8716 46.3848 83.0965 46.4926 85.2909 46.9059C89.3117 47.6637 92.1296 49.9394 93.4139 53.8133C94.6781 57.6259 94.7711 61.5791 94.1379 65.5407C93.6707 68.4665 91.6476 69.8765 89.0485 70.7073C88.5781 70.8574 88.0972 70.979 87.2558 71.2168V71.2178ZM76.5992 83.571C76.6087 83.571 76.6171 83.571 76.6267 83.571C76.6267 85.8393 76.6193 88.1086 76.633 90.377C76.6362 90.7945 76.4575 91.2997 77.2207 91.3758C79.5101 91.6031 81.0174 90.5651 81.2204 88.2577C81.492 85.1617 81.5047 82.0425 81.2013 78.9455C81.0016 76.9076 80.4731 76.4923 78.4098 76.2502C78.1593 76.2206 77.8993 76.2343 77.6583 76.173C76.7937 75.9521 76.5653 76.3115 76.5833 77.1434C76.6288 79.2848 76.5981 81.4284 76.5981 83.571H76.5992ZM81.343 61.6108C81.3599 60.3942 81.3736 59.1765 81.1083 57.9779C80.6876 56.0742 78.969 55.0542 77.0833 55.5457C76.614 55.6684 76.6309 55.9717 76.6298 56.3026C76.6256 59.8255 76.6256 63.3496 76.6319 66.8725C76.6319 67.1484 76.5727 67.4475 76.9268 67.6209C78.302 68.2942 80.7183 67.1315 81.0269 65.6168C81.2965 64.2956 81.3345 62.9532 81.3419 61.6097L81.343 61.6108ZM75.7515 54.9824C76.3328 54.9602 76.7197 54.6705 76.7556 54.0924C76.7915 53.5258 76.4755 53.1231 75.8952 53.0703C75.2557 53.0132 74.8562 53.3556 74.835 54.0057C74.816 54.5997 75.1902 54.8967 75.7515 54.9824Z" fill="#C5295C"/>
<path d="M110.802 73.3603C110.802 81.9833 110.782 90.6052 110.829 99.2272C110.835 100.331 110.561 100.663 109.436 100.639C105.777 100.566 102.116 100.561 98.4588 100.638C97.294 100.663 96.9832 100.342 96.9854 99.1775C97.0224 82.4378 97.0118 65.6971 97.0118 48.9574C97.0118 47.0182 97.9733 46.0489 99.8963 46.0496C103.093 46.0496 106.29 46.0888 109.485 46.0232C110.537 46.0021 110.831 46.3097 110.826 47.3667C110.783 56.0309 110.802 64.6951 110.802 73.3603Z" fill="#C5295C"/>
<path d="M80.5427 114.481C80.8524 114.633 81.0353 114.736 81.2276 114.815C84.4018 116.105 85.7875 118.219 85.4747 121.296C85.1417 124.567 83.1112 126.801 79.8673 127.365C78.6285 127.581 77.3643 127.741 76.1097 127.756C71.8627 127.805 67.6156 127.759 63.3686 127.798C62.5864 127.805 62.3846 127.585 62.3877 126.808C62.4173 119.156 62.4142 111.502 62.3898 103.849C62.3877 103.062 62.5558 102.754 63.4268 102.764C67.9676 102.811 72.5095 102.765 77.0515 102.803C79.4487 102.823 81.6314 103.437 83.1725 105.47C85.296 108.271 84.5022 112.208 81.4634 113.956C81.2118 114.101 80.9592 114.244 80.5427 114.482V114.481ZM72.9112 122.404C73.6648 122.404 74.4238 122.464 75.17 122.391C76.8031 122.233 77.7596 121.273 77.7734 119.873C77.7882 118.486 76.8062 117.543 75.1372 117.422C74.2198 117.356 73.2959 117.384 72.3742 117.381C70.8867 117.377 70.1426 118.121 70.1419 119.613C70.1405 121.503 71.0636 122.433 72.9112 122.404ZM72.7146 112.62C73.4323 112.577 74.2652 112.657 75.1002 112.445C76.3496 112.127 76.7883 111.26 76.7618 110.11C76.7354 108.976 76.1393 108.242 74.9892 107.981C74.1563 107.792 73.3181 107.855 72.481 107.851C70.1408 107.837 70.1408 107.845 70.1397 110.116C70.1383 111.788 70.9966 112.622 72.7146 112.62Z" fill="#20174D"/>
<path d="M121.257 127.777C118.404 127.777 115.729 127.763 113.053 127.786C112.365 127.793 112.249 127.252 112.024 126.841C110.751 124.52 109.499 122.188 108.255 119.852C107.654 118.725 106.871 117.856 105.52 117.673C104.775 117.572 104.392 117.704 104.415 118.628C104.48 121.317 104.398 124.01 104.458 126.699C104.478 127.608 104.184 127.823 103.324 127.796C101.392 127.733 99.4562 127.755 97.5229 127.788C96.8771 127.8 96.6488 127.611 96.6509 126.94C96.6689 119.162 96.6625 111.385 96.6509 103.608C96.6509 103.044 96.8063 102.765 97.4341 102.777C102.476 102.871 107.527 102.541 112.56 102.968C116.597 103.31 118.841 105.37 119.185 108.778C119.576 112.654 117.775 115.335 113.938 116.588C113.82 116.628 113.704 116.676 113.413 116.786C116.281 117.876 117.424 120.316 118.627 122.717C119.45 124.359 120.319 125.98 121.254 127.778L121.257 127.777ZM104.433 110.309C104.433 110.937 104.443 111.566 104.429 112.193C104.42 112.619 104.494 112.942 105.022 112.93C106.608 112.894 108.205 113.075 109.763 112.607C110.93 112.256 111.468 111.437 111.486 110.273C111.506 109.059 110.831 108.227 109.562 108.006C108.704 107.855 107.814 107.85 106.938 107.843C104.425 107.822 104.425 107.834 104.43 110.31L104.433 110.309Z" fill="#20174D"/>
<path d="M122.147 115.273C122.147 111.532 122.174 107.792 122.128 104.052C122.116 103.116 122.283 102.733 123.35 102.757C127.131 102.839 130.915 102.757 134.696 102.832C140.01 102.937 143.442 105.736 144.68 110.897C145.47 114.187 145.415 117.481 144.527 120.746C143.423 124.801 139.849 127.494 134.908 127.71C130.923 127.886 126.925 127.743 122.933 127.794C122.049 127.805 122.146 127.3 122.147 126.745C122.151 122.921 122.149 119.097 122.149 115.273H122.147ZM129.893 115.273C129.893 116.617 129.893 117.96 129.893 119.305C129.893 121.513 131.011 122.447 133.247 122.105C135.964 121.69 137.004 120.618 137.287 117.833C137.394 116.791 137.422 115.735 137.402 114.688C137.313 109.893 135.858 108.497 131.084 108.44C130.171 108.43 129.822 108.613 129.865 109.603C129.948 111.49 129.888 113.383 129.892 115.273H129.893Z" fill="#20174D"/>
<path d="M62.6104 82.8015C62.2478 82.2963 62.3821 81.8629 62.3821 81.4602C62.3726 70.1419 62.3863 58.8246 62.3472 47.5063C62.344 46.4483 62.6315 46.1386 63.6843 46.1777C65.8691 46.258 68.0592 46.2199 70.2472 46.1956C70.9659 46.1882 71.4617 46.2453 70.9554 47.1247C70.9142 47.1966 70.874 47.2822 70.8729 47.3615C70.8539 48.6278 70.7038 49.6224 69.1257 50.0885C68.0116 50.4183 67.9355 52.1053 68.7103 53.1517C69.0982 53.676 69.6954 54.1051 71.004 54.7636C69.2103 56.1018 67.4831 57.3903 65.4305 58.9219C67.0783 59.0783 68.3467 59.1999 69.6151 59.3204C70.0749 59.3637 70.5347 59.4155 70.9955 59.4483C71.6921 59.4979 71.7122 59.7844 71.3782 60.3235C70.7144 61.3963 70.1161 62.5061 69.6764 63.6953C69.2959 64.7216 68.7283 65.8272 69.5464 66.7923C70.4882 67.9032 71.7999 68.1949 73.3241 67.6844C73.2702 68.8016 72.8643 69.7413 72.3876 70.6493C71.4585 72.4155 70.17 73.909 68.7854 75.3307C66.5392 77.6371 64.2202 79.8832 62.6114 82.7994L62.6104 82.8015Z" fill="#C5295C"/>
<path d="M94.4115 115.335C94.4115 119.12 94.384 122.905 94.4316 126.69C94.4432 127.579 94.1853 127.829 93.3069 127.799C91.3748 127.733 89.4383 127.758 87.504 127.793C86.8646 127.804 86.6278 127.638 86.6299 126.951C86.651 119.213 86.6489 111.475 86.6299 103.736C86.6278 103.038 86.8276 102.779 87.5569 102.795C89.4901 102.838 91.4265 102.847 93.3598 102.788C94.1969 102.763 94.439 103.031 94.4305 103.855C94.3935 107.681 94.4147 111.508 94.4147 115.336H94.4105L94.4115 115.335Z" fill="#20174D"/>
<path d="M53.2183 138.495C86.3889 131.122 119.575 130.3 152.782 138.207C119.582 132.758 86.3942 133.11 53.2183 138.495Z" fill="#C5295C"/>
<path d="M68.0627 148.22C68.2329 146.066 69.2582 144.367 70.8627 142.985C72.1438 141.881 72.6966 141.834 74.2694 142.638C74.7916 142.906 75.6816 142.453 75.7556 141.85C75.8317 141.225 75.8359 140.592 75.8961 139.964C75.9289 139.63 75.9818 139.22 76.4267 139.24C76.9436 139.263 76.9468 139.699 76.9288 140.089C76.9172 140.34 76.8865 140.591 76.8548 140.841C76.7576 141.616 76.6646 142.367 77.878 141.959C78.1581 141.865 78.5133 141.861 78.6264 142.22C78.7701 142.676 78.397 142.827 78.064 142.872C76.8992 143.026 76.5874 143.715 76.6413 144.805C76.6973 145.935 76.6117 147.073 76.5758 148.207C76.5652 148.529 76.6403 148.957 76.1667 148.998C75.6076 149.047 75.6076 148.587 75.6107 148.212C75.6213 146.993 75.6012 145.77 75.6995 144.557C75.7704 143.672 75.2271 143.454 74.5907 143.352C73.8107 143.227 74.0644 143.952 73.9745 144.299C73.6754 145.449 73.6088 146.621 73.9935 147.777C74.1035 148.107 74.2293 148.472 73.7832 148.622C73.3646 148.763 73.1353 148.423 73.0496 148.105C72.7949 147.154 72.425 147.206 71.8013 147.833C70.6725 148.968 69.3977 149.09 68.0469 148.203L68.0638 148.22H68.0627ZM72.9376 143.937C72.8509 143.464 73.1522 142.689 72.2886 143.18C70.8595 143.993 69.8744 145.219 69.2994 146.758C69.1673 147.111 69.1144 147.524 69.478 147.793C69.7983 148.031 70.1408 147.856 70.4135 147.679C71.8119 146.77 72.6681 145.498 72.9376 143.937Z" fill="#C5295C"/>
<path d="M131.458 144.814C131.031 146.119 130.939 147.225 130.849 148.338C130.814 148.767 130.964 149.389 130.328 149.461C129.661 149.536 129.691 148.863 129.617 148.466C129.135 145.906 128.647 143.349 127.928 140.842C127.848 140.562 127.769 140.227 128.149 140.094C128.587 139.941 128.732 140.256 128.858 140.595C129.368 141.968 129.408 143.475 130.057 144.922C130.762 144.213 130.593 143.32 130.797 142.556C130.886 142.225 130.884 141.839 131.293 141.776C131.768 141.703 131.959 142.076 132.058 142.451C132.367 143.619 132.651 144.794 132.968 146.059C133.487 145.746 133.409 145.295 133.472 144.932C133.706 143.607 133.91 142.279 134.126 140.951C134.176 140.639 134.273 140.362 134.667 140.404C135.089 140.448 135.086 140.777 135.037 141.066C134.634 143.425 134.433 145.82 133.737 148.124C133.636 148.456 133.488 148.807 133.101 148.824C132.634 148.844 132.507 148.432 132.382 148.072C132.04 147.099 132.141 146 131.456 144.813L131.458 144.814Z" fill="#20174D"/>
<path d="M85.6015 144.762C84.9325 146.106 85.0318 147.24 84.9134 148.332C84.8659 148.771 84.9864 149.388 84.3722 149.454C83.6355 149.533 83.6979 148.841 83.6175 148.381C83.1905 145.941 82.6515 143.526 82.0532 141.122C81.9623 140.756 81.6241 140.227 82.272 140.084C82.866 139.953 82.8703 140.533 82.9675 140.92C83.3131 142.288 83.6471 143.659 84.0414 145.252C84.6122 144.228 84.6576 143.303 84.8775 142.437C84.9536 142.137 84.9853 141.829 85.3309 141.768C85.759 141.691 85.9292 142.022 86.019 142.351C86.3488 143.55 86.6543 144.756 87.2621 145.979C87.4745 144.823 87.6944 143.669 87.8952 142.511C87.9882 141.974 88.0326 141.429 88.1235 140.891C88.1774 140.571 88.3508 140.342 88.7271 140.412C89.0473 140.471 89.1097 140.719 89.0674 140.984C88.6858 143.344 88.4205 145.726 87.8128 148.045C87.7155 148.416 87.5189 148.82 87.0919 148.823C86.556 148.825 86.4926 148.332 86.3911 147.92C86.1575 146.969 85.9165 146.018 85.6015 144.762Z" fill="#20174D"/>
<path d="M68.0457 148.203C67.8734 149.243 66.5849 150.028 64.9572 150.084C63.6539 150.128 62.7882 149.536 62.599 148.304C62.3569 146.731 62.3136 145.145 62.803 143.594C62.9415 143.153 63.0799 142.71 63.1835 142.26C63.4985 140.89 63.5947 139.394 65.7266 139.766C66.3017 139.867 66.9771 139.349 67.6155 139.144C67.9537 139.035 68.3797 138.77 68.6123 139.257C68.8564 139.772 68.3639 139.889 68.0468 140.052C67.2551 140.456 66.401 140.682 65.5385 140.879C64.7278 141.065 63.7141 142.873 63.9594 143.661C64.0756 144.034 64.3494 143.916 64.565 143.862C65.0946 143.731 65.6114 143.547 66.141 143.412C66.4951 143.321 66.9507 143.125 67.1198 143.624C67.2952 144.14 66.8164 144.236 66.4623 144.346C65.8619 144.533 65.2637 144.779 64.6464 144.85C63.8061 144.949 63.4678 145.368 63.4784 146.169C63.4837 146.547 63.4457 146.926 63.4604 147.304C63.527 148.991 64.3969 149.571 65.9645 148.972C66.6589 148.706 67.2762 148.226 68.0637 148.222L68.0468 148.205L68.0457 148.203Z" fill="#C5295C"/>
<path d="M89.4648 146.181C89.469 144.469 91.2479 142.476 92.9634 142.267C93.548 142.196 94.087 142.366 94.4041 142.847C94.7836 143.422 94.6779 144.084 94.3249 144.636C93.6716 145.659 92.6865 146.134 91.4805 146.233C91.1285 146.261 90.508 145.877 90.4552 146.526C90.4034 147.165 90.7099 147.796 91.4403 147.947C92.417 148.149 93.2562 147.854 93.9126 147.073C94.1779 146.758 94.4929 146.309 94.9263 146.763C95.3015 147.156 94.8174 147.439 94.5997 147.7C93.7224 148.753 92.1665 149.288 91.1105 148.874C89.8981 148.401 89.4405 147.428 89.4648 146.181ZM91.5471 145.245C92.4994 145.128 93.3566 144.829 93.6336 143.77C93.7477 143.33 93.4285 143.196 93.0269 143.224C92.3567 143.269 90.767 144.486 90.8336 144.937C90.897 145.37 91.2701 145.201 91.5471 145.246V145.245Z" fill="#20174D"/>
<path d="M121.38 148.988C119.393 148.992 118.134 147.189 118.744 145.384C119.252 143.88 120.292 142.807 121.872 142.347C122.537 142.154 123.137 142.256 123.584 142.805C124.015 143.335 123.89 143.939 123.612 144.474C123.014 145.625 121.966 146.087 120.732 146.237C120.369 146.281 119.775 146 119.762 146.681C119.751 147.313 120.049 147.846 120.741 147.963C121.688 148.124 122.465 147.783 123.109 147.075C123.368 146.79 123.661 146.266 124.109 146.768C124.44 147.139 124.055 147.463 123.805 147.736C123.091 148.514 122.205 148.94 121.379 148.988H121.38ZM120.71 145.242C121.713 145.24 122.829 144.456 122.845 143.765C122.853 143.406 122.689 143.232 122.319 143.221C121.697 143.204 120.084 144.384 120.093 144.881C120.102 145.35 120.482 145.198 120.71 145.242Z" fill="#C5295C"/>
<path d="M135.464 146.303C135.512 144.403 137.184 142.535 138.903 142.281C140.135 142.099 140.942 143.08 140.48 144.236C139.953 145.558 138.858 146.055 137.524 146.226C137.156 146.272 136.474 145.842 136.473 146.662C136.472 147.345 136.806 147.88 137.564 147.981C138.51 148.108 139.286 147.776 139.92 147.069C140.157 146.805 140.409 146.333 140.823 146.696C141.292 147.106 140.823 147.444 140.564 147.738C139.641 148.785 138.12 149.259 137.054 148.852C135.79 148.37 135.495 147.324 135.464 146.303ZM136.659 145.158C137.861 145.322 138.782 145.176 139.429 144.234C139.597 143.989 139.697 143.687 139.52 143.411C139.317 143.096 139.008 143.215 138.733 143.308C137.832 143.614 137.19 144.205 136.66 145.158H136.659Z" fill="#20174D"/>
<path d="M113.459 141.863C113.959 141.864 114.002 142.228 114.105 142.545C114.405 143.463 114.703 144.381 115.016 145.295C115.095 145.526 115.187 145.815 115.459 145.851C115.855 145.903 115.891 145.519 115.991 145.268C116.406 144.214 116.786 143.145 117.212 142.095C117.346 141.763 117.511 141.291 118 141.48C118.51 141.676 118.262 142.079 118.128 142.436C117.376 144.432 116.37 146.349 116.255 148.542C116.238 148.854 116.065 149.12 115.71 149.129C115.38 149.139 115.144 148.923 115.045 148.635C114.797 147.923 114.592 147.196 114.362 146.478C113.966 145.239 113.545 144.008 113.173 142.763C113.073 142.432 112.939 141.994 113.459 141.863Z" fill="#C5295C"/>
<path d="M106.169 144.633C106.169 143.626 106.135 142.618 106.183 141.614C106.207 141.133 105.922 140.317 106.748 140.338C107.437 140.355 107.219 141.104 107.235 141.572C107.295 143.333 107.344 145.093 107.365 146.855C107.377 147.869 107.774 148.136 108.681 147.661C109.089 147.447 109.519 147.277 109.946 147.102C110.239 146.981 110.55 146.958 110.714 147.286C110.901 147.66 110.594 147.819 110.325 147.938C109.404 148.343 108.49 148.768 107.547 149.113C106.829 149.376 106.423 149.059 106.393 148.278C106.346 147.063 106.286 145.848 106.232 144.634H106.169V144.633Z" fill="#C5295C"/>
<path d="M97.7704 144.375C97.8814 142.828 97.6827 141.267 97.9934 139.73C98.0653 139.373 98.0515 138.874 98.5822 138.934C99.1487 138.999 98.9352 139.475 98.9204 139.833C98.8147 142.346 98.727 144.861 98.6054 147.373C98.5832 147.82 98.8675 148.6 98.1298 148.578C97.3148 148.555 97.6488 147.751 97.6488 147.266C97.6488 146.302 97.7249 145.339 97.7714 144.375H97.7704Z" fill="#20174D"/>
<path d="M141.643 144.372C141.853 142.907 141.662 141.428 141.941 139.975C142.021 139.559 141.951 138.871 142.589 138.942C143.321 139.022 142.913 139.649 142.896 140.059C142.799 142.532 142.702 145.005 142.589 147.477C142.57 147.902 142.77 148.605 142.131 148.594C141.396 148.583 141.656 147.855 141.649 147.391C141.632 146.385 141.643 145.379 141.643 144.373V144.372Z" fill="#20174D"/>
<path d="M95.6858 144.086C95.8993 142.663 95.7175 141.231 95.9691 139.816C96.0399 139.42 96.0251 138.845 96.6181 138.941C97.2607 139.045 96.9151 139.584 96.9013 139.965C96.8062 142.478 96.7238 144.993 96.6181 147.507C96.6001 147.923 96.8263 148.609 96.1445 148.593C95.4902 148.578 95.6974 147.909 95.6921 147.481C95.6763 146.349 95.6868 145.218 95.6868 144.086H95.6858Z" fill="#20174D"/>
<path d="M144.929 139.696C144.583 142.32 144.732 144.967 144.568 147.599C144.544 147.986 144.731 148.584 144.125 148.596C143.516 148.609 143.648 148.015 143.656 147.623C143.698 145.318 143.751 143.012 143.819 140.708C143.831 140.293 143.914 139.875 143.997 139.466C144.058 139.166 144.214 138.879 144.576 138.927C145.044 138.987 145.006 139.354 144.929 139.698V139.696Z" fill="#20174D"/>
<path d="M112.477 145.6C112.477 146.524 112.482 147.446 112.475 148.37C112.471 148.739 112.535 149.214 111.982 149.207C111.516 149.202 111.546 148.777 111.547 148.444C111.552 146.513 111.562 144.581 111.577 142.65C111.579 142.308 111.589 141.913 112.043 141.892C112.625 141.864 112.544 142.344 112.55 142.704C112.563 143.669 112.555 144.635 112.555 145.601C112.53 145.601 112.504 145.601 112.479 145.601L112.477 145.6Z" fill="#C5295C"/>
<path d="M113.295 138.653C112.899 139.372 112.999 140.491 112.009 140.848C111.433 141.055 109.648 139.444 109.792 138.926C110.14 137.678 111.423 138.013 112.268 137.644C112.764 137.428 113.28 137.893 113.295 138.653ZM112.623 138.897C112.645 138.462 112.174 138.086 112.109 138.218C111.742 138.96 110.536 138.127 110.488 139.056C110.451 139.774 111.222 140.185 111.778 140.195C112.466 140.209 112.444 139.389 112.621 138.897H112.623Z" fill="#C5295C"/>
<path d="M102.236 147.432C102.066 148.159 101.675 148.692 100.88 148.659C100.128 148.627 99.5767 148.199 99.5947 147.4C99.6126 146.615 100.135 146.2 100.916 146.182C101.748 146.163 102.082 146.703 102.237 147.432H102.236Z" fill="#C5295C"/>
</g>
<defs>
<clipPath id="clip0_2206_753">
<rect width="99.5638" height="104.086" fill="white" transform="translate(53.2183 46)"/>
</clipPath>
</defs>
</svg>
