<svg width="207" height="197" viewBox="0 0 207 197" fill="none" xmlns="http://www.w3.org/2000/svg">
<rect x="0.954102" y="-0.000244141" width="205.4" height="197" rx="3" fill="#F7F7F7"/>
<g clip-path="url(#clip0_2206_754)">
<path d="M152.335 82.9772C152.335 82.2324 152.19 81.4877 152.109 80.7429L151.914 79.1239C151.846 78.7607 151.697 78.4176 151.477 78.1201C151.137 77.6667 150.781 77.2296 150.409 76.7924C150.036 76.3553 149.421 75.6267 148.919 75.06C145.681 71.3362 142.292 67.7635 138.752 64.342C135.211 60.9204 131.509 57.6445 127.645 54.5143L125.832 53.0896C125.394 52.7334 124.941 52.3773 124.472 52.0373C124.161 51.8368 123.815 51.6993 123.452 51.6325L121.719 51.4382L119.404 51.2277C114.401 50.8068 109.382 50.5801 104.363 50.5801C99.3441 50.5801 94.3088 50.8068 89.3221 51.2277L86.9907 51.4382L85.2583 51.6325C84.8951 51.6993 84.5485 51.8368 84.2383 52.0373C83.7688 52.3773 83.3155 52.7334 82.8621 53.0896L81.065 54.5143C77.2117 57.6445 73.5095 60.9204 69.9584 64.342C66.4073 67.7635 63.018 71.3362 59.7907 75.06C59.2888 75.6267 58.8032 76.2258 58.3175 76.7924C57.8317 77.3591 57.5726 77.6667 57.2326 78.1201C57.0209 78.414 56.8772 78.7513 56.8118 79.1076C56.8118 79.6581 56.666 80.2086 56.6013 80.7267C56.5365 81.2448 56.4555 82.2162 56.3746 82.961C55.9374 87.8181 55.7269 92.6753 55.7107 97.5324C55.6945 102.39 55.9374 107.247 56.3746 112.104C56.3746 112.849 56.5203 113.61 56.6013 114.354C56.6822 115.099 56.7308 115.471 56.8118 115.973C56.8772 116.33 57.0209 116.667 57.2326 116.961C57.5726 117.398 57.9451 117.835 58.3175 118.272C58.6898 118.71 59.2888 119.438 59.7907 120.021C63.0288 123.723 66.4181 127.296 69.9584 130.739C73.5203 134.171 77.2117 137.426 81.065 140.55L82.8621 141.991L84.2383 143.028C84.5448 143.235 84.8929 143.373 85.2583 143.432L86.9907 143.627L89.3221 143.853C94.3088 144.258 99.3441 144.485 104.363 144.485C109.382 144.485 114.401 144.258 119.404 143.853L121.719 143.627C122.302 143.627 122.885 143.513 123.452 143.432C123.817 143.373 124.165 143.235 124.472 143.028C124.941 142.688 125.394 142.348 125.832 141.991L127.645 140.55C131.498 137.426 135.19 134.171 138.752 130.739C142.314 127.307 145.697 123.729 148.919 120.021L150.409 118.272C150.787 117.841 151.143 117.403 151.477 116.961C151.694 116.668 151.844 116.331 151.914 115.973L152.109 114.354C152.19 113.61 152.271 112.849 152.335 112.104C152.767 107.279 152.988 102.422 152.999 97.5324C153.01 92.6429 152.789 87.7857 152.335 82.961M145.001 109.805C145.001 110.436 144.888 111.084 144.823 111.715C144.758 112.347 144.694 112.654 144.645 113.124C144.587 113.427 144.466 113.714 144.289 113.966L143.366 115.083L142.119 116.556C139.367 119.794 136.501 122.741 133.49 125.639C130.478 128.537 127.337 131.322 124.083 133.961L122.464 135.175C122.092 135.483 121.703 135.774 121.314 136.05C121.049 136.224 120.752 136.345 120.44 136.406L118.983 136.568L117.008 136.746C112.766 137.102 108.508 137.296 104.266 137.296C100.024 137.296 95.7498 137.102 91.5079 136.746L89.5326 136.568L88.0755 136.406C87.7636 136.345 87.4665 136.224 87.2012 136.05C86.8126 135.774 86.4403 135.483 86.0517 135.175L84.5298 133.961C81.2917 131.327 78.1508 128.553 75.107 125.639C72.1117 122.741 69.2298 119.713 66.4936 116.556L65.2307 115.083L64.3241 113.966C64.1406 113.717 64.0186 113.429 63.9679 113.124C63.9679 112.654 63.8384 112.185 63.7898 111.715L63.5955 109.805C63.2231 105.725 63.045 101.612 63.0288 97.5C63.0126 93.3876 63.2231 89.2915 63.5955 85.1953L63.7898 83.301C63.7898 82.8153 63.887 82.3458 63.9679 81.8763C64.0216 81.5773 64.1434 81.2947 64.3241 81.0505C64.6155 80.662 64.9231 80.2896 65.2307 79.9334L66.4936 78.4601C69.2298 75.222 72.1117 72.2753 75.107 69.3611C78.1022 66.4468 81.2593 63.6944 84.5298 61.0391L86.0517 59.8249L87.2012 58.9505C87.4665 58.7757 87.7636 58.6548 88.0755 58.5944L89.5326 58.4325L91.5079 58.2543C95.7498 57.8981 100.002 57.7147 104.266 57.7039C108.508 57.7039 112.766 57.8981 117.008 58.2543L118.983 58.4325L120.44 58.5944C120.752 58.6548 121.049 58.7757 121.314 58.9505L122.464 59.8249L124.083 61.0391C127.321 63.6944 130.457 66.4684 133.49 69.3611C136.501 72.2753 139.367 75.303 142.119 78.4601L143.366 79.9334L144.289 81.0505C144.463 81.2983 144.584 81.5794 144.645 81.8763C144.645 82.3458 144.758 82.8153 144.823 83.301C144.888 83.7867 144.953 84.5639 145.001 85.1953C145.373 89.2915 145.568 93.4038 145.568 97.5C145.568 101.596 145.373 105.725 145.001 109.805Z" fill="#FF0000"/>
<path d="M140.046 97.5487C139.657 97.5487 136.063 97.5487 134.152 97.5487H128.55C128.55 97.743 128.55 97.8402 128.55 98.0668C128.55 98.2935 128.55 98.844 128.55 99.6859C128.55 101.014 128.437 102.924 128.55 104.219C128.55 104.478 128.55 104.559 128.55 104.689H133.067C133.061 104.824 133.061 104.959 133.067 105.093C133.067 105.288 132.841 108.105 132.695 108.914C132.26 109.572 131.767 110.19 131.222 110.76C130.331 111.748 130.186 111.991 127.433 114.759C124.681 117.528 119.176 122.353 117.249 123.955C116.845 124.279 116.019 125.008 116.019 125.008C116.019 125.008 116.019 124.02 116.019 123.534C116.019 104.98 116.019 91.8173 116.019 71.3526C116.019 70.8993 116.019 70.5107 116.019 69.944L117.071 70.7859C119.905 73.1982 122.9 75.643 125.28 78.0716C128.518 81.3097 129.959 82.8316 132.323 85.6326C132.485 85.8251 132.632 86.0309 132.76 86.2478C132.76 86.5069 132.76 86.5554 132.857 86.8792C132.954 87.6725 133.1 89.2754 133.132 89.7125C133.165 90.1497 133.132 90.0849 133.132 90.3278C133.391 90.3278 133.553 90.3278 133.796 90.3278C135.221 90.3278 136.905 90.3278 138.524 90.3278H140.628V89.6316C140.583 87.8773 140.448 86.1264 140.224 84.3859C140.2 84.0222 140.157 83.6601 140.094 83.3012C139.933 83.0811 139.761 82.8702 139.576 82.6697C136.851 79.3583 133.943 76.2016 130.866 73.2144C127.391 69.7064 123.663 66.4595 119.71 63.5002L119.176 63.1116C118.998 63.0969 118.82 63.0969 118.642 63.1116C115.582 62.7554 111.809 62.5288 108.069 62.4316C107.568 62.4316 107.438 62.4316 106.888 62.4316C106.913 62.7928 106.913 63.1552 106.888 63.5164C106.888 88.7897 106.807 106.777 106.888 131.856V132.617C107.163 132.633 107.438 132.633 107.713 132.617C110.692 132.617 116.505 132.293 117.978 132.051C118.413 131.998 118.846 131.923 119.273 131.824C119.529 131.678 119.768 131.504 119.986 131.306C123.936 128.181 126.85 125.639 130.59 122.093C134.589 118.272 138.2 114.128 139.074 113.156C139.43 112.752 139.673 112.444 140.11 111.877C140.156 111.42 140.167 110.96 140.143 110.501C140.572 106.484 140.799 102.447 140.823 98.4069C140.823 98.1316 140.823 98.0182 140.823 97.7106H140.11" fill="#FF0000"/>
<path d="M101.383 62.3668C100.768 62.3668 99.6346 62.3668 97.5622 62.4802C95.4898 62.5935 94.1136 62.7392 93.5955 62.7878C93.0774 62.8364 93.126 62.7878 92.9155 62.7878C92.8445 62.9229 92.7849 63.0636 92.7374 63.2087C89.4993 71.1258 85.4841 82.1192 82.0841 90.2954C81.9222 90.6354 81.566 91.5096 81.566 91.5096C81.566 91.5096 81.4203 91.2505 81.0155 90.4248C79.2507 86.8467 75.2841 79.3182 74.6365 78.2497C74.4422 77.942 74.1184 77.2459 74.1184 77.2459C74.1184 77.2459 73.6165 77.7963 73.2927 78.0877C72.5965 78.7191 70.0546 81.6496 69.5203 82.3296C69.2613 82.6696 69.1803 82.7668 68.8889 83.1877C68.5974 83.6087 68.7432 83.9486 68.6461 84.4667C68.1934 88.3148 67.9502 92.1847 67.9175 96.0592C67.9175 100.916 68.2251 105.385 68.6784 110.274C68.6784 110.55 68.8079 111.586 68.8079 111.586C68.8079 111.586 69.3584 112.347 69.4717 112.476C71.9327 115.358 73.7137 117.431 75.3975 119.147L76.8545 120.636C76.8545 120.636 76.8545 119.6 76.7574 119.017C76.6603 118.434 76.7574 117.949 76.6603 117.398C76.3203 112.136 75.6727 103.248 75.4784 98.6334C75.4784 98.0343 75.5593 95.2819 75.5593 95.2819L82.6183 109.53L83.3793 107.716C86.2127 100.592 88.9165 94.1973 91.6851 87.0735C91.8793 86.6201 92.8831 83.9325 92.8831 83.9325C92.8831 83.9325 92.8831 86.8306 92.8831 87.462C92.7374 107.473 92.8831 118.92 92.8831 129.897V130.917C92.8831 131.484 92.8831 131.549 92.8831 131.921L93.9517 132.083C94.8679 132.238 95.7923 132.341 96.7203 132.391C98.3393 132.488 99.9583 132.536 101.351 132.569H102.063C102.063 132.245 102.063 132.099 102.063 131.791C101.95 106.178 102.241 63.0468 102.241 63.0468C102.241 63.0468 102.241 62.804 102.241 62.383H101.432" fill="#FF0000"/>
</g>
<defs>
<clipPath id="clip0_2206_754">
<rect width="97.2884" height="93.9046" fill="white" transform="translate(55.7114 50.5476)"/>
</clipPath>
</defs>
</svg>
