<svg width="207" height="197" viewBox="0 0 207 197" fill="none" xmlns="http://www.w3.org/2000/svg">
<rect x="0.689453" y="-0.000244141" width="205.4" height="197" rx="3" fill="#F7F7F7"/>
<g clip-path="url(#clip0_2206_757)">
<path d="M98.8176 60.6611C99.3058 60.885 99.8155 60.9962 100.403 60.9196C100.188 61.4193 99.9932 61.8742 99.7953 62.3378C99.1931 61.6807 97.6031 61.415 96.8449 61.8396C96.6817 61.9305 96.4752 62.0273 96.52 62.2613C96.5619 62.4837 96.7684 62.5328 96.9633 62.5486C97.5121 62.592 98.0609 62.6165 98.6097 62.6656C98.9187 62.6931 99.2249 62.7465 99.531 62.7985C100.19 62.9111 100.519 63.3516 100.642 63.9654C100.763 64.5733 100.513 65.0499 100.028 65.3965C98.8263 66.2572 97.4876 66.0767 96.1474 65.889C95.7777 65.837 95.4398 65.5713 94.9502 65.7965C95.174 65.1943 95.3603 64.6903 95.5524 64.1748C96.2716 64.9416 97.6883 65.2564 98.6646 64.8954C98.9288 64.7972 99.1772 64.6687 99.1772 64.3683C99.1772 64.0433 98.8913 63.9394 98.6256 63.9076C98.2226 63.8585 97.814 63.8354 97.4081 63.8339C96.8955 63.8325 96.4045 63.7516 95.9467 63.5234C95.4802 63.2909 95.0917 62.992 95.0859 62.3941C95.0802 61.7717 95.3892 61.3485 95.9062 61.0641C96.1922 60.9052 96.5012 60.794 96.7987 60.6611C97.4717 60.6611 98.1447 60.6611 98.8176 60.6611Z" fill="#030303"/>
<path d="M177 125.066C176.772 125.098 176.815 125.317 176.754 125.449C175.969 127.185 174.031 128.221 172.217 127.863C170.235 127.472 168.814 125.85 168.762 123.919C168.708 121.91 169.989 120.189 171.89 119.718C173.824 119.239 175.794 120.137 176.676 121.887C176.776 122.085 176.751 122.357 177 122.474V125.067V125.066ZM169.495 123.737C169.489 125.628 171.014 127.176 172.897 127.19C174.769 127.205 176.385 125.638 176.392 123.805C176.399 121.886 174.837 120.312 172.93 120.318C171.028 120.322 169.5 121.844 169.495 123.739V123.737Z" fill="#030303"/>
<path d="M106.175 60.6611C105.987 61.0135 106.033 61.3977 106.032 61.7731C106.029 63.1249 106.032 64.4751 106.032 65.8442H104.404C104.557 64.6658 104.463 63.5018 104.474 62.3436C104.479 61.7804 104.596 61.1969 104.299 60.6611H106.173H106.175Z" fill="#030303"/>
<path d="M115.287 136.13C111.701 136.466 108.049 136.652 104.391 136.655C101.459 136.658 98.5244 136.674 95.5942 136.569C92.8157 136.469 90.0357 136.296 87.2701 136.023C80.1663 135.321 73.129 134.212 66.2043 132.44C59.8774 130.821 53.7152 128.741 47.8736 125.801C43.1758 123.437 38.7957 120.596 35.1709 116.73C32.4515 113.83 30.3676 110.542 29.5849 106.592C28.4715 100.982 30.0384 96.0154 33.4855 91.5732C36.8461 87.2436 41.2118 84.1373 45.9645 81.5306C51.6501 78.4126 57.6982 76.1944 63.9384 74.4889C66.4339 73.8072 68.9482 73.1675 71.4855 72.6736C73.6287 72.2562 75.7617 71.7811 77.9438 71.5298C80.2024 71.2699 82.438 70.8005 84.7068 70.5911C86.9437 70.3846 89.1721 70.09 91.4177 69.986C93.0352 69.9109 94.6497 69.7896 96.2672 69.7261C100.278 69.5686 104.291 69.573 108.301 69.7261C109.741 69.7809 111.207 69.7073 112.612 69.9586C114.643 70.3225 116.706 70.1593 118.73 70.555C119.909 70.7846 121.144 70.7196 122.341 70.8742C128.131 71.6266 133.869 72.6591 139.512 74.1755C146.038 75.9301 152.38 78.1628 158.341 81.3847C162.549 83.6592 166.453 86.3483 169.691 89.9081C172.212 92.6823 174.178 95.7959 174.907 99.5189C175.275 101.396 175.553 103.318 175.245 105.258C174.471 110.135 172.069 114.134 168.602 117.554C164.654 121.447 159.988 124.279 155.002 126.611C150.414 128.759 145.649 130.418 140.76 131.768C135.09 133.335 129.346 134.485 123.527 135.286C121.235 135.603 118.938 135.881 116.627 136.043C116.198 136.073 115.791 136.294 115.285 136.128L115.287 136.13ZM106.082 134.285C106.724 134.313 107.513 134.17 108.297 134.167C111.415 134.157 114.51 133.857 117.612 133.597C120.522 133.353 123.41 132.955 126.287 132.513C130.768 131.825 135.183 130.795 139.559 129.586C141.908 128.938 144.222 128.203 146.529 127.427C149.45 126.447 152.284 125.278 155.027 123.879C156.282 123.238 157.587 122.683 158.789 121.955C160.76 120.76 162.684 119.487 164.466 118.011C166.802 116.078 168.905 113.939 170.462 111.316C171.334 109.848 172.055 108.33 172.465 106.631C172.76 105.408 172.942 104.179 172.914 102.969C172.881 101.493 172.646 100.024 172.147 98.5759C171.495 96.6768 170.497 94.9857 169.383 93.3784C168.304 91.8187 166.997 90.4179 165.535 89.1687C163.696 87.5989 161.826 86.0739 159.739 84.8536C157.515 83.5538 155.232 82.3581 152.882 81.2879C150.689 80.29 148.444 79.4163 146.183 78.6105C144.189 77.9 142.157 77.2674 140.097 76.736C136.841 75.8955 133.573 75.1301 130.278 74.4499C127.035 73.7798 123.742 73.6152 120.474 73.2021C118.224 72.9176 115.96 72.753 113.695 72.5811C110.595 72.3472 107.493 72.1739 104.388 72.0454C100.572 71.8865 96.7698 72.3717 92.9543 72.3154C92.8821 72.3154 92.8085 72.3111 92.7377 72.3226C90.7087 72.6577 88.6464 72.6317 86.6101 72.8974C85.1674 73.0852 83.7002 73.1371 82.2748 73.4072C80.4985 73.7422 78.6875 73.7293 76.9069 74.1351C75.7703 74.395 74.5327 74.4354 73.3904 74.7142C71.2371 75.2398 69.0579 75.6341 66.909 76.167C65.2699 76.5728 63.6698 77.1158 62.0509 77.5909C59.8572 78.235 57.6895 78.9672 55.5739 79.7947C53.0278 80.7912 50.4717 81.7948 48.0643 83.1321C46.2547 84.1373 44.4582 85.1583 42.744 86.3208C40.211 88.0394 37.935 90.0424 35.9594 92.3819C34.3881 94.2434 33.1014 96.297 32.401 98.6178C31.7367 100.819 31.315 103.059 31.8248 105.436C32.1483 106.945 32.6234 108.373 33.2502 109.745C34.2394 111.911 35.6908 113.786 37.3588 115.48C38.6542 116.794 40.0478 117.997 41.5338 119.099C43.7304 120.728 46.0381 122.186 48.4831 123.394C50.6175 124.448 52.7505 125.512 54.9717 126.396C56.9877 127.199 59.0167 127.993 61.0862 128.597C64.3818 129.56 67.6744 130.57 71.0508 131.238C75.0598 132.033 79.0702 132.773 83.1485 133.186C85.7364 133.448 88.3301 133.715 90.9195 133.959C93.4684 134.199 96.0405 134.225 98.6038 134.277C101.044 134.326 103.488 134.287 106.08 134.287L106.082 134.285Z" fill="#C7A256"/>
<path d="M39.1166 81.4164C38.9274 81.88 38.7671 82.2743 38.575 82.7465C38.0782 82.0114 37.6204 82.0851 37.0269 82.6396C36.312 83.3083 35.4297 83.6953 34.4 83.5003C32.3464 83.1104 31.4785 80.9124 32.7623 79.2618C33.4425 78.3866 34.3408 77.8003 35.5062 77.7699C37.1265 77.7266 38.3729 79.0581 38.1837 80.6236C38.0855 81.4294 38.1837 81.5219 39.118 81.4164H39.1166ZM35.0036 81.6128C35.3517 80.963 35.7763 80.6987 36.351 80.7435C36.6774 80.7695 36.7944 80.7102 36.7222 80.3636C36.5864 79.7152 35.9539 79.139 35.3228 79.1217C34.6397 79.1043 33.8267 79.7181 33.6591 80.3766C33.5219 80.9153 33.9104 81.7038 34.4635 82.01C35.0484 82.3335 35.7055 82.1804 36.2052 81.6042C35.8586 81.3327 35.4845 81.519 35.0051 81.6114L35.0036 81.6128Z" fill="#030303"/>
<path d="M115.987 66.4175C116.013 66.4146 115.941 66.4377 115.873 66.4276C115.232 66.3366 114.576 66.6341 114.143 65.6477C113.702 64.6426 112.756 63.857 111.93 62.8533C111.845 64.0519 111.668 65.0903 111.841 66.2182C111.36 66.1965 110.808 66.1705 110.408 66.1517C110.505 64.3841 110.677 62.6583 110.606 60.8777C111.146 60.9037 111.763 60.9311 112.378 60.9658C112.483 60.9716 112.645 60.9022 112.673 61.0741C112.882 62.3449 114.075 62.8908 114.712 63.8772C114.764 62.9674 115.014 62.0893 114.741 61.1521C115.256 61.0611 115.805 61.2026 116.269 61.2098C116.071 62.9486 116.01 64.6686 115.983 66.416L115.987 66.4175Z" fill="#030303"/>
<path d="M134.417 67.7201C134.333 68.2414 134.252 68.7541 134.171 69.2552C132.532 68.6775 130.813 68.6169 129.212 68.2342C129.704 66.5705 129.925 64.8621 130.156 63.1002C131.728 63.2259 133.384 63.8035 135.149 63.8136C135.058 64.2729 134.952 64.8043 134.844 65.3473C133.846 64.865 132.76 64.8982 131.739 64.6397C131.489 64.5761 131.446 64.7119 131.437 64.8996C131.429 65.0859 131.374 65.33 131.65 65.3473C132.276 65.3878 132.884 65.7055 133.588 65.4629C133.505 65.9784 133.427 66.468 133.338 67.0225C132.759 66.6153 132.105 66.6514 131.499 66.4954C131.108 66.3943 131.182 66.7149 131.092 66.9157C130.964 67.2045 131.069 67.3143 131.341 67.346C132.35 67.4644 133.336 67.7793 134.414 67.7186L134.417 67.7201Z" fill="#030303"/>
<path d="M150.141 73.4432C150.535 73.1154 150.928 72.7876 151.348 72.4381C151.488 73.2598 152.076 73.579 152.694 73.7523C153.394 73.9501 154.064 73.8129 154.561 73.0461C153.793 73.0461 153.091 73.1544 152.431 72.7905C151.557 72.3081 151.072 71.3781 151.329 70.5289C151.569 69.739 152.327 69.3101 153.344 69.3895C154.853 69.5079 156.083 70.5131 156.229 71.7493C156.392 73.127 155.542 74.4484 154.173 74.8224C153.056 75.1271 152.048 74.7979 151.144 74.1104C150.848 73.8852 150.626 73.5299 150.144 73.4447L150.141 73.4432ZM153.958 72.1825C154.41 72.1984 154.7 71.9904 154.742 71.5384C154.784 71.0907 154.014 70.5752 153.341 70.5622C152.905 70.5535 152.661 70.7658 152.642 71.1904C152.622 71.6395 153.341 72.1681 153.958 72.1825Z" fill="#030303"/>
<path d="M43.5141 72.6057C44.187 72.2808 44.7604 72.0035 45.455 71.667C45.2817 72.0439 45.4232 72.2735 45.5417 72.5147C45.8276 73.0938 46.0875 73.6859 46.385 74.2592C46.8399 75.1387 47.1259 76.0688 46.3663 76.8645C45.4666 77.8061 44.3733 78.4617 42.9682 78.1585C42.3385 78.0227 41.9197 77.5981 41.641 77.0364C41.3117 76.372 40.9955 75.7005 40.6792 75.029C40.5492 74.7517 40.4423 74.4614 39.9629 74.3459C40.6633 73.9964 41.2265 73.7148 41.7594 73.4476C42.0006 74.6492 42.5811 75.6456 43.2556 76.5829C43.5429 76.9844 44.0152 76.7721 44.3907 76.6334C44.7734 76.4919 45.1474 76.2984 45.2138 75.8204C45.2947 75.2398 44.1379 72.9436 43.5141 72.6057Z" fill="#030303"/>
<path d="M126.339 62.5761C125.964 63.1523 125.643 63.6433 125.314 64.1502C124.654 63.2621 123.127 62.966 122.245 63.5192C121.709 63.8542 121.531 64.6182 121.835 65.1655C122.349 66.0912 124.475 66.3584 125.172 65.3994C125.439 65.9785 125.698 66.536 125.981 67.1512C125.624 67.092 125.36 67.1786 125.084 67.2321C123.526 67.5353 122.021 67.518 120.799 66.2847C120.038 65.5164 119.931 64.5936 120.277 63.6231C120.627 62.6339 121.373 62.0808 122.415 61.9421C123.419 61.8093 124.374 62.01 125.296 62.3884C125.595 62.5111 125.888 62.6454 126.339 62.5761Z" fill="#030303"/>
<path d="M165.594 81.4194C166.261 80.4373 167.355 80.3882 168.478 80.4604C169.004 80.4937 169.525 80.602 170.051 80.6424C170.283 80.6597 170.555 80.6323 170.652 80.355C170.751 80.0691 170.618 79.8582 170.389 79.6734C169.797 79.1983 169.005 79.1145 168.314 79.4986V77.64C168.589 77.8335 168.854 77.926 169.161 77.9534C170.177 78.0415 171.066 78.4242 171.691 79.2734C172.12 79.8553 172.269 80.4951 171.904 81.158C171.544 81.8107 170.925 81.9667 170.236 81.8887C169.606 81.8165 168.981 81.7096 168.324 81.6938C169.088 82.231 169.664 83.0253 170.721 83.2289C170.376 83.6881 170.041 84.1358 169.769 84.4969C168.474 83.3083 167.076 82.3711 165.593 81.4194H165.594Z" fill="#030303"/>
<path d="M163.298 78.2494C163.035 78.7318 162.773 79.2098 162.552 79.6141C161.097 78.6769 159.567 77.9332 157.993 77.1706C158.53 76.0543 159.678 75.9085 160.828 75.7958C161.305 75.7496 161.788 75.7915 162.268 75.7684C162.512 75.7568 162.77 75.6702 162.835 75.4044C162.906 75.1084 162.717 74.925 162.464 74.7777C161.765 74.3719 161.05 74.4036 160.461 74.9077C160.223 74.343 160.263 73.7393 160.122 73.1313C160.896 73.3278 161.673 73.0909 162.412 73.4317C162.916 73.6642 163.436 73.8549 163.804 74.2838C164.235 74.7849 164.434 75.3553 164.189 76.0153C163.95 76.6536 163.433 76.8919 162.811 77.0205C162.116 77.1634 161.43 76.8659 160.704 77.0811C161.528 77.4811 162.197 78.2047 163.298 78.248V78.2494Z" fill="#030303"/>
<path d="M56.6253 72.8627C56.3206 72.9841 56.0823 73.0981 55.8325 73.1732C55.353 73.3162 54.784 73.8477 54.5486 72.8599C54.4706 72.5335 54.1573 72.5292 53.9074 72.7039C53.3298 73.1054 52.3983 72.8411 52.0575 73.6657C51.9347 73.9618 52.1889 74.1813 52.3925 74.4455C51.8062 74.6419 51.2718 74.821 50.7563 74.9943C50.8083 73.1963 50.9065 71.4388 50.7043 69.6885C50.6653 69.352 50.8603 69.3896 50.9816 69.3433C51.6488 69.0834 52.3261 68.8509 53.0019 68.6083C53.0756 69.0747 55.6953 72.1724 56.6253 72.8627ZM53.6099 71.7955C53.0857 71.2092 52.6192 70.6893 52.0473 70.0495C52.0473 70.425 52.0473 70.633 52.0473 70.8409C52.0454 71.8952 52.5663 72.2129 53.6099 71.7941V71.7955Z" fill="#030303"/>
<path d="M73.3652 63.0079C75.221 62.8981 76.9771 62.5486 78.7895 62.1428C78.8646 62.579 78.9628 63.1378 79.0581 63.6866C78.8675 63.8874 78.7591 63.6433 78.6104 63.6346C77.2933 63.5552 77.0695 63.7964 77.2847 65.0759C77.3959 65.7359 77.4926 66.3987 77.5879 67.0616C77.6212 67.2869 77.598 67.531 78.0631 67.7057C77.2168 67.8313 76.59 67.9238 75.9719 68.0162C76.1496 67.0255 75.8203 66.1373 75.7105 65.2348C75.5705 64.078 75.1343 63.8614 74.0397 64.335C73.8952 64.3971 73.7797 64.5271 73.6107 64.6542C73.5212 64.0505 73.4374 63.4917 73.3667 63.0079H73.3652Z" fill="#030303"/>
<path d="M87.8542 61.2719C87.3329 62.1991 86.8606 63.0511 86.3768 63.896C85.8295 64.852 86.2151 65.7502 86.4519 66.6861C85.8988 66.7987 85.2634 66.8781 84.6222 66.8767C84.7247 65.8499 84.8172 64.8722 83.9608 64.0563C83.2762 63.4049 82.6899 62.6525 82.0068 61.8857C82.6538 61.8048 83.2806 61.7326 83.9073 61.6474C84.1962 61.6084 84.0676 61.7658 84.124 61.9218C84.3204 62.459 84.7969 62.8302 85.2287 63.3703C85.4627 62.7175 86.0779 62.3319 86.0144 61.6142C85.9913 61.3485 86.1689 61.4308 86.2801 61.4192C86.7783 61.3644 87.2794 61.3225 87.8542 61.269V61.2719Z" fill="#030303"/>
<path d="M64.5866 68.965C64.7541 69.5384 64.9014 70.038 65.0329 70.4872C63.2363 70.6778 61.5654 71.4201 59.9047 71.719C59.5942 69.9846 59.1941 68.305 58.5674 66.6342C59.0584 66.5157 59.6548 66.3728 60.2657 66.2255C60.1285 66.9764 60.465 67.5989 60.6397 68.2429C60.8 68.835 60.7538 69.664 61.2232 69.9499C61.6997 70.2402 62.3886 69.7521 62.9807 69.599C63.5165 69.4604 64.1129 69.4575 64.5881 68.9665L64.5866 68.965Z" fill="#030303"/>
<path d="M146.875 67.014C146.426 67.5989 145.335 71.3898 145.42 72.1133C144.783 71.9328 144.173 71.7595 143.535 71.5775C143.668 71.4172 143.823 71.3075 143.867 71.1631C144.16 70.2316 144.429 69.2929 144.706 68.3542C144.377 68.1433 144.108 68.3975 143.807 68.4235C143.746 68.0913 143.89 67.8097 143.976 67.5267C144.052 67.2754 143.922 66.7353 144.566 67.1613C144.903 67.3852 145.22 67.0559 144.953 66.4753C145.644 66.6689 146.25 66.8378 146.874 67.0126L146.875 67.014Z" fill="#030303"/>
<path d="M67.6289 64.3192C68.1127 64.2138 68.7106 64.0852 69.2853 63.9596C69.4182 65.7388 69.9424 67.3967 70.3352 69.147C69.8688 69.2452 69.2377 69.3766 68.6831 69.4921C68.5849 67.6898 68.0304 66.0464 67.6289 64.3177V64.3192Z" fill="#030303"/>
<path d="M174.979 125.911C174.196 126.093 173.625 126.026 173.329 125.157C173.196 124.767 173.158 124.002 172.567 124.139C172.095 124.249 172.378 124.922 172.373 125.333C172.369 125.805 172.287 126.013 171.751 125.993C171.321 125.977 171.18 125.892 171.193 125.436C171.23 124.264 171.231 123.089 171.191 121.918C171.173 121.418 171.357 121.315 171.804 121.341C172.496 121.38 173.194 121.301 173.881 121.447C174.411 121.558 174.843 121.811 174.96 122.365C175.081 122.943 174.96 123.485 174.378 123.772C174.04 123.938 174.07 124.103 174.22 124.379C174.489 124.877 174.726 125.392 174.98 125.911H174.979ZM172.36 122.874C172.251 123.233 172.379 123.463 172.902 123.408C173.352 123.36 173.835 123.346 173.813 122.747C173.791 122.169 173.3 122.159 172.86 122.098C172.246 122.014 172.355 122.426 172.362 122.875L172.36 122.874Z" fill="#030303"/>
<path d="M171.256 102.801C171.241 106.071 170.479 108.783 168.74 111.227C167.117 113.508 165.174 115.441 162.984 117.182C161.043 118.726 158.972 120.036 156.82 121.242C154.365 122.618 151.842 123.851 149.183 124.787C147.707 125.307 146.221 125.795 144.734 126.279C144.189 126.457 143.75 126.826 143.183 126.985C141.383 127.488 139.594 128.029 137.79 128.526C135.184 129.242 132.548 129.832 129.894 130.313C127.667 130.717 125.446 131.167 123.167 131.295C121.336 131.397 119.52 131.748 117.694 131.953C116.459 132.092 115.217 132.181 113.976 132.266C111.465 132.438 108.946 132.477 106.435 132.603C104.007 132.726 101.581 132.759 99.1651 132.658C97.1245 132.573 95.0854 132.639 93.0491 132.545C91.6165 132.479 90.1608 132.49 88.7643 132.217C87.2739 131.926 85.7764 131.965 84.2961 131.783C83.395 131.673 82.4866 131.348 81.5768 131.338C79.6315 131.315 77.757 130.85 75.8695 130.518C72.9884 130.011 70.1275 129.362 67.2912 128.647C64.5661 127.96 61.8193 127.274 59.1938 126.289C56.2521 125.187 53.2772 124.143 50.4856 122.644C48.6645 121.666 46.7727 120.811 45.0874 119.607C44.1357 118.927 43.0814 118.368 42.2048 117.626C40.3852 116.088 38.5396 114.565 37.029 112.675C36.2708 111.726 35.6426 110.692 34.9046 109.735C34.3804 109.055 34.2201 108.084 33.9313 107.231C33.1356 104.88 33.0186 102.435 33.6771 100.094C34.2201 98.1642 35.1588 96.3388 36.3661 94.6679C38.3331 91.9472 40.8372 89.7954 43.532 87.8833C46.104 86.0593 48.8884 84.569 51.755 83.223C54.3819 81.9897 57.0984 81.0077 59.8091 80.004C61.3514 79.4321 62.9082 78.8559 64.504 78.4833C65.8745 78.1627 67.2508 77.8537 68.6169 77.5114C70.7167 76.9857 72.87 76.6955 74.9626 76.164C77.9808 75.3957 81.0583 75 84.1329 74.6968C86.4363 74.47 88.7311 74.1162 91.0562 74.0382C93.3524 73.9617 95.6529 73.8693 97.9462 73.735C100.253 73.6006 102.556 73.6093 104.856 73.6541C107.824 73.7118 110.789 73.8981 113.752 74.0642C116.325 74.2086 118.875 74.561 121.432 74.8686C125.154 75.3149 128.837 75.9546 132.506 76.6752C134.577 77.0811 136.631 77.5851 138.653 78.2089C139.883 78.5887 141.151 78.8473 142.373 79.2502C144.971 80.1051 147.572 80.9442 150.092 82.0331C151.789 82.7652 153.454 83.5769 155.198 84.2195C156.44 84.6773 157.58 85.4441 158.71 86.1576C160.55 87.3201 162.364 88.5245 164.013 89.96C165.719 91.4446 167.289 93.0447 168.603 94.8932C169.409 96.0269 170.189 97.2212 170.548 98.5267C170.954 100.001 171.417 101.52 171.253 102.797L171.256 102.801ZM102.52 130.84C106.561 130.792 110.879 130.642 115.194 130.295C121.066 129.823 126.888 129.026 132.649 127.801C140.188 126.198 147.533 124.007 154.423 120.478C158.403 118.439 162.117 116.028 165.128 112.666C170.505 106.662 170.48 99.6257 165.107 93.6195C162.773 91.0114 159.999 88.952 157.002 87.2176C152.502 84.6123 147.697 82.6685 142.731 81.1276C132.092 77.8248 121.164 76.2333 110.068 75.6744C103.729 75.3538 97.3902 75.4376 91.0533 75.8911C84.816 76.3373 78.6278 77.1215 72.506 78.3938C64.6513 80.0257 57.0031 82.2901 49.8473 85.9973C45.8788 88.0537 42.1832 90.4943 39.2227 93.9083C34.3342 99.5477 34.1551 105.908 38.7187 111.798C41.2661 115.087 44.6628 117.369 48.1533 119.473C49.3548 120.198 50.6661 120.833 51.9774 121.425C57.3814 123.866 62.979 125.706 68.7339 127.085C79.7441 129.723 90.932 130.789 102.517 130.843L102.52 130.84Z" fill="#C7A256"/>
<path d="M102.518 130.838C90.9314 130.785 79.7435 129.719 68.7348 127.081C62.9784 125.701 57.3823 123.862 51.9783 121.421C50.667 120.829 49.3557 120.192 48.1542 119.469C44.6636 117.364 41.267 115.083 38.7195 111.794C34.156 105.902 34.3336 99.5421 39.2235 93.9041C42.184 90.4902 45.8796 88.0495 49.8482 85.9931C57.0039 82.2859 64.6522 80.0215 72.5069 78.3896C78.6287 77.1173 84.8169 76.3331 91.0542 75.8869C97.3897 75.4334 103.729 75.3511 110.069 75.6703C121.163 76.2306 132.093 77.8206 142.732 81.1234C147.697 82.6657 152.501 84.6096 157.003 87.2134C159.999 88.9478 162.774 91.0072 165.107 93.6153C170.481 99.6215 170.506 106.657 165.129 112.662C162.118 116.024 158.404 118.436 154.424 120.474C147.534 124.003 140.189 126.194 132.65 127.797C126.889 129.022 121.067 129.817 115.195 130.291C110.881 130.639 106.561 130.788 102.521 130.835L102.518 130.838ZM102.303 76.9252C98.7934 76.8805 94.3035 77.0451 89.8223 77.4032C82.1264 78.0185 74.5172 79.1752 67.0422 81.132C60.6966 82.7928 54.5286 84.9331 48.8011 88.1896C45.2283 90.2215 41.9457 92.6174 39.443 95.9418C36.0579 100.44 35.9597 105.46 39.1845 110.073C40.9016 112.528 43.1458 114.443 45.6023 116.112C51.3948 120.052 57.8386 122.542 64.5179 124.475C75.375 127.618 86.4979 129.03 97.768 129.345C105.607 129.565 113.427 129.245 121.217 128.262C126.699 127.569 132.124 126.6 137.466 125.192C144.163 123.427 150.664 121.147 156.65 117.59C160.062 115.564 163.2 113.207 165.496 109.902C167.746 106.662 168.412 103.16 167.032 99.3962C166.113 96.8878 164.468 94.8573 162.53 93.0564C158.841 89.6294 154.496 87.2538 149.903 85.297C141.188 81.5841 132.036 79.529 122.691 78.251C116.257 77.3715 109.788 76.9455 102.306 76.9238L102.303 76.9252Z" fill="#030303"/>
<path d="M73.6052 98.2668C71.8303 97.4407 70.0843 96.7836 68.2358 96.4717C65.5728 96.024 62.9112 95.8998 60.4258 97.1967C57.8711 98.5296 56.736 100.755 56.8183 103.58C56.8978 106.329 58.3159 108.252 60.8316 109.276C63.1524 110.22 65.5381 110.307 67.9224 109.395C68.2647 109.265 68.4394 109.124 68.4033 108.738C68.3369 108.028 68.6979 107.104 68.256 106.666C67.9123 106.327 66.9823 106.574 66.3122 106.571C65.0803 106.566 65.0803 106.571 65.0818 105.326C65.0818 104.51 65.1006 103.692 65.0731 102.878C65.0601 102.508 65.1554 102.377 65.5454 102.38C68.2373 102.394 70.9292 102.394 73.6196 102.38C73.998 102.378 74.1121 102.489 74.1106 102.868C74.0976 105.677 74.0947 108.486 74.1164 111.293C74.1193 111.702 73.9012 111.905 73.6369 112.112C72.0845 113.318 70.2721 113.936 68.3846 114.33C64.4666 115.147 60.6309 114.934 57.0436 113.029C52.8874 110.824 50.7659 107.304 50.9594 102.593C51.1515 97.9332 53.5777 94.6694 57.8018 92.7819C61.688 91.0446 65.7345 91.1529 69.8071 91.9934C70.958 92.2302 72.0773 92.5855 73.1503 93.0736C73.3582 93.1675 73.6124 93.1935 73.611 93.53C73.6008 95.0824 73.6066 96.6349 73.6066 98.2697L73.6052 98.2668Z" fill="#030303"/>
<path d="M113.964 110.093C113.964 111.064 113.964 111.927 113.964 112.792C113.964 113.006 113.995 113.224 113.748 113.345C111.812 114.294 109.841 115.09 107.609 114.703C106.773 114.558 106.119 114.132 105.826 113.315C105.668 112.874 105.52 112.9 105.18 113.123C103.541 114.196 101.756 114.837 99.7719 114.817C98.8448 114.808 97.9711 114.568 97.1594 114.115C93.9029 112.295 94.4444 108.005 96.7623 106.444C98.1126 105.534 99.6058 104.968 101.129 104.458C102.379 104.039 103.638 103.649 104.899 103.267C105.28 103.151 105.427 102.988 105.378 102.555C105.193 100.93 104.042 100.075 102.126 100.186C99.6853 100.328 97.6663 101.389 95.9103 103.028C95.6777 102.897 95.7962 102.682 95.7933 102.513C95.7788 101.721 95.8857 100.913 95.7644 100.138C95.5608 98.8373 96.1471 98.2337 97.2851 97.7556C100.735 96.3086 104.236 95.9144 107.804 97.1419C109.854 97.8466 110.911 99.4005 110.931 101.587C110.955 104.276 110.947 106.965 110.953 109.654C110.955 111.035 111.6 111.42 112.837 110.772C113.192 110.585 113.525 110.357 113.961 110.092L113.964 110.093ZM105.342 105.99C104.38 106.259 103.53 106.624 102.691 107.02C102.081 107.307 101.503 107.65 101.059 108.169C100.468 108.858 100.371 109.848 100.806 110.58C101.245 111.321 101.922 111.586 102.91 111.422C103.712 111.287 104.4 110.923 105.033 110.432C105.208 110.297 105.349 110.167 105.346 109.913C105.336 108.623 105.342 107.333 105.342 105.99Z" fill="#030303"/>
<path d="M152.634 108.964C152.634 110.045 152.608 110.981 152.646 111.914C152.663 112.357 152.503 112.604 152.14 112.836C149.523 114.509 146.641 114.996 143.6 114.768C141.835 114.635 140.142 114.215 138.613 113.288C135.925 111.659 134.633 109.199 134.501 106.125C134.312 101.681 136.767 97.8943 141.186 96.7606C145.217 95.7266 149.222 97.0957 151.35 100.217C152.542 101.965 152.932 103.937 152.981 106.009C152.992 106.506 152.741 106.523 152.357 106.522C148.56 106.512 144.765 106.532 140.968 106.5C140.355 106.496 140.264 106.681 140.346 107.226C140.681 109.445 142.417 111.051 144.775 111.393C147.464 111.783 149.783 110.926 151.941 109.432C152.132 109.3 152.324 109.17 152.631 108.961L152.634 108.964ZM140.414 103.596C142.838 103.596 145.256 103.596 147.674 103.599C147.902 103.599 148.006 103.555 147.994 103.281C147.941 101.951 146.85 100.463 145.552 99.9912C143 99.0626 140.736 100.624 140.414 103.597V103.596Z" fill="#030303"/>
<path d="M131.702 109.609C131.702 110.868 131.695 112.044 131.706 113.22C131.709 113.491 131.647 113.643 131.361 113.744C128.06 114.903 124.727 115.286 121.352 114.106C117.609 112.796 115.515 109.793 115.438 105.71C115.369 102.05 117.594 98.6697 121.007 97.2906C124.406 95.9172 127.778 96.3677 131.136 97.4841C131.348 97.5548 131.439 97.6559 131.438 97.8884C131.428 99.1506 131.434 100.413 131.434 101.75C129.802 100.975 128.186 100.499 126.443 100.577C123.886 100.692 122.045 102.098 121.567 104.461C120.867 107.924 122.984 110.808 126.601 110.828C128.002 110.835 129.296 110.441 130.592 110.002C130.928 109.888 131.262 109.767 131.704 109.611L131.702 109.609Z" fill="#030303"/>
<path d="M84.5096 101.614C85.0786 100.732 85.5205 99.812 86.1271 98.9903C87.0123 97.7916 88.0146 96.7591 89.5887 96.4948C91.2466 96.2161 92.49 97.0696 93.7349 97.9462C93.9731 98.1137 93.8071 98.2942 93.758 98.4559C93.3421 99.8048 92.8871 101.141 92.5088 102.5C92.3716 102.995 92.2055 102.911 91.8806 102.721C91.0343 102.221 90.1837 101.737 89.1526 101.698C88.1027 101.659 87.2535 102.076 86.6397 102.865C85.3761 104.491 84.3768 106.217 84.488 108.415C84.5804 110.234 84.4923 112.061 84.5168 113.885C84.5226 114.314 84.4345 114.472 83.9724 114.463C82.4358 114.434 80.8978 114.443 79.3598 114.457C79.0276 114.46 78.9077 114.388 78.9092 114.022C78.9222 108.431 78.9222 102.84 78.9092 97.2486C78.9092 96.8486 79.0522 96.7764 79.4074 96.7807C80.8963 96.7966 82.3867 96.8082 83.8756 96.7778C84.371 96.7677 84.5342 96.8963 84.5212 97.4075C84.4865 98.8098 84.5096 100.212 84.5096 101.614Z" fill="#030303"/>
<path d="M92.0717 85.1958C94.0256 85.9049 95.9882 86.5909 97.9263 87.3404C98.4202 87.531 98.6844 87.44 99.0166 87.0732C100.371 85.5785 101.769 84.1243 103.121 82.6267C103.493 82.2136 103.697 82.1515 104.107 82.6137C105.446 84.1228 106.848 85.5727 108.203 87.0674C108.531 87.4285 108.796 87.5382 109.29 87.3476C111.056 86.6631 112.846 86.0392 114.626 85.3951C114.775 85.3417 114.943 85.1814 115.087 85.3229C115.268 85.5005 115.087 85.6753 114.999 85.8341C114.273 87.1584 113.532 88.4769 112.818 89.8084C112.628 90.1637 112.436 90.2402 112.024 90.1449C106.9 88.9477 101.755 88.8697 96.5976 89.9283C96.5269 89.9427 96.4547 89.9514 96.3853 89.9673C95.3196 90.2272 94.5234 89.8888 93.9967 88.9521C93.318 87.7433 92.6407 86.536 91.9619 85.3272C91.998 85.2825 92.0341 85.2391 92.0717 85.1944V85.1958Z" fill="#FD1713"/>
<path d="M103.579 90.3212C106.291 90.376 108.939 90.6374 111.551 91.1963C111.768 91.2425 112.227 91.1891 112.048 91.5761C111.889 91.9184 112.01 92.6174 111.193 92.434C108.297 91.7826 105.359 91.5675 102.394 91.6556C100.277 91.7191 98.1725 91.9271 96.1174 92.4354C95.3462 92.626 95.378 92.0599 95.2408 91.7133C95.0545 91.2454 95.5571 91.3263 95.7737 91.2714C98.3472 90.6288 100.973 90.3833 103.578 90.3212H103.579Z" fill="#FD1713"/>
<path d="M104.783 80.5673C104.771 81.1782 104.286 81.6721 103.698 81.6721C103.085 81.6721 102.556 81.1363 102.568 80.5255C102.578 79.9406 103.09 79.425 103.667 79.4192C104.292 79.4135 104.796 79.9305 104.784 80.5673H104.783Z" fill="#FD1713"/>
<path d="M90.9388 85.0789C90.3929 85.0717 89.9755 84.6486 90.0131 84.1142C90.0535 83.5467 90.3929 83.2535 90.946 83.2304C91.4558 83.2088 91.9468 83.7027 91.8833 84.1937C91.8139 84.7222 91.5179 85.0659 90.9388 85.0789Z" fill="#FD1713"/>
<path d="M116.402 83.6491C116.966 83.6361 117.358 84.0131 117.344 84.5777C117.33 85.1424 117.021 85.4558 116.456 85.4832C115.897 85.5121 115.519 85.1251 115.522 84.5575C115.524 84.0203 115.874 83.6607 116.402 83.6491Z" fill="#FD1713"/>
</g>
<defs>
<clipPath id="clip0_2206_757">
<rect width="147.77" height="75.9956" fill="white" transform="translate(29.2305 60.6611)"/>
</clipPath>
</defs>
</svg>
