<svg width="16" height="16" viewBox="0 0 16 16" fill="none" xmlns="http://www.w3.org/2000/svg">
<rect width="16" height="16" fill="#153B85"/>
<path d="M11.8969 8.65922C12.8498 8.65922 13.8036 8.65922 14.7564 8.65922C14.7905 8.65922 14.8246 8.66117 14.8587 8.65922C14.9444 8.65338 15.0019 8.66799 15 8.77711C14.998 8.92325 14.9961 8.93007 14.8714 8.95345C14.6112 9.00216 14.3404 8.99047 14.091 9.09082C13.7792 9.21552 13.5668 9.42499 13.5317 9.77475C13.5103 9.99104 13.4918 10.2083 13.4918 10.4256C13.4937 11.0851 13.4918 11.7447 13.4918 12.4053C13.4918 12.5748 13.484 12.5943 13.334 12.6449C12.8917 12.794 12.4484 12.9401 11.9953 13.057C11.5871 13.1623 11.177 13.2519 10.7629 13.322C10.4901 13.3688 10.2124 13.4019 9.93575 13.437C9.47492 13.4954 9.01312 13.5071 8.55035 13.5169C7.96482 13.5295 7.38124 13.5218 6.79766 13.4487C6.48102 13.4087 6.16634 13.361 5.85555 13.2889C5.31191 13.1632 4.79263 12.9693 4.29381 12.7238C3.58844 12.377 2.94543 11.9405 2.39303 11.3764C1.8036 10.7734 1.37785 10.0787 1.16448 9.25644C1.02711 8.71768 0.9784 8.17599 1.0086 7.62163C1.02516 7.31474 1.05147 7.00882 1.11967 6.71362C1.23171 6.22455 1.40707 5.75495 1.66038 5.31751C2.07931 4.59656 2.63464 3.99934 3.29519 3.49564C3.94307 3.00169 4.65818 2.63537 5.43369 2.39083C6.01143 2.20864 6.60475 2.1044 7.20879 2.04692C7.91026 1.97969 8.61075 2.01087 9.3093 2.06348C9.73505 2.09563 10.153 2.19403 10.5622 2.32263C10.9236 2.43662 11.287 2.54769 11.6504 2.65778C11.7868 2.6987 11.9281 2.725 12.0616 2.76884C12.4045 2.87991 12.6559 2.74059 12.878 2.50385C12.9803 2.39375 13.0446 2.25736 13.1128 2.12388C13.1635 2.02354 13.3457 1.968 13.4431 2.01964C13.4762 2.03717 13.4898 2.06835 13.4918 2.10342C13.4947 2.15116 13.4937 2.1989 13.4937 2.24567C13.4937 3.38165 13.4937 4.51764 13.4937 5.65363C13.4937 5.66727 13.4957 5.68091 13.4937 5.69455C13.4821 5.76762 13.5298 5.86699 13.408 5.89232C13.256 5.9235 13.1664 5.88648 13.1109 5.7608C12.9189 5.3331 12.6997 4.92196 12.4152 4.54687C11.895 3.86002 11.2286 3.36217 10.4385 3.0241C9.7068 2.71136 8.93908 2.59055 8.14896 2.64609C7.12988 2.71623 6.23453 3.07281 5.54963 3.86294C5.15213 4.32182 4.89103 4.85084 4.73028 5.43539C4.65623 5.70332 4.58901 5.97221 4.53153 6.24306C4.50035 6.3892 4.4721 6.53631 4.45846 6.68537C4.41364 7.19296 4.35324 7.6986 4.39513 8.21106C4.42533 8.59005 4.43313 8.97098 4.50035 9.34705C4.62895 10.0709 4.80529 10.7782 5.21059 11.4057C5.58081 11.9776 6.10398 12.3614 6.73238 12.6118C7.45626 12.9002 8.21228 12.9625 8.97805 12.9021C9.45057 12.8651 9.91724 12.7589 10.3712 12.6147C10.4365 12.5943 10.4599 12.5611 10.4589 12.4998C10.4589 12.4929 10.4589 12.4861 10.4589 12.4793C10.4492 11.6093 10.4843 10.7383 10.4365 9.86828C10.4307 9.75429 10.4063 9.63835 10.3761 9.52826C10.3488 9.42889 10.2865 9.34413 10.2027 9.28275C9.92795 9.08108 9.61911 8.96806 9.27812 8.94955C9.15634 8.94273 9.03261 8.94371 8.91083 8.94663C8.80074 8.94955 8.79781 8.8833 8.79586 8.80049C8.79392 8.70988 8.81437 8.65435 8.91765 8.66117C8.96539 8.66409 9.01312 8.66117 9.06086 8.66117C10.0069 8.66117 10.9539 8.66117 11.8999 8.66117L11.8969 8.65922Z" fill="white"/>
</svg>
