<svg width="207" height="197" viewBox="0 0 207 197" fill="none" xmlns="http://www.w3.org/2000/svg">
<rect x="0.865234" y="-0.000244141" width="205.4" height="197" rx="3" fill="#F7F7F7"/>
<g clip-path="url(#clip0_2206_755)">
<path d="M140.467 91.2114C140.467 88.2455 140.488 85.2822 140.453 82.3162C140.443 81.4526 140.718 81.1476 141.611 81.153C146.237 81.1908 150.865 81.153 155.491 81.1773C157.55 81.1881 158.7 82.3918 158.762 84.4725C158.765 84.6075 158.778 84.7424 158.762 84.8774C158.519 86.9851 159.337 89.1927 158.152 91.2087C159.197 93.1789 158.676 95.3055 158.73 97.3647C158.797 99.8854 157.558 101.057 155.03 101.059C150.628 101.062 146.226 101.032 141.824 101.081C140.769 101.092 140.418 100.771 140.443 99.7019C140.507 96.8735 140.464 94.0425 140.464 91.2114H140.467ZM149.354 89.271C150.517 89.271 151.68 89.2332 152.841 89.2845C153.669 89.3196 153.794 88.8932 153.796 88.2131C153.796 87.5033 153.591 87.1551 152.8 87.1686C150.52 87.2064 148.239 87.2037 145.962 87.1686C145.201 87.1578 144.952 87.4358 144.952 88.1807C144.952 88.9498 145.138 89.3385 146.005 89.2899C147.119 89.2278 148.239 89.2737 149.357 89.2737L149.354 89.271ZM149.354 95.516C150.563 95.516 151.772 95.4944 152.981 95.5241C153.794 95.543 153.796 95.0248 153.794 94.4581C153.794 93.8913 153.799 93.3921 152.978 93.4002C150.606 93.4299 148.231 93.4299 145.859 93.4002C145.111 93.3921 144.955 93.7564 144.963 94.3933C144.971 95.0302 144.99 95.5538 145.862 95.5241C147.025 95.4836 148.191 95.5133 149.354 95.5133V95.516Z" fill="#898989"/>
<path d="M76.4609 81.1072C73.4788 85.795 70.6639 90.2211 67.8518 94.6444C66.6967 96.4607 65.5227 98.2689 64.3973 100.104C63.9628 100.814 63.4716 101.192 62.5729 101.178C59.1158 101.13 55.6559 101.127 52.1961 101.178C51.2056 101.192 50.871 100.887 50.879 99.8774C50.9195 94.0372 50.9249 88.197 50.879 82.3568C50.871 81.3231 51.2083 81.0398 52.1961 81.0883C53.7209 81.1639 55.2538 81.1855 56.7759 81.0883C57.9067 81.0128 58.1037 81.4716 58.0929 82.4755C58.0417 86.4724 58.0686 90.472 58.0659 94.469C58.0659 95.1383 58.0659 95.8103 58.3439 96.6091C59.078 95.4891 59.8202 94.3799 60.5407 93.2518C62.9049 89.5437 65.2771 85.8382 67.6062 82.1085C68.0596 81.3798 68.5535 81.0613 69.4387 81.0883C71.676 81.1558 73.916 81.1099 76.4636 81.1099L76.4609 81.1072Z" fill="#1D4087"/>
<path d="M114.117 90.3559C115.766 91.3814 116.174 92.7578 116.114 94.3987C116.052 96.1934 116.063 97.9908 116.114 99.7882C116.141 100.684 115.901 101.059 114.924 101.084C111.553 101.162 111.556 101.197 111.556 97.8316C111.556 96.7979 111.521 95.7643 111.567 94.7333C111.602 93.9399 111.346 93.6079 110.501 93.6241C108.212 93.67 105.921 93.6727 103.63 93.6241C102.699 93.6052 102.488 94.0236 102.504 94.8413C102.537 96.5469 102.48 98.2553 102.521 99.9609C102.539 100.749 102.313 101.054 101.468 101.081C98.0109 101.2 98.0109 101.229 98.0136 97.81C98.0136 92.6904 98.0352 87.5707 98.0001 82.4511C97.9947 81.4957 98.2241 81.1287 99.2685 81.1422C103.668 81.2016 108.069 81.1557 112.471 81.1746C114.8 81.1854 116.044 82.4295 116.101 84.7397C116.114 85.2795 116.074 85.8192 116.109 86.3563C116.214 87.9971 115.737 89.3627 114.12 90.3559H114.117ZM106.855 88.5315C107.975 88.5315 109.095 88.4991 110.215 88.5423C110.992 88.572 111.108 88.151 111.057 87.533C111.011 86.9905 111.243 86.2969 110.288 86.3023C108.005 86.3158 105.719 86.3239 103.435 86.2996C102.55 86.2888 102.58 86.8529 102.556 87.4628C102.531 88.1375 102.664 88.5801 103.495 88.5423C104.612 88.4937 105.735 88.5315 106.855 88.5315Z" fill="#898989"/>
<path d="M85.9131 86.3671C84.0618 89.2683 82.2104 92.1668 80.3617 95.068C79.2768 96.7736 78.1784 98.4712 77.1205 100.193C76.7075 100.865 76.2352 101.2 75.3932 101.173C73.4177 101.108 71.4368 101.135 69.4586 101.159C68.541 101.17 68.46 100.865 68.9215 100.142C72.8132 94.0451 76.694 87.9432 80.5668 81.8358C80.9204 81.2771 81.3684 81.0936 82.0188 81.099C85.5272 81.126 89.0329 81.1395 92.5414 81.0909C93.5183 81.0774 93.7477 81.458 93.7369 82.3567C93.6965 85.7302 93.6884 89.1036 93.7369 92.4744C93.7504 93.4433 93.5183 93.8535 92.4685 93.805C90.717 93.7267 88.9601 93.7348 87.2086 93.7915C86.3476 93.8184 86.1425 93.4946 86.1587 92.693C86.2046 90.6258 86.1749 88.5585 86.1749 86.4912L85.9104 86.3671H85.9131Z" fill="#1D4087"/>
<path d="M39.102 81.1098C41.5714 81.1098 44.0435 81.1314 46.5129 81.0936C47.309 81.0828 47.6599 81.3041 47.6059 82.1543C47.5438 83.1393 47.533 84.1325 47.6059 85.1175C47.6761 86.0999 47.2524 86.3347 46.3483 86.3266C42.6212 86.2888 38.8915 86.3023 35.1645 86.3158C33.6127 86.3212 33.0432 86.78 33.054 87.927C33.0648 89.0092 33.7368 89.5139 35.2292 89.522C37.8794 89.5355 40.5297 89.4977 43.1799 89.5463C45.3038 89.584 46.8449 90.7445 47.363 92.5203C47.5951 93.3138 47.4413 93.6538 46.5183 93.6484C41.7117 93.6134 36.9052 93.6943 32.1013 93.608C28.5227 93.5405 25.9885 90.7661 26.0398 87.2037C26.0884 83.6953 28.6334 81.1746 32.2309 81.1179C34.5221 81.0828 36.8107 81.1125 39.102 81.1098Z" fill="#1D4087"/>
<path d="M175.477 84.3997C174.924 84.459 174.878 84.8774 174.711 85.1634C171.877 90.0078 169.024 94.844 166.25 99.7207C165.694 100.7 165.092 101.192 163.937 101.084C162.914 100.986 161.87 101.005 160.841 101.076C159.546 101.165 159.643 100.682 160.164 99.7963C162.72 95.4647 165.246 91.117 167.78 86.7746C168.708 85.185 169.65 83.6035 170.557 82.0031C170.87 81.4472 171.229 81.1449 171.923 81.1557C174.573 81.1935 177.223 81.1935 179.873 81.1557C180.686 81.1449 180.969 81.4094 180.961 82.2379C180.926 85.965 180.926 89.6947 180.961 93.4244C180.969 94.2638 180.661 94.5282 179.86 94.4905C178.829 94.4419 177.79 94.4257 176.762 94.4932C175.785 94.5579 175.536 94.1477 175.553 93.2355C175.598 90.5421 175.571 87.846 175.566 85.1499C175.566 84.9016 175.507 84.6507 175.474 84.3997H175.477Z" fill="#898989"/>
<path d="M36.8239 95.6941C39.9653 95.6941 43.1094 95.7238 46.2508 95.6752C47.271 95.659 47.5975 95.9559 47.4356 97.003C47.0604 99.4427 45.5059 101.038 43.0203 101.073C37.7226 101.148 32.4249 101.097 27.1271 101.127C26.304 101.132 26.0071 100.822 26.0368 100.015C26.0773 98.9839 26.0908 97.9476 26.0233 96.9193C25.9613 95.972 26.3256 95.6671 27.2567 95.6806C30.444 95.7211 33.6312 95.6968 36.8185 95.6968L36.8239 95.6941Z" fill="#0090D8"/>
<path d="M127.847 95.7454C130.678 95.7454 133.509 95.7697 136.34 95.7319C137.214 95.7184 137.578 96.0099 137.495 96.8951C137.444 97.4294 137.503 97.9746 137.479 98.5116C137.414 100.007 136.529 101.019 135.055 101.035C130.249 101.081 125.439 101.081 120.63 101.035C119.175 101.022 118.287 99.9987 118.285 98.4604C118.279 95.1489 117.969 95.8048 120.832 95.7535C123.17 95.713 125.507 95.7454 127.844 95.7454H127.847Z" fill="#898989"/>
<path d="M123.647 87.7354C123.647 89.6219 123.62 91.5083 123.658 93.3921C123.674 94.199 123.399 94.5256 122.571 94.4878C121.405 94.4365 120.236 94.4581 119.07 94.477C118.498 94.4878 118.271 94.253 118.274 93.6809C118.285 89.7757 118.285 85.8678 118.271 81.9627C118.271 81.3932 118.479 81.1234 119.054 81.1665C119.143 81.1719 119.235 81.1584 119.324 81.1638C120.706 81.2448 122.457 80.5998 123.364 81.4283C124.225 82.2164 123.572 83.9787 123.639 85.3092C123.68 86.1161 123.647 86.9258 123.647 87.7327V87.7354Z" fill="#898989"/>
<path d="M137.491 87.9702C137.491 89.7649 137.451 91.5596 137.508 93.3516C137.535 94.2476 137.205 94.5526 136.342 94.4851C135.009 94.3826 133.303 95.0195 132.426 94.2368C131.519 93.4272 132.151 91.6946 132.124 90.3695C132.072 87.7246 132.134 85.0771 132.094 82.4296C132.08 81.5552 132.261 81.0694 133.268 81.1558C134.601 81.2718 136.304 80.6187 137.178 81.4095C138.077 82.2218 137.402 83.9517 137.478 85.2768C137.529 86.1701 137.489 87.0715 137.489 87.9675L137.491 87.9702Z" fill="#898989"/>
<path d="M88.0937 95.6941C89.6213 95.6941 91.1515 95.7103 92.679 95.686C93.4239 95.6752 93.7693 95.9775 93.7018 96.7278C93.6937 96.8168 93.7018 96.9086 93.7018 96.9977C93.7612 99.745 92.4271 101.119 89.6995 101.119C87.6754 101.119 85.6513 101.086 83.6299 101.132C82.7285 101.154 82.3129 100.911 82.3831 99.9258C82.4775 98.5872 81.9567 96.8519 82.6206 96.0018C83.3304 95.0923 85.1439 95.794 86.4718 95.6995C87.0088 95.6617 87.5513 95.6941 88.091 95.6941H88.0937Z" fill="#0090D8"/>
<path d="M176.185 101.062C174.973 101.062 173.759 101.032 172.547 101.073C171.772 101.097 171.454 100.876 171.427 100.018C171.314 96.1745 171.287 96.1745 175.138 96.1745C176.711 96.1745 178.285 96.2042 179.855 96.1637C180.63 96.1448 180.951 96.3391 180.973 97.2054C181.072 101.059 181.102 101.059 177.262 101.059C176.903 101.059 176.544 101.059 176.182 101.059L176.185 101.062Z" fill="#898989"/>
<path d="M88.6306 106.589C88.2771 107.593 87.9263 108.597 87.5727 109.598C87.4702 109.887 87.4162 110.257 87.0222 110.268C86.6254 110.279 86.5472 109.922 86.4419 109.628C86.0749 108.589 85.7105 107.55 85.2517 106.241C84.6418 107.723 85.276 109.064 84.7444 110.262C84.1156 110.138 84.2694 109.655 84.264 109.307C84.2397 108.006 84.2397 106.705 84.2667 105.407C84.2748 105.016 84.0697 104.46 84.8118 104.414C85.4353 104.376 85.527 104.811 85.6701 105.243C86.0614 106.422 86.4608 107.596 86.9439 109.029C87.7265 107.744 87.929 106.516 88.3904 105.399C88.5686 104.967 88.5578 104.325 89.2703 104.441C90.0394 104.568 89.6886 105.226 89.7021 105.639C89.7479 106.983 89.7237 108.33 89.7102 109.674C89.7102 109.879 89.7479 110.176 89.4457 110.206C89.0975 110.238 89.0031 109.965 89.0004 109.679C88.9923 108.657 88.9977 107.631 88.9977 106.608C88.8735 106.603 88.7521 106.595 88.6279 106.589H88.6306Z" fill="#898989"/>
<path d="M69.4887 104.525C69.8989 105.634 70.4333 106.335 69.8612 107.374C69.5778 107.887 69.5076 108.872 70.0744 109.534C70.2579 109.747 70.7437 109.882 70.355 110.214C70.0177 110.5 69.5805 110.376 69.2998 109.998C69.0434 109.652 69.0704 109.231 69.0569 108.829C69.0407 108.289 69.0461 107.75 69.0299 107.213C69.0191 106.864 68.5846 106.473 68.5306 106.578C67.8425 107.968 67.2028 106.514 66.5605 106.578C65.9263 106.64 65.562 107.01 65.4837 107.598C65.3919 108.306 65.284 109.08 66.0154 109.552C66.6172 109.941 67.1408 109.741 67.497 109.15C67.6481 108.897 67.7804 108.635 68.088 108.875C68.366 109.091 68.1771 109.374 68.0422 109.596C67.6427 110.251 67.0193 110.443 66.2987 110.354C65.1787 110.214 64.4609 108.969 64.7199 107.655C64.9817 106.325 66.0666 105.477 67.1408 106.071C68.5333 106.84 68.8869 106.195 69.1757 105.067C69.208 104.943 69.3052 104.835 69.486 104.527L69.4887 104.525Z" fill="#898989"/>
<path d="M127.763 110.43C127.226 109.512 127.52 108.651 127.429 107.852C127.369 107.321 127.431 106.678 126.676 106.657C125.939 106.638 125.736 107.196 125.661 107.828C125.564 108.629 125.866 109.496 125.189 110.589C124.776 108.972 124.789 107.631 125.1 106.403C125.18 106.082 126.557 105.69 127.35 106.052C127.895 106.3 128.273 106.271 128.818 106.063C129.714 105.717 130.449 106.02 130.554 107.086C130.637 107.928 130.608 108.783 130.61 109.633C130.61 109.895 130.57 110.238 130.214 110.195C129.857 110.152 129.938 109.787 129.93 109.539C129.911 108.913 129.922 108.284 129.92 107.658C129.92 107.115 129.774 106.654 129.129 106.632C128.511 106.613 128.314 107.051 128.198 107.577C128.003 108.454 128.441 109.423 127.763 110.421V110.43Z" fill="#898989"/>
<path d="M160.807 108.789C161.347 108.505 161.363 108.071 161.52 107.72C161.854 106.983 161.738 105.828 163.107 106.055C163.217 106.074 163.379 105.847 163.501 105.72C163.752 105.45 163.401 104.689 164.2 104.865C163.967 105.534 165.077 105.842 164.599 106.668C164.094 107.539 164.202 108.562 164.564 109.493C164.656 109.731 165.123 109.844 164.885 110.219C164.823 110.319 164.564 110.338 164.399 110.324C164.003 110.295 163.706 110.079 163.665 109.666C163.614 109.132 163.644 108.589 163.59 108.055C163.541 107.555 163.83 106.819 163.144 106.657C162.402 106.484 162.429 107.294 162.232 107.736C161.943 108.392 161.727 109.08 161.479 109.752C161.385 110.011 161.263 110.268 160.942 110.27C160.618 110.273 160.5 110.022 160.402 109.76C160.008 108.71 159.612 107.663 159.22 106.611C159.147 106.417 159.004 106.163 159.363 106.095C159.614 106.049 159.79 106.206 159.881 106.433C160.189 107.205 160.489 107.979 160.804 108.786L160.807 108.789Z" fill="#898989"/>
<path d="M114.528 107.442C114.52 105.415 115.756 104.141 117.481 104.314C118.237 104.39 118.855 104.719 119.232 105.404C119.335 105.588 119.481 105.823 119.219 105.99C119 106.13 118.774 106.052 118.633 105.85C117.837 104.697 116.879 104.684 115.907 105.545C115.138 106.228 115.13 108.273 115.799 109.064C116.528 109.925 117.778 109.849 118.582 108.902C118.779 108.67 118.844 108.063 119.324 108.465C119.678 108.762 119.335 109.131 119.149 109.415C118.263 110.753 116.069 110.729 115.103 109.377C114.671 108.772 114.496 108.084 114.526 107.442H114.528Z" fill="#898989"/>
<path d="M111.297 108.084C111.297 109.126 111.37 109.806 111.281 110.465C111.095 111.873 109.373 112.543 108.293 111.668C108.037 111.46 107.764 111.145 107.951 110.88C108.223 110.492 108.469 110.859 108.682 111.08C109.041 111.45 109.473 111.458 109.921 111.288C110.28 111.15 110.563 110.907 110.514 110.494C110.436 109.833 109.999 110.232 109.708 110.273C108.955 110.373 108.361 110.095 108.018 109.447C107.524 108.516 107.527 107.542 108.099 106.638C108.504 105.998 109.143 105.993 109.864 105.971C111.972 105.909 111.211 107.418 111.297 108.084ZM110.682 108.049C110.604 107.334 110.428 106.586 109.494 106.605C108.571 106.624 108.366 107.374 108.372 108.127C108.377 108.891 108.625 109.614 109.548 109.604C110.493 109.593 110.622 108.832 110.682 108.046V108.049Z" fill="#898989"/>
<path d="M100.53 107.329C100.53 107.731 100.53 108.133 100.53 108.535C100.526 109.748 99.9261 110.359 98.7296 110.37C97.6609 110.381 96.9214 109.477 96.916 108.154C96.9107 106.781 97.5773 105.871 98.6973 105.979C99.4961 106.055 99.8874 105.987 99.7768 105.089C99.7471 104.84 99.7579 104.479 100.12 104.479C100.584 104.476 100.505 104.897 100.514 105.183C100.535 105.898 100.522 106.613 100.522 107.329H100.53ZM99.8469 108.198C99.7471 107.488 99.7498 106.648 98.7728 106.613C97.7716 106.578 97.6906 107.393 97.6798 108.125C97.669 108.864 97.7851 109.674 98.7269 109.714C99.7039 109.757 99.7687 108.929 99.8496 108.198H99.8469Z" fill="#898989"/>
<path d="M154.179 107.307C154.179 107.126 154.179 106.948 154.179 106.767C154.179 104.379 154.937 103.815 157.299 104.481C158.068 104.697 158.535 105.21 158.54 106.039C158.548 106.883 158.219 107.526 157.337 107.752C157.078 107.82 156.8 107.909 156.543 107.876C155.367 107.728 154.757 108.103 154.956 109.399C155.005 109.709 155.086 110.251 154.56 110.214C154.112 110.181 154.195 109.668 154.187 109.331C154.166 108.656 154.182 107.982 154.179 107.307ZM155.963 107.161C156.665 107.083 157.609 107.326 157.72 106.225C157.82 105.224 157.064 105.091 156.292 105.083C155.628 105.075 154.902 104.929 154.956 106.022C154.991 106.719 154.994 107.315 155.963 107.161Z" fill="#898989"/>
<path d="M180.684 104.301C180.684 106.203 180.692 107.933 180.676 109.666C180.676 109.909 180.646 110.249 180.255 110.211C179.383 110.125 178.39 110.767 177.661 109.793C177.005 108.915 176.992 107.952 177.359 106.98C177.699 106.079 178.42 105.801 179.324 106.017C179.882 106.149 180.039 105.914 180.063 105.404C180.079 105.083 179.912 104.673 180.686 104.303L180.684 104.301ZM180.093 108.092C180.052 107.383 179.885 106.646 178.973 106.611C178.001 106.573 177.864 107.366 177.855 108.098C177.847 108.886 178.009 109.731 179.016 109.701C179.92 109.674 180.071 108.899 180.09 108.09L180.093 108.092Z" fill="#898989"/>
<path d="M132.459 110.157C132.246 110.789 132.51 111.404 132.162 111.927C131.49 111.66 131.7 111.142 131.687 110.743C131.655 109.801 131.679 108.856 131.671 107.914C131.657 106.093 131.876 105.869 133.614 105.941C134.683 105.985 135.436 107.102 135.287 108.43C135.128 109.857 134.283 110.511 132.912 110.262C132.785 110.241 132.664 110.206 132.459 110.157ZM134.559 108.006C134.51 107.307 134.351 106.535 133.409 106.6C132.426 106.667 132.319 107.501 132.327 108.295C132.335 109.026 132.58 109.714 133.409 109.695C134.391 109.674 134.55 108.878 134.559 108.006Z" fill="#898989"/>
<path d="M60.209 108.095C60.298 107.051 60.6165 106.144 61.8418 105.968C62.8754 105.82 63.5528 106.279 63.9117 107.272C64.1762 108.001 64.0629 108.403 63.1966 108.365C62.7944 108.346 62.3842 108.335 61.9848 108.376C61.6312 108.411 61.0672 108.216 61.0996 108.87C61.1266 109.385 61.5368 109.636 62.0091 109.722C62.3815 109.793 62.7135 109.666 62.9941 109.399C63.2073 109.196 63.4502 108.767 63.7417 109.091C64.0521 109.434 63.6526 109.749 63.3936 109.968C62.7836 110.483 62.0631 110.5 61.3641 110.216C60.433 109.838 60.2522 109.005 60.2117 108.095H60.209ZM62.0927 107.76C62.4652 107.636 63.1156 107.995 63.1669 107.337C63.2046 106.851 62.7243 106.595 62.2304 106.565C61.6825 106.532 61.1671 106.732 61.1482 107.312C61.1293 107.933 61.7473 107.636 62.0927 107.763V107.76Z" fill="#898989"/>
<path d="M139.579 108.538C139.579 108.94 139.592 109.342 139.573 109.741C139.565 109.903 139.484 110.06 139.436 110.219C138.496 109.776 137.568 110.718 136.626 110.235C136.186 110.011 135.938 109.663 135.916 109.18C135.895 108.683 136.148 108.297 136.58 108.106C136.98 107.928 137.433 107.866 137.857 107.739C138.205 107.634 138.788 107.75 138.672 107.126C138.569 106.565 138.067 106.543 137.603 106.595C137.433 106.613 137.268 106.697 137.101 106.754C136.796 106.859 136.607 107.674 136.227 107.064C135.949 106.616 136.524 106.29 136.918 106.103C138.577 105.318 139.522 106.203 139.576 108.535L139.579 108.538ZM137.614 109.803C138.264 109.725 138.701 109.396 138.774 108.721C138.826 108.249 138.491 108.208 138.159 108.33C137.627 108.524 136.761 108.265 136.734 109.193C136.721 109.682 137.171 109.806 137.614 109.803Z" fill="#898989"/>
<path d="M36.5379 108.513C36.5379 108.872 36.5379 109.231 36.5379 109.59C36.5406 110.019 36.5838 110.519 35.9145 110.143C35.4611 109.89 35.1534 110.281 34.7729 110.327C33.9605 110.427 33.159 110.408 32.9377 109.436C32.7245 108.489 33.3263 108.041 34.1845 107.868C34.3168 107.841 34.4517 107.825 34.5813 107.787C34.9483 107.677 35.4368 107.809 35.6203 107.326C35.7094 107.094 35.5879 106.873 35.3801 106.754C34.9159 106.489 34.4463 106.476 33.9983 106.808C33.75 106.991 33.5071 107.59 33.1968 107.113C32.8837 106.63 33.437 106.319 33.8283 106.128C35.4989 105.313 36.4974 106.209 36.5352 108.513H36.5379ZM35.7256 108.843C35.7525 108.513 35.6689 108.198 35.3261 108.303C34.7405 108.484 33.8499 108.198 33.688 109.113C33.6016 109.593 34.0361 109.798 34.4814 109.795C35.1372 109.79 35.5717 109.474 35.7283 108.843H35.7256Z" fill="#898989"/>
<path d="M26.0399 107.267C26.0399 107.132 26.0399 106.999 26.0399 106.864C26.0372 104.203 26.2531 104.023 28.8925 104.435C29.8155 104.579 30.3472 105.078 30.3661 106.033C30.3823 106.937 30.0341 107.598 29.0734 107.785C28.7684 107.844 28.4472 107.914 28.1477 107.876C27.1086 107.75 26.6552 108.136 26.7848 109.212C26.828 109.569 26.9548 110.208 26.4258 110.2C25.7484 110.192 26.0912 109.515 26.0561 109.137C25.9994 108.516 26.0399 107.887 26.0399 107.264V107.267ZM27.8373 105.067C27.3461 105.035 26.7416 105.051 26.7713 106.087C26.7956 106.873 26.9845 107.261 27.8346 107.167C28.5714 107.086 29.4971 107.299 29.551 106.174C29.5996 105.167 28.8305 105.083 27.8346 105.07L27.8373 105.067Z" fill="#898989"/>
<path d="M80.5953 110.543C79.9044 109.574 80.2148 108.791 80.1311 108.063C80.0609 107.456 80.1932 106.678 79.2972 106.646C78.3148 106.608 78.2258 107.366 78.1745 108.13C78.1259 108.827 78.358 109.563 77.9397 110.23C77.5079 109.76 77.1462 106.462 77.5727 106.298C78.2339 106.041 79.0003 106.006 79.7236 105.99C80.2553 105.977 80.7086 106.346 80.7707 106.87C80.9057 107.998 81.0136 109.142 80.598 110.546L80.5953 110.543Z" fill="#898989"/>
<path d="M103.714 110.478C103.247 108.988 103.298 107.636 103.587 106.398C103.703 105.904 104.834 106.055 105.5 105.968C106.067 105.896 106.601 106.192 106.72 106.805C106.944 107.939 106.941 109.083 106.693 110.416C105.805 109.636 106.234 108.789 106.132 108.068C106.04 107.41 106.175 106.597 105.163 106.643C104.237 106.686 104.248 107.434 104.181 108.125C104.113 108.835 104.429 109.62 103.714 110.478Z" fill="#898989"/>
<path d="M143.815 110.543C143.089 109.658 143.381 108.961 143.313 108.322C143.243 107.647 143.513 106.697 142.477 106.643C141.308 106.581 141.405 107.577 141.332 108.376C141.276 109.005 141.54 109.693 140.893 110.5C140.461 109.002 140.493 107.661 140.758 106.43C140.884 105.842 141.986 106.103 142.636 105.968C143.17 105.858 143.769 106.136 143.894 106.738C144.131 107.903 144.134 109.086 143.818 110.546L143.815 110.543Z" fill="#898989"/>
<path d="M39.1049 105.92C39.31 105.963 39.588 105.987 39.8336 106.084C40.179 106.222 40.5784 106.53 40.43 106.864C40.1925 107.407 39.8984 106.932 39.6177 106.765C39.1643 106.492 38.5112 106.357 38.325 106.881C38.0416 107.674 38.8809 107.588 39.3316 107.736C39.9847 107.952 40.6783 108.133 40.735 108.972C40.7755 109.569 40.4327 110.025 39.8849 110.222C39.1346 110.492 38.3708 110.497 37.7447 109.898C37.5342 109.698 37.2373 109.385 37.5207 109.099C37.7312 108.889 38.0146 109.096 38.1927 109.326C38.5058 109.731 38.9295 109.811 39.3991 109.695C39.669 109.628 39.9226 109.488 39.9685 109.191C40.0198 108.867 39.7634 108.716 39.507 108.619C39.2129 108.508 38.9079 108.438 38.6083 108.338C37.9228 108.109 37.3318 107.763 37.491 106.916C37.6476 106.09 38.325 105.944 39.0995 105.914L39.1049 105.92Z" fill="#898989"/>
<path d="M72.7191 108.198C72.7002 106.802 73.4343 105.947 74.6487 105.941C75.8713 105.936 76.5919 106.767 76.5892 108.181C76.5892 109.523 75.901 110.332 74.7378 110.373C73.5179 110.413 72.738 109.574 72.7191 108.198ZM75.901 108.114C75.8119 107.318 75.6041 106.565 74.6002 106.6C73.6583 106.632 73.4937 107.356 73.491 108.125C73.4856 108.951 73.6772 109.722 74.673 109.731C75.6824 109.739 75.82 108.921 75.901 108.117V108.114Z" fill="#898989"/>
<path d="M146.73 108.899C147.094 107.987 147.399 107.245 147.68 106.495C147.788 106.206 147.955 105.995 148.266 106.109C148.592 106.227 148.363 106.489 148.301 106.662C147.791 108.098 147.278 109.531 146.727 110.95C146.603 111.272 146.357 111.566 146.106 111.811C145.869 112.046 145.478 112.124 145.254 111.865C144.887 111.442 145.378 111.385 145.618 111.253C146.268 110.894 146.263 110.322 146.069 109.736C145.772 108.843 145.38 107.979 145.127 107.075C145.046 106.789 144.455 106.314 145.124 106.111C145.691 105.939 145.634 106.603 145.796 106.924C146.09 107.507 146.09 108.222 146.727 108.897L146.73 108.899Z" fill="#898989"/>
<path d="M94.5567 108.122C94.5729 109.458 93.8064 110.351 92.619 110.373C91.4531 110.394 90.6246 109.496 90.603 108.187C90.5814 106.878 91.3829 105.95 92.5515 105.933C93.739 105.917 94.5378 106.792 94.5567 108.122ZM91.3586 108.111C91.3802 108.999 91.6312 109.763 92.6082 109.725C93.5447 109.69 93.8307 108.956 93.8091 108.092C93.7875 107.288 93.5231 106.624 92.619 106.605C91.615 106.584 91.3802 107.312 91.3586 108.111Z" fill="#898989"/>
<path d="M124.09 108.087C124.106 109.512 123.41 110.349 122.187 110.37C120.989 110.392 120.198 109.509 120.198 108.154C120.198 106.8 120.981 105.928 122.187 105.941C123.359 105.955 124.071 106.759 124.087 108.087H124.09ZM120.959 107.998C120.959 108.907 121.121 109.698 122.122 109.728C123.105 109.755 123.396 108.986 123.404 108.168C123.413 107.348 123.129 106.603 122.139 106.6C121.197 106.6 120.997 107.307 120.959 107.998Z" fill="#898989"/>
<path d="M54.1482 108.095C54.1482 107.96 54.1482 107.825 54.1482 107.69C54.1536 105.985 54.1536 105.971 56.059 105.944C57.2491 105.928 57.5784 106.7 57.5838 107.72C57.5892 108.395 57.5838 109.067 57.573 109.741C57.5703 109.974 57.5055 110.227 57.2302 110.222C56.9739 110.219 56.8632 109.987 56.8578 109.747C56.8416 109.118 56.8416 108.489 56.8335 107.86C56.8254 107.248 56.7795 106.619 55.9618 106.614C55.1468 106.608 54.9147 107.178 54.9039 107.885C54.8958 108.379 54.9201 108.875 54.8877 109.366C54.8661 109.685 55.0415 110.227 54.5072 110.192C54.0376 110.162 54.1698 109.642 54.1536 109.304C54.1347 108.902 54.1482 108.495 54.1482 108.092V108.095Z" fill="#898989"/>
<path d="M45.4551 108.33C45.4632 107.288 45.6737 106.508 46.5103 106.117C47.1499 105.817 47.8327 105.82 48.4211 106.287C48.699 106.505 49.0418 106.848 48.7881 107.18C48.4804 107.582 48.2942 107.113 48.081 106.918C47.5008 106.387 46.8585 106.425 46.4671 107.053C45.9894 107.817 45.9544 108.729 46.6102 109.423C47.1283 109.971 47.7437 109.849 48.2079 109.21C48.3509 109.013 48.4993 108.64 48.8043 108.899C49.1173 109.166 48.8448 109.488 48.6693 109.728C48.1755 110.397 47.4603 110.527 46.737 110.289C45.7331 109.963 45.4632 109.113 45.4551 108.33Z" fill="#898989"/>
<path d="M153.202 104.255C151.766 106.902 151.755 109.385 153.202 112.016C150.913 110.691 150.797 105.766 153.202 104.255Z" fill="#898989"/>
<path d="M170.711 107.321C170.711 106.559 170.703 105.796 170.717 105.035C170.722 104.767 170.744 104.454 171.122 104.471C171.505 104.489 171.464 104.821 171.467 105.072C171.481 106.149 171.537 107.229 171.459 108.297C171.386 109.299 171.721 109.728 172.735 109.582C173 109.544 173.273 109.569 173.542 109.582C173.796 109.598 174.128 109.534 174.155 109.919C174.182 110.308 173.872 110.3 173.602 110.316C173.556 110.316 173.513 110.316 173.467 110.319C171.623 110.492 170.704 109.491 170.711 107.318V107.321Z" fill="#898989"/>
<path d="M165.922 111.881C167.163 109.385 167.212 106.908 165.862 104.422C168.059 106.101 168.094 109.879 165.922 111.881Z" fill="#898989"/>
<path d="M176.092 110.332C175.682 110.305 175.315 110.06 175.342 109.701C175.458 108.23 174.754 106.775 175.261 105.302C175.334 105.089 175.342 104.832 175.628 104.824C175.936 104.816 175.874 105.105 175.968 105.286C176.3 105.928 176.195 106.487 176.041 107.194C175.868 107.998 175.558 109.029 176.473 109.803C176.794 110.076 176.519 110.359 176.092 110.332Z" fill="#898989"/>
<path d="M52.895 107.415C52.895 108.216 52.9085 109.015 52.8815 109.817C52.8761 109.96 52.7304 110.189 52.609 110.222C52.3256 110.295 52.2176 110.03 52.2149 109.817C52.196 108.173 52.1933 106.527 52.1987 104.883C52.1987 104.624 52.3877 104.454 52.6333 104.487C52.9085 104.525 52.9112 104.792 52.9139 105.013C52.9193 105.815 52.9139 106.613 52.9139 107.415C52.9085 107.415 52.9004 107.415 52.895 107.415Z" fill="#898989"/>
<path d="M31.9957 107.339C31.9957 108.103 32.0092 108.867 31.9876 109.628C31.9822 109.874 32.0173 110.227 31.6286 110.224C31.3561 110.224 31.2832 109.96 31.2832 109.733C31.2724 108.117 31.2751 106.503 31.2778 104.886C31.2778 104.7 31.3345 104.495 31.545 104.489C31.796 104.484 31.9687 104.662 31.9741 104.916C31.9876 105.723 31.9795 106.53 31.9795 107.339C31.9849 107.339 31.993 107.339 31.9984 107.339H31.9957Z" fill="#898989"/>
<path d="M42.6777 110.338C42.2297 110.295 41.8789 110.13 41.8708 109.811C41.8249 108.295 41.2878 106.789 41.7358 105.259C41.8033 105.032 41.9059 104.816 42.1622 104.835C42.4699 104.856 42.4294 105.143 42.4402 105.35C42.4699 105.896 43.1932 106.225 42.5725 107.061C42.1811 107.585 42.0057 108.937 42.9287 109.72C43.0771 109.847 43.177 110.017 43.0447 110.168C42.9449 110.281 42.7452 110.311 42.6804 110.34L42.6777 110.338Z" fill="#898989"/>
<path d="M57.8455 111.857C59.5025 110.146 58.0938 107.909 59.0653 106.098C59.3622 107.876 59.489 109.663 59.149 111.436C59.0356 112.022 58.4419 112.127 57.8428 111.857H57.8455Z" fill="#898989"/>
<path d="M95.369 107.145C95.369 106.387 95.369 105.631 95.369 104.873C95.369 104.627 95.4419 104.422 95.7414 104.462C95.9384 104.489 96.0383 104.649 96.0383 104.843C96.041 106.489 96.0464 108.138 96.0383 109.784C96.0383 110.014 95.9168 110.238 95.6416 110.205C95.3393 110.17 95.3744 109.887 95.3717 109.682C95.3609 108.834 95.3663 107.99 95.369 107.142V107.145Z" fill="#898989"/>
<path d="M71.1534 107.904C71.3639 107.426 70.7405 106.241 71.5043 106.236C72.3031 106.23 71.7796 107.385 71.8767 108.017C71.9604 108.581 71.8929 109.169 71.8794 109.744C71.874 109.976 71.8038 110.216 71.534 110.225C71.2749 110.233 71.1588 110.014 71.1561 109.774C71.1453 109.196 71.1534 108.619 71.1534 107.901V107.904Z" fill="#898989"/>
<path d="M43.8631 108.044C43.8631 107.596 43.8496 107.148 43.8685 106.7C43.8766 106.454 43.8145 106.114 44.2328 106.139C44.4973 106.155 44.5998 106.349 44.5998 106.603C44.5998 107.634 44.6025 108.662 44.5998 109.693C44.5998 109.925 44.5432 110.181 44.2787 110.206C43.9036 110.238 43.8793 109.922 43.8712 109.655C43.8577 109.118 43.8685 108.581 43.8658 108.044H43.8631Z" fill="#898989"/>
<path d="M102.356 108.114C102.356 108.654 102.362 109.193 102.356 109.733C102.353 109.973 102.254 110.214 101.997 110.219C101.733 110.224 101.644 109.979 101.641 109.741C101.633 108.708 101.63 107.674 101.636 106.64C101.636 106.368 101.671 106.063 102.059 106.109C102.348 106.144 102.356 106.408 102.362 106.632C102.372 107.126 102.364 107.62 102.364 108.117C102.364 108.117 102.362 108.117 102.359 108.117L102.356 108.114Z" fill="#898989"/>
</g>
<defs>
<clipPath id="clip0_2206_755">
<rect width="155" height="31.0604" fill="white" transform="translate(26 81.002)"/>
</clipPath>
</defs>
</svg>
