<svg width="207" height="197" viewBox="0 0 207 197" fill="none" xmlns="http://www.w3.org/2000/svg">
<rect x="0.776367" y="-0.000244141" width="205.4" height="197" rx="3" fill="#F7F7F7"/>
<g clip-path="url(#clip0_2206_756)">
<path d="M145.996 97.573C145.996 111.295 145.996 125.017 146 138.739C146 139.395 145.915 140.045 145.987 140.706C146.048 141.276 145.631 141.407 145.158 141.406C141.663 141.397 138.168 141.382 134.674 141.378C130.358 141.374 126.041 141.341 121.726 141.402C120.629 141.417 119.731 141.099 118.839 140.547C116.458 139.075 114.056 137.634 111.669 136.17C110.138 135.231 108.622 134.267 107.088 133.332C106.093 132.726 105.075 132.156 104.071 131.56C103.6 131.282 103.413 131.496 103.393 131.949C103.368 132.488 103.376 133.027 103.376 133.567C103.379 135.912 103.376 138.259 103.396 140.604C103.4 141.176 103.175 141.395 102.601 141.393C90.0047 141.359 77.4103 141.336 64.8144 141.316C63.7827 141.314 62.7524 141.369 61.7207 141.381C60.9339 141.389 60.7988 141.205 60.8241 140.421C60.8565 139.437 60.8494 138.452 60.8494 137.466C60.8494 110.328 60.8494 83.1882 60.8466 56.0499C60.8466 55.722 60.8621 55.3926 60.8354 55.0661C60.7706 54.2399 60.8734 54.1034 61.6813 54.1019C69.8674 54.0977 78.0535 54.1048 86.2396 54.0851C86.9532 54.0836 87.405 54.565 87.93 54.8592C90.2721 56.1682 92.5551 57.5827 94.8719 58.9353C96.5032 59.8882 98.181 60.7665 99.7912 61.7532C100.702 62.312 101.691 62.7469 102.525 63.4324C102.72 63.5928 102.923 63.6956 103.168 63.5942C103.52 63.4478 103.508 63.1227 103.508 62.8159C103.508 61.1029 103.508 59.3914 103.503 57.6784C103.5 56.6932 103.497 55.7093 103.476 54.7241C103.466 54.2751 103.659 54.071 104.104 54.0836C104.456 54.0949 104.808 54.1019 105.158 54.1019C114.728 54.0808 124.297 54.0217 133.867 54.0555C137.62 54.0696 141.372 54.0808 145.124 54.0963C145.906 54.0991 146.015 54.2413 145.984 55.0013C145.962 55.5629 145.994 56.1259 145.994 56.6875C145.994 70.3151 145.994 83.9441 145.994 97.5716L145.996 97.573ZM104.682 73.0851C103.237 73.2146 101.797 73.0795 100.339 73.3047C98.4259 73.6003 96.4877 73.71 94.5791 74.1224C91.8584 74.708 89.2798 75.651 86.8279 76.9304C84.8236 77.9762 83.0403 79.3485 81.5371 81.0516C79.7003 83.1333 78.2365 85.3938 77.9789 88.2708C77.8184 90.0654 78.0859 91.8008 78.784 93.4167C79.4047 94.8523 80.3449 96.1346 81.554 97.1761C83.6343 98.9679 85.9778 100.25 88.6028 101.093C90.9449 101.845 93.3349 102.314 95.7671 102.37C99.3478 102.451 102.94 102.505 106.504 101.979C107.074 101.894 107.303 102.122 107.179 102.694C106.936 103.817 106.506 104.882 106.136 105.966C105.994 106.384 105.642 106.55 105.234 106.447C104.485 106.257 103.708 106.335 102.954 106.077C102.351 105.872 101.659 105.91 101.003 105.886C100.554 105.869 100.239 106.103 100.164 106.571C100.083 107.075 100.401 107.23 100.81 107.412C101.931 107.906 103.14 107.917 104.308 108.142C104.789 108.235 105.048 108.456 104.905 108.957C104.757 109.474 104.609 109.997 104.382 110.481C103.614 112.131 103.02 113.855 102.111 115.444C101.13 117.16 100.112 118.828 98.5554 120.098C96.7917 121.536 94.7973 122.317 92.5045 122.327C91.0069 122.334 89.6655 121.874 88.3889 121.126C86.5844 120.069 86.082 118.89 86.3212 117.001C86.4465 116.011 87.0053 115.33 87.84 114.857C89.2489 114.059 90.7634 113.624 92.389 113.614C92.9647 113.612 93.356 113.409 93.3602 112.771C93.3644 112.117 92.9154 112.024 92.4003 112.037C90.9956 112.07 89.5937 111.982 88.1876 112.151C86.0172 112.411 84.0622 113.095 82.6983 114.881C82.041 115.743 81.6384 116.786 81.9354 117.914C82.2901 119.263 83.0347 120.376 84.1283 121.262C86.4507 123.142 89.1489 123.961 92.0808 123.885C93.6741 123.844 95.2744 123.794 96.8565 123.271C98.2499 122.813 99.5589 122.237 100.781 121.478C102.744 120.261 104.359 118.649 105.78 116.818C107.473 114.636 108.737 112.225 109.807 109.706C110.193 108.797 110.339 108.585 111.322 108.573C112.331 108.56 113.351 108.614 114.334 108.374C116.349 107.885 118.408 107.58 120.344 106.74C121.844 106.089 123.308 105.382 124.654 104.47C126.088 103.499 127.374 102.342 128.504 101.007C130.153 99.0594 131.352 96.8735 131.888 94.3935C132.393 92.0598 132.651 89.7093 132.078 87.2954C131.733 85.8414 131.287 84.4508 130.541 83.1939C128.846 80.3408 126.321 78.3478 123.461 76.7531C122.82 76.3956 122.776 76.2027 123.337 75.6932C123.824 75.2513 123.801 74.8149 123.266 74.4391C122.866 74.159 122.428 74.1126 122 74.3322C121.503 74.5869 121.019 74.8726 120.552 75.1795C120.293 75.3498 120.047 75.4075 119.76 75.3132C118.089 74.7643 116.373 74.418 114.649 74.0746C111.352 73.4173 108.032 73.109 104.681 73.0837L104.682 73.0851Z" fill="#FF0016"/>
<path d="M108.153 82.4141C105.575 82.248 103.043 82.6815 100.549 83.1882C98.8273 83.5387 97.1129 84.0412 95.4858 84.7857C94.8975 85.0546 94.2796 85.277 93.68 85.5374C93.1677 85.7612 92.9396 86.1524 93.0607 86.6549C93.1958 87.2165 93.6603 87.1926 94.1431 87.1138C95.0354 86.9688 95.8082 86.5043 96.6513 86.227C99.4775 85.2953 102.321 84.5929 105.316 84.3945C107.503 84.2495 109.66 84.3888 111.827 84.4986C112.935 84.5549 113.06 84.8589 112.629 85.8921C111.955 87.5065 111.37 89.1533 110.812 90.8141C110.272 92.4272 109.786 94.0585 109.23 95.6672C108.887 96.661 108.611 97.6814 108.381 98.7075C108.26 99.2494 108.001 99.5041 107.479 99.6238C104.44 100.319 101.372 100.411 98.2671 100.26C96.2909 100.164 94.3373 100.024 92.4301 99.507C90.3174 98.9341 88.3343 98.0671 86.6072 96.6933C83.6402 94.3343 82.6423 91.2195 83.0955 87.536C83.4896 84.3269 85.408 82.0875 87.7684 80.1409C89.9825 78.3154 92.5835 77.1922 95.2986 76.3941C97.2466 75.8213 99.2791 75.5989 101.314 75.3934C103.14 75.2076 104.977 75.0162 106.773 75.2161C109.088 75.4736 111.441 75.3934 113.729 75.9916C114.924 76.3041 116.147 76.5138 117.326 76.9065C117.964 77.119 118.078 77.3907 117.653 77.9072C116.507 79.2978 115.371 80.6927 114.473 82.2649C114.183 82.773 113.823 82.8758 113.191 82.7392C111.539 82.3817 109.838 82.4282 108.153 82.4141Z" fill="#FF0016"/>
<path d="M128.205 90.9339C128.335 92.8354 128.033 94.8088 127.274 96.6597C126.639 98.2093 125.812 99.6816 124.62 100.922C123.315 102.28 121.944 103.562 120.259 104.412C118.995 105.048 117.682 105.589 116.274 105.903C114.854 106.219 113.452 106.581 111.984 106.554C111.71 106.549 111.39 106.635 111.234 106.317C111.1 106.042 111.338 105.845 111.435 105.613C111.776 104.795 111.998 103.934 112.276 103.095C112.497 102.429 112.743 101.775 112.978 101.114C113.106 100.753 113.345 100.505 113.724 100.443C115.482 100.155 117.042 99.3719 118.584 98.5331C119.895 97.8209 121.053 96.9341 121.978 95.7546C123.268 94.1078 123.657 92.2781 123.242 90.2217C122.738 87.7219 121.164 86.1117 119.06 84.89C118.797 84.738 118.557 84.5452 118.296 84.3932C117.955 84.1975 117.871 83.9399 117.989 83.5655C118.565 81.7358 119.589 80.1439 120.636 78.5646C120.779 78.3493 120.956 78.331 121.178 78.4703C123.598 79.9919 125.613 81.8765 126.874 84.5086C127.836 86.5157 128.326 88.5946 128.203 90.9339H128.205Z" fill="#FF0016"/>
<path d="M120.392 90.9816C120.248 92.3244 119.777 93.6742 118.852 94.8438C117.804 96.1711 116.521 97.1874 114.883 97.6842C114.535 97.7898 114.243 98.3866 113.848 97.9685C113.533 97.6335 114.026 97.3042 114.102 96.9537C114.679 94.2836 115.694 91.7332 116.271 89.059C116.417 88.3819 116.706 87.7345 116.852 87.0448C116.98 86.448 117.379 86.2861 117.83 86.5437C119.162 87.3066 120.375 89.3475 120.391 90.9802L120.392 90.9816Z" fill="#FF0016"/>
</g>
<defs>
<clipPath id="clip0_2206_756">
<rect width="85.18" height="87.3588" fill="white" transform="translate(60.8203 54.0457)"/>
</clipPath>
</defs>
</svg>
