<svg width="206" height="197" viewBox="0 0 206 197" fill="none" xmlns="http://www.w3.org/2000/svg">
<rect x="0.599609" y="-0.000244141" width="205.4" height="197" rx="3" fill="#F7F7F7"/>
<g clip-path="url(#clip0_2206_758)">
<path d="M118.407 73.5965C119.088 73.758 119.414 73.303 119.834 73.101C120.677 72.689 121.474 72.1451 122.357 71.8597C124.345 71.2188 125.395 72.172 125.125 74.2239C124.942 75.6079 124.573 76.9408 124.207 78.2791C124.083 78.7342 123.854 79.1893 124.102 79.7951C125.142 79.0977 125.85 78.1876 126.606 77.3313C128.3 75.4087 130.077 73.5965 132.39 72.3848C133.64 71.7277 134.924 71.2727 136.201 72.0778C137.544 72.9233 137.498 74.3127 137.256 75.6968C137.227 75.8638 137.253 76.0415 137.253 76.3996C138.314 75.4733 139.243 74.617 140.221 73.8227C141.193 73.031 142.197 72.2582 143.431 71.9055C144.489 71.6039 145.563 71.4423 146.465 72.3094C147.348 73.1603 147.37 74.2077 147.058 75.301C145.975 79.1031 144.268 82.6656 142.825 86.3303C142.103 88.1641 141.368 89.9897 140.679 91.8343C140.471 92.389 140.022 93.081 140.67 93.5549C141.239 93.9723 141.75 93.4068 142.232 93.1106C142.884 92.7067 143.525 92.2005 144.241 93.0567C144.677 92.2435 144.508 91.3603 144.701 90.5498C146.298 83.888 149.594 78.271 155.066 74.0569C156.899 72.646 159.011 71.7547 161.388 71.7062C162.762 71.6793 164.027 71.997 164.735 73.2761C165.457 74.5793 165.172 75.8907 164.383 77.0862C162.638 79.7359 160.082 81.3488 157.225 82.5336C155.941 83.0668 154.592 83.398 153.21 83.6107C151.089 83.9392 150.405 84.6232 149.99 86.7827C149.686 88.366 149.508 89.979 149.575 91.5838C149.67 93.8646 150.984 94.6077 153.022 93.5791C155.198 92.4832 156.789 90.7383 158.146 88.7484C158.534 88.1802 158.766 87.0924 159.778 87.6309C160.78 88.1614 160.589 89.1442 160.168 90.0005C158.943 92.4886 156.967 94.2765 154.678 95.7629C153.208 96.7161 151.708 97.6074 150.001 98.0787C147.066 98.8865 145.369 97.9117 144.575 94.9847C144.529 94.8151 144.465 94.6508 144.357 94.3277C142.803 95.8087 140.959 96.6811 139.19 97.6748C138.215 98.2214 137.151 98.8407 136.069 97.9763C135.018 97.1362 135.037 95.9191 135.309 94.7585C136.284 90.6037 137.749 86.6158 139.488 82.7221C140.038 81.4969 140.633 80.2906 141.161 79.0546C141.357 78.5915 141.842 77.9856 141.33 77.5844C140.759 77.1347 140.218 77.7406 139.82 78.1014C137.555 80.1425 135.387 82.2536 133.834 84.9436C132.102 87.9406 130.497 90.9699 129.512 94.3062C128.949 96.2099 127.829 97.4863 125.656 97.664C124.078 97.7932 123.706 97.5536 124.086 96.0295C124.964 92.4994 126.372 89.1523 127.743 85.7945C128.777 83.2606 130.042 80.848 131.378 78.4622C131.701 77.8833 132.334 77.0674 131.65 76.5396C131.071 76.0926 130.419 76.8197 129.921 77.237C124.932 81.4242 120.949 86.3438 118.849 92.6098C118.461 93.7649 117.909 94.842 117.217 95.8356C116.18 97.3274 114.705 97.9548 112.922 97.8067C111.799 97.7151 111.336 97.0366 111.613 95.946C111.848 95.0278 112.327 94.2065 112.833 93.4149C115.728 88.8884 117.629 83.9177 119.328 78.8581C119.853 77.2909 119.409 77.1266 117.984 76.4965C116.124 75.6726 115.717 76.8628 115.039 77.9479C113.339 80.6622 112.219 83.6403 111.15 86.6346C110.216 89.2466 109.392 91.8989 108.487 94.5216C107.871 96.3069 106.4 97.1335 104.728 97.6667C104.079 97.874 103.349 97.9871 102.819 97.4539C102.235 96.8669 102.612 96.1668 102.867 95.5717C103.98 92.9813 105.245 90.4583 106.177 87.7898C107.106 85.1267 108.072 82.4771 109.061 79.8355C109.446 78.8042 109.381 78.1122 108.102 77.9156C107.512 77.8267 106.944 77.5117 106.791 76.8951C106.621 76.2165 107.203 75.8395 107.655 75.5002C109.16 74.3747 110.682 73.268 112.222 72.1882C113.016 71.6308 113.902 71.4423 114.699 72.1451C115.386 72.7537 115.752 72.4575 116.194 71.8651C117.766 69.7486 119.694 68.0737 122.115 66.9374C123.933 66.0811 125.807 65.9276 127.751 66.0461C128.157 66.0703 128.61 66.1134 128.779 66.5389C128.963 66.9993 128.537 67.2659 128.279 67.554C127.218 68.7442 125.987 69.6544 124.415 70.1067C122.952 70.5268 121.533 71.103 120.2 71.8489C119.473 72.2555 118.792 72.7294 118.415 73.5938L118.407 73.5965ZM154.263 80.786C156.288 80.3525 158.1 79.3804 159.428 77.6221C159.738 77.2101 159.773 76.6958 159.528 76.2246C159.358 75.8988 159.032 75.8853 158.706 75.9499C156.364 76.4158 154.673 77.7702 153.512 79.8113C153.135 80.4737 153.396 80.8264 154.266 80.7833L154.263 80.786Z" fill="#F4932F"/>
<path d="M44.1122 129.804C39.9897 129.985 35.9587 129.689 32.2293 127.666C30.6621 126.818 29.3131 125.72 28.2818 124.287C26.413 121.691 26.615 118.42 28.6991 115.39C30.6648 112.536 33.511 110.88 36.6157 109.617C38.7295 108.758 40.9106 108.066 43.054 107.277C43.4956 107.113 44.2199 107.089 44.2307 106.553C44.2442 105.898 43.4606 105.933 42.9948 105.748C41.2499 105.05 39.4754 104.42 37.7359 103.709C37.0439 103.427 36.2118 103.111 36.1633 102.226C36.123 101.45 36.9065 101.167 37.4478 100.804C39.4619 99.4547 41.2472 97.8149 43.1563 96.3339C43.9237 95.7388 43.9076 95.2433 43.0971 94.6725C41.2041 93.3423 40.741 91.5005 41.3414 89.3409C42.3889 85.5657 44.5323 82.4852 47.3381 79.7979C53.0224 74.3479 59.9023 71.7359 67.6439 71.1274C68.5406 71.0574 69.4292 71.1785 70.2504 71.6228C71.2494 72.1641 71.7422 72.9073 71.2844 74.0463C70.2504 76.6205 69.2568 79.2136 68.1313 81.7474C67.7354 82.6414 67.1323 83.9178 65.9125 83.4277C64.6873 82.9376 65.2958 81.6559 65.4682 80.6838C65.6243 79.806 65.9044 78.9497 66.0525 78.0692C66.1952 77.221 65.7913 76.7578 64.9215 76.5694C63.3113 76.222 61.7199 76.2651 60.1204 76.5774C55.8336 77.4095 52.0288 79.1571 49.0291 82.4233C47.8093 83.7508 47.0015 85.2722 47.0096 87.1194C47.0177 88.7835 47.9359 89.6586 49.5973 89.7152C51.1725 89.769 52.5189 89.252 53.5529 88.0726C55.1847 86.2066 56.593 84.2086 57.2473 81.7555C57.4762 80.8965 57.8397 80.0645 58.2328 79.2648C58.8225 78.0638 59.598 78.0126 60.4759 79.0547C61.5799 80.3607 61.5583 82.8407 60.3547 84.4482C57.8693 87.7657 54.9666 90.6711 51.5522 93.0407C49.6 94.3951 47.6936 95.79 46.1883 97.6641C44.9578 99.1962 44.9685 99.4978 46.6999 100.521C50.4832 102.761 54.595 104.35 58.5021 106.348C60.8771 107.563 63.0205 109.089 64.6792 111.211C68.0613 115.541 67.4285 120.676 63.1147 124.136C59.3799 127.13 55.0554 128.714 50.397 129.543C48.3021 129.915 46.1991 129.756 44.0988 129.799L44.1122 129.804ZM45.9621 126.519C46.8561 126.519 47.7582 126.589 48.6441 126.506C51.6976 126.218 54.6973 125.647 57.3146 123.94C61.8276 120.996 61.9919 116.443 57.7562 113.128C57.4735 112.908 57.2123 112.657 56.9161 112.461C54.1722 110.627 51.2722 108.831 47.8901 109.173C43.8133 109.585 39.9574 110.996 36.5699 113.427C34.4454 114.954 33.0963 116.92 33.3925 119.674C33.7237 122.766 35.6679 124.502 38.4279 125.523C40.8621 126.422 43.3987 126.613 45.9621 126.519Z" fill="#F4932F"/>
<path d="M95.0664 91.4062C93.3781 92.6502 91.9509 93.7112 90.513 94.7559C88.7708 96.0215 87.0125 97.2602 84.8933 97.8472C82.5156 98.5096 80.9108 97.1524 81.3793 94.7478C81.8559 92.3029 83.345 90.2564 84.3251 88.0053C85.6823 84.8871 87.1929 81.8363 88.62 78.7477C89.3013 77.2748 89.1613 77.4552 87.691 77.2048C85.6176 76.8494 85.5449 78.0261 85.2595 79.429C83.9024 86.0692 80.585 91.5758 75.3719 95.9003C73.8882 97.1309 72.216 98.1514 70.2207 98.3399C68.3385 98.5177 66.9464 97.5429 66.3136 95.7495C65.7266 94.0827 65.8585 92.3971 66.1735 90.7142C67.1833 85.2883 69.1032 80.2826 73.0669 76.2731C75.0272 74.2913 77.1194 72.4629 79.8337 71.5555C83.0246 70.4892 85.1733 71.7655 85.8034 75.0856C85.8277 75.2068 85.9085 75.3145 85.9865 75.4761C87.2683 74.8029 88.515 74.1297 89.7779 73.4889C90.6153 73.0634 91.4635 72.6541 92.3306 72.2933C93.1222 71.9648 94.0297 71.612 94.7648 72.1937C95.5188 72.7888 95.1041 73.7043 94.9156 74.4609C93.4158 80.4926 91.0004 86.1635 88.1138 91.6512C87.9199 92.0228 87.376 92.459 87.7907 92.8226C88.2377 93.2157 88.7008 92.6798 89.0616 92.3944C92.1906 89.9225 94.5575 86.7666 96.8678 83.5731C99.0004 80.6246 100.815 77.4956 102.003 74.0247C102.579 72.3445 104.779 71.262 106.448 71.7305C107.434 72.0079 107.025 72.7241 106.82 73.2546C105.923 75.5946 105.032 77.9399 104.028 80.2368C102.426 83.8962 101.246 87.7037 99.9914 91.4843C99.3828 93.318 99.5821 93.6034 101.448 94.002C101.879 94.0935 102.237 94.2389 102.329 94.694C102.447 95.2891 102.191 95.8088 101.701 96.0754C99.6979 97.1578 97.5922 97.8876 95.2656 97.4702C94.1401 97.2682 93.747 96.5062 93.9166 95.1033C94.0566 93.932 94.7056 92.9195 95.061 91.4089L95.0664 91.4062ZM80.9242 78.9443C80.7546 77.7487 81.2124 76.5586 80.1218 76.0119C78.9828 75.4438 78.1104 76.3674 77.2191 76.9194C76.9579 77.0809 76.7478 77.3287 76.519 77.5414C74.3729 79.5367 72.9727 82.0167 71.9521 84.7175C71.1093 86.9444 70.5438 89.2493 70.7027 91.6593C70.8266 93.5334 72.0464 94.1824 73.6539 93.2265C74.3002 92.8414 74.9356 92.3702 75.423 91.8074C78.6947 88.0457 80.4638 83.6458 80.9242 78.9443Z" fill="#F4932F"/>
<path d="M173.422 66.3235C176.643 66.3666 176.694 66.4474 175.404 69.4309C175.296 69.6759 175.194 69.9237 175.091 70.1741C174.873 70.7099 174.44 71.2673 174.488 71.7763C174.564 72.5706 175.442 72.1317 175.929 72.3579C176.467 72.6056 176.656 72.9853 176.599 73.5292C176.546 74.0516 176.362 74.5094 175.773 74.6009C175.377 74.6628 174.97 74.6763 174.569 74.6628C173.777 74.6359 173.36 75.0075 173.107 75.7534C171.241 81.2115 169.326 86.6562 167.474 92.1197C167.137 93.116 166.714 94.4005 167.695 95.1194C168.774 95.9111 169.779 94.9821 170.681 94.3008C171.179 93.9265 171.701 93.5765 172.24 93.2614C172.552 93.0783 172.935 92.9949 173.223 93.3288C173.454 93.5953 173.414 93.9292 173.263 94.2147C173.056 94.6078 172.838 95.0063 172.555 95.3456C170.716 97.5509 168.268 98.7169 165.497 99.0965C163.419 99.382 161.881 97.8633 161.8 95.771C161.674 92.5048 162.872 89.5401 163.957 86.5593C165.212 83.1153 166.79 79.7898 167.81 76.2596C168.064 75.3818 168.419 74.4932 166.957 74.3128C166.442 74.2482 166.343 73.7069 166.424 73.2303C166.515 72.6864 166.884 72.2313 167.401 72.2852C169.2 72.4764 169.534 71.2162 169.908 69.9398C170.045 69.4686 170.22 69.0055 170.366 68.5369C170.836 67.0416 171.854 66.3038 173.419 66.3235H173.422Z" fill="#F4932F"/>
<path d="M154.172 106.332C155.7 106.348 156.65 105.591 157.024 104.062C157.215 103.281 157.422 102.503 157.602 101.719C157.753 101.059 158.136 100.779 158.825 100.723C161.308 100.526 161.601 100.852 161.017 103.254C159.773 108.378 158.389 113.468 157.368 118.646C157.26 119.195 157.344 119.914 156.558 120.005C155.688 120.105 154.63 120.428 154.04 119.612C153.483 118.839 153.084 119.122 152.502 119.402C150.898 120.175 149.242 120.606 147.44 120.148C144.785 119.478 143.188 117.068 143.641 114.356C144.449 109.507 148.687 106.275 154.172 106.332ZM153.833 109.076C150.962 109.073 148.506 110.743 147.766 113.284C147.384 114.59 147.101 115.974 148.318 117.025C149.22 117.803 151.361 117.509 152.586 116.526C153.399 115.875 154.132 115.124 154.482 114.13C154.837 113.12 155.077 112.067 155.343 111.028C155.831 109.13 155.788 109.081 153.833 109.078V109.076Z" fill="#F4932F"/>
<path d="M119.955 106.281C120.62 106.351 121.299 106.362 121.953 106.499C125.556 107.25 127.46 110.546 126.34 114.041C124.783 118.899 118.835 121.667 114.107 119.734C111.565 118.694 110.197 116.26 110.652 113.591C111.395 109.237 115.127 106.324 119.955 106.281ZM119.498 109.068C117.042 109.084 114.734 111.265 114.513 113.775C114.257 116.691 116.175 118.242 118.983 117.342C121.108 116.661 122.225 115.046 122.705 112.967C123.254 110.581 121.961 109.049 119.498 109.065V109.068Z" fill="#F4932F"/>
<path d="M133.75 120.35C131.394 120.189 129.164 119.55 127.823 117.232C126.765 115.398 126.997 113.516 127.764 111.672C129.649 107.124 135.882 104.875 140.272 107.134C142.461 108.26 143.619 110.67 143.139 113.099C142.305 117.318 138.416 120.358 133.753 120.353L133.75 120.35ZM130.96 114.437C130.947 116.031 131.744 117.068 133.276 117.453C136.561 118.279 140.191 114.459 139.267 111.144C138.912 109.873 138.061 109.205 136.755 109.087C133.645 108.804 130.984 111.26 130.96 114.437Z" fill="#F4932F"/>
<path d="M107.143 101.579C108.667 101.579 110.189 101.571 111.713 101.582C112.469 101.587 113.256 101.663 113.145 102.702C113.054 103.566 113.043 104.557 111.705 104.533C109.69 104.498 107.674 104.565 105.659 104.514C104.655 104.49 104.133 104.8 103.866 105.842C102.978 109.334 102.937 109.323 106.586 109.323C107.526 109.323 108.468 109.313 109.408 109.332C110.065 109.345 110.792 109.42 110.601 110.336C110.442 111.09 110.587 112.167 109.284 112.148C107.493 112.121 105.7 112.167 103.912 112.086C102.786 112.035 102.199 112.366 101.987 113.556C101.68 115.272 101.195 116.955 100.761 118.646C100.425 119.968 98.2707 120.673 97.2232 119.828C96.7897 119.478 96.8812 119.033 96.9889 118.597C98.2841 113.295 99.5928 107.993 100.88 102.689C101.071 101.902 101.523 101.571 102.307 101.579C103.92 101.593 105.533 101.585 107.143 101.585V101.579Z" fill="#F4932F"/>
<path d="M167.667 106.332C168.844 106.337 169.746 106.332 170.599 106.658C171.124 106.857 171.911 107.016 171.464 107.808C171.1 108.456 171.264 109.824 169.786 109.329C168.846 109.014 167.877 108.863 166.878 109.073C166.18 109.221 165.558 109.482 165.426 110.261C165.305 110.982 165.911 111.262 166.404 111.556C167.212 112.035 168.09 112.409 168.852 112.948C170.825 114.337 171.011 116.669 169.344 118.39C167.408 120.393 162.316 120.975 159.993 119.489C159.449 119.141 159.373 118.74 159.678 118.258C160.02 117.711 160.017 116.737 161.097 117.011C161.834 117.2 162.567 117.399 163.313 117.555C164.075 117.714 164.834 117.663 165.55 117.334C166.835 116.747 166.956 115.681 165.806 114.881C165.332 114.553 164.786 114.327 164.271 114.055C162.78 113.268 161.466 112.28 161.592 110.393C161.716 108.513 163.041 107.519 164.662 106.841C165.72 106.397 166.824 106.289 167.672 106.329L167.667 106.332Z" fill="#F4932F"/>
</g>
<defs>
<clipPath id="clip0_2206_758">
<rect width="149.61" height="63.8362" fill="white" transform="translate(27 66.0139)"/>
</clipPath>
</defs>
</svg>
